%TF.GenerationSoftware,KiCad,Pcbnew,9.0.1*%
%TF.CreationDate,2025-04-11T19:14:05-04:00*%
%TF.ProjectId,transistor-tester,7472616e-7369-4737-946f-722d74657374,rev?*%
%TF.SameCoordinates,Original*%
%TF.FileFunction,Legend,Top*%
%TF.FilePolarity,Positive*%
%FSLAX46Y46*%
G04 Gerber Fmt 4.6, Leading zero omitted, Abs format (unit mm)*
G04 Created by KiCad (PCBNEW 9.0.1) date 2025-04-11 19:14:05*
%MOMM*%
%LPD*%
G01*
G04 APERTURE LIST*
%ADD10C,0.100000*%
%ADD11C,0.200000*%
%ADD12C,0.187500*%
%ADD13C,0.120000*%
G04 APERTURE END LIST*
D10*
X136800000Y-63600000D02*
X136800000Y-66600000D01*
X161000000Y-86800000D02*
X161000000Y-84800000D01*
X131800000Y-63600000D02*
X131800000Y-66600000D01*
X146000000Y-86800000D02*
X146000000Y-84800000D01*
X156000000Y-86800000D02*
X156000000Y-84800000D01*
X122600000Y-86800000D02*
X122600000Y-84800000D01*
X125000000Y-86800000D02*
X125000000Y-84800000D01*
X148400000Y-86800000D02*
X148400000Y-84800000D01*
X106200000Y-86800000D02*
X106200000Y-84800000D01*
X158600000Y-86800000D02*
X158600000Y-84800000D01*
X111400000Y-86800000D02*
X111400000Y-84800000D01*
X109000000Y-86800000D02*
X109000000Y-84800000D01*
X143200000Y-86800000D02*
X143200000Y-84800000D01*
X120000000Y-86800000D02*
X120000000Y-84800000D01*
D11*
X147957143Y-130852219D02*
X147957143Y-129852219D01*
X147957143Y-129852219D02*
X148338095Y-129852219D01*
X148338095Y-129852219D02*
X148433333Y-129899838D01*
X148433333Y-129899838D02*
X148480952Y-129947457D01*
X148480952Y-129947457D02*
X148528571Y-130042695D01*
X148528571Y-130042695D02*
X148528571Y-130185552D01*
X148528571Y-130185552D02*
X148480952Y-130280790D01*
X148480952Y-130280790D02*
X148433333Y-130328409D01*
X148433333Y-130328409D02*
X148338095Y-130376028D01*
X148338095Y-130376028D02*
X147957143Y-130376028D01*
X148957143Y-130852219D02*
X148957143Y-129852219D01*
X148957143Y-129852219D02*
X149290476Y-130566504D01*
X149290476Y-130566504D02*
X149623809Y-129852219D01*
X149623809Y-129852219D02*
X149623809Y-130852219D01*
X150290476Y-129852219D02*
X150480952Y-129852219D01*
X150480952Y-129852219D02*
X150576190Y-129899838D01*
X150576190Y-129899838D02*
X150671428Y-129995076D01*
X150671428Y-129995076D02*
X150719047Y-130185552D01*
X150719047Y-130185552D02*
X150719047Y-130518885D01*
X150719047Y-130518885D02*
X150671428Y-130709361D01*
X150671428Y-130709361D02*
X150576190Y-130804600D01*
X150576190Y-130804600D02*
X150480952Y-130852219D01*
X150480952Y-130852219D02*
X150290476Y-130852219D01*
X150290476Y-130852219D02*
X150195238Y-130804600D01*
X150195238Y-130804600D02*
X150100000Y-130709361D01*
X150100000Y-130709361D02*
X150052381Y-130518885D01*
X150052381Y-130518885D02*
X150052381Y-130185552D01*
X150052381Y-130185552D02*
X150100000Y-129995076D01*
X150100000Y-129995076D02*
X150195238Y-129899838D01*
X150195238Y-129899838D02*
X150290476Y-129852219D01*
X151100000Y-130804600D02*
X151242857Y-130852219D01*
X151242857Y-130852219D02*
X151480952Y-130852219D01*
X151480952Y-130852219D02*
X151576190Y-130804600D01*
X151576190Y-130804600D02*
X151623809Y-130756980D01*
X151623809Y-130756980D02*
X151671428Y-130661742D01*
X151671428Y-130661742D02*
X151671428Y-130566504D01*
X151671428Y-130566504D02*
X151623809Y-130471266D01*
X151623809Y-130471266D02*
X151576190Y-130423647D01*
X151576190Y-130423647D02*
X151480952Y-130376028D01*
X151480952Y-130376028D02*
X151290476Y-130328409D01*
X151290476Y-130328409D02*
X151195238Y-130280790D01*
X151195238Y-130280790D02*
X151147619Y-130233171D01*
X151147619Y-130233171D02*
X151100000Y-130137933D01*
X151100000Y-130137933D02*
X151100000Y-130042695D01*
X151100000Y-130042695D02*
X151147619Y-129947457D01*
X151147619Y-129947457D02*
X151195238Y-129899838D01*
X151195238Y-129899838D02*
X151290476Y-129852219D01*
X151290476Y-129852219D02*
X151528571Y-129852219D01*
X151528571Y-129852219D02*
X151671428Y-129899838D01*
X153576190Y-129804600D02*
X152719048Y-131090314D01*
X154671429Y-130852219D02*
X154671429Y-129852219D01*
X154671429Y-129852219D02*
X155052381Y-129852219D01*
X155052381Y-129852219D02*
X155147619Y-129899838D01*
X155147619Y-129899838D02*
X155195238Y-129947457D01*
X155195238Y-129947457D02*
X155242857Y-130042695D01*
X155242857Y-130042695D02*
X155242857Y-130185552D01*
X155242857Y-130185552D02*
X155195238Y-130280790D01*
X155195238Y-130280790D02*
X155147619Y-130328409D01*
X155147619Y-130328409D02*
X155052381Y-130376028D01*
X155052381Y-130376028D02*
X154671429Y-130376028D01*
X155671429Y-130852219D02*
X155671429Y-129852219D01*
X155671429Y-129852219D02*
X156242857Y-130852219D01*
X156242857Y-130852219D02*
X156242857Y-129852219D01*
X156719048Y-130852219D02*
X156719048Y-129852219D01*
X156719048Y-129852219D02*
X157100000Y-129852219D01*
X157100000Y-129852219D02*
X157195238Y-129899838D01*
X157195238Y-129899838D02*
X157242857Y-129947457D01*
X157242857Y-129947457D02*
X157290476Y-130042695D01*
X157290476Y-130042695D02*
X157290476Y-130185552D01*
X157290476Y-130185552D02*
X157242857Y-130280790D01*
X157242857Y-130280790D02*
X157195238Y-130328409D01*
X157195238Y-130328409D02*
X157100000Y-130376028D01*
X157100000Y-130376028D02*
X156719048Y-130376028D01*
X148114286Y-88004600D02*
X148257143Y-88052219D01*
X148257143Y-88052219D02*
X148495238Y-88052219D01*
X148495238Y-88052219D02*
X148590476Y-88004600D01*
X148590476Y-88004600D02*
X148638095Y-87956980D01*
X148638095Y-87956980D02*
X148685714Y-87861742D01*
X148685714Y-87861742D02*
X148685714Y-87766504D01*
X148685714Y-87766504D02*
X148638095Y-87671266D01*
X148638095Y-87671266D02*
X148590476Y-87623647D01*
X148590476Y-87623647D02*
X148495238Y-87576028D01*
X148495238Y-87576028D02*
X148304762Y-87528409D01*
X148304762Y-87528409D02*
X148209524Y-87480790D01*
X148209524Y-87480790D02*
X148161905Y-87433171D01*
X148161905Y-87433171D02*
X148114286Y-87337933D01*
X148114286Y-87337933D02*
X148114286Y-87242695D01*
X148114286Y-87242695D02*
X148161905Y-87147457D01*
X148161905Y-87147457D02*
X148209524Y-87099838D01*
X148209524Y-87099838D02*
X148304762Y-87052219D01*
X148304762Y-87052219D02*
X148542857Y-87052219D01*
X148542857Y-87052219D02*
X148685714Y-87099838D01*
D10*
X144103884Y-90272419D02*
X144103884Y-89272419D01*
X144103884Y-89272419D02*
X144484836Y-89272419D01*
X144484836Y-89272419D02*
X144580074Y-89320038D01*
X144580074Y-89320038D02*
X144627693Y-89367657D01*
X144627693Y-89367657D02*
X144675312Y-89462895D01*
X144675312Y-89462895D02*
X144675312Y-89605752D01*
X144675312Y-89605752D02*
X144627693Y-89700990D01*
X144627693Y-89700990D02*
X144580074Y-89748609D01*
X144580074Y-89748609D02*
X144484836Y-89796228D01*
X144484836Y-89796228D02*
X144103884Y-89796228D01*
X145103884Y-90272419D02*
X145103884Y-89272419D01*
X145103884Y-89272419D02*
X145437217Y-89986704D01*
X145437217Y-89986704D02*
X145770550Y-89272419D01*
X145770550Y-89272419D02*
X145770550Y-90272419D01*
X146437217Y-89272419D02*
X146627693Y-89272419D01*
X146627693Y-89272419D02*
X146722931Y-89320038D01*
X146722931Y-89320038D02*
X146818169Y-89415276D01*
X146818169Y-89415276D02*
X146865788Y-89605752D01*
X146865788Y-89605752D02*
X146865788Y-89939085D01*
X146865788Y-89939085D02*
X146818169Y-90129561D01*
X146818169Y-90129561D02*
X146722931Y-90224800D01*
X146722931Y-90224800D02*
X146627693Y-90272419D01*
X146627693Y-90272419D02*
X146437217Y-90272419D01*
X146437217Y-90272419D02*
X146341979Y-90224800D01*
X146341979Y-90224800D02*
X146246741Y-90129561D01*
X146246741Y-90129561D02*
X146199122Y-89939085D01*
X146199122Y-89939085D02*
X146199122Y-89605752D01*
X146199122Y-89605752D02*
X146246741Y-89415276D01*
X146246741Y-89415276D02*
X146341979Y-89320038D01*
X146341979Y-89320038D02*
X146437217Y-89272419D01*
X147246741Y-90224800D02*
X147389598Y-90272419D01*
X147389598Y-90272419D02*
X147627693Y-90272419D01*
X147627693Y-90272419D02*
X147722931Y-90224800D01*
X147722931Y-90224800D02*
X147770550Y-90177180D01*
X147770550Y-90177180D02*
X147818169Y-90081942D01*
X147818169Y-90081942D02*
X147818169Y-89986704D01*
X147818169Y-89986704D02*
X147770550Y-89891466D01*
X147770550Y-89891466D02*
X147722931Y-89843847D01*
X147722931Y-89843847D02*
X147627693Y-89796228D01*
X147627693Y-89796228D02*
X147437217Y-89748609D01*
X147437217Y-89748609D02*
X147341979Y-89700990D01*
X147341979Y-89700990D02*
X147294360Y-89653371D01*
X147294360Y-89653371D02*
X147246741Y-89558133D01*
X147246741Y-89558133D02*
X147246741Y-89462895D01*
X147246741Y-89462895D02*
X147294360Y-89367657D01*
X147294360Y-89367657D02*
X147341979Y-89320038D01*
X147341979Y-89320038D02*
X147437217Y-89272419D01*
X147437217Y-89272419D02*
X147675312Y-89272419D01*
X147675312Y-89272419D02*
X147818169Y-89320038D01*
X157303884Y-90272419D02*
X157303884Y-89272419D01*
X157303884Y-89272419D02*
X157684836Y-89272419D01*
X157684836Y-89272419D02*
X157780074Y-89320038D01*
X157780074Y-89320038D02*
X157827693Y-89367657D01*
X157827693Y-89367657D02*
X157875312Y-89462895D01*
X157875312Y-89462895D02*
X157875312Y-89605752D01*
X157875312Y-89605752D02*
X157827693Y-89700990D01*
X157827693Y-89700990D02*
X157780074Y-89748609D01*
X157780074Y-89748609D02*
X157684836Y-89796228D01*
X157684836Y-89796228D02*
X157303884Y-89796228D01*
X158303884Y-90272419D02*
X158303884Y-89272419D01*
X158303884Y-89272419D02*
X158875312Y-90272419D01*
X158875312Y-90272419D02*
X158875312Y-89272419D01*
X159351503Y-90272419D02*
X159351503Y-89272419D01*
X159351503Y-89272419D02*
X159732455Y-89272419D01*
X159732455Y-89272419D02*
X159827693Y-89320038D01*
X159827693Y-89320038D02*
X159875312Y-89367657D01*
X159875312Y-89367657D02*
X159922931Y-89462895D01*
X159922931Y-89462895D02*
X159922931Y-89605752D01*
X159922931Y-89605752D02*
X159875312Y-89700990D01*
X159875312Y-89700990D02*
X159827693Y-89748609D01*
X159827693Y-89748609D02*
X159732455Y-89796228D01*
X159732455Y-89796228D02*
X159351503Y-89796228D01*
X107103884Y-90272419D02*
X107103884Y-89272419D01*
X107103884Y-89272419D02*
X107675312Y-90272419D01*
X107675312Y-90272419D02*
X107675312Y-89272419D01*
X108151503Y-90272419D02*
X108151503Y-89272419D01*
X108151503Y-89272419D02*
X108484836Y-89986704D01*
X108484836Y-89986704D02*
X108818169Y-89272419D01*
X108818169Y-89272419D02*
X108818169Y-90272419D01*
X109484836Y-89272419D02*
X109675312Y-89272419D01*
X109675312Y-89272419D02*
X109770550Y-89320038D01*
X109770550Y-89320038D02*
X109865788Y-89415276D01*
X109865788Y-89415276D02*
X109913407Y-89605752D01*
X109913407Y-89605752D02*
X109913407Y-89939085D01*
X109913407Y-89939085D02*
X109865788Y-90129561D01*
X109865788Y-90129561D02*
X109770550Y-90224800D01*
X109770550Y-90224800D02*
X109675312Y-90272419D01*
X109675312Y-90272419D02*
X109484836Y-90272419D01*
X109484836Y-90272419D02*
X109389598Y-90224800D01*
X109389598Y-90224800D02*
X109294360Y-90129561D01*
X109294360Y-90129561D02*
X109246741Y-89939085D01*
X109246741Y-89939085D02*
X109246741Y-89605752D01*
X109246741Y-89605752D02*
X109294360Y-89415276D01*
X109294360Y-89415276D02*
X109389598Y-89320038D01*
X109389598Y-89320038D02*
X109484836Y-89272419D01*
X110294360Y-90224800D02*
X110437217Y-90272419D01*
X110437217Y-90272419D02*
X110675312Y-90272419D01*
X110675312Y-90272419D02*
X110770550Y-90224800D01*
X110770550Y-90224800D02*
X110818169Y-90177180D01*
X110818169Y-90177180D02*
X110865788Y-90081942D01*
X110865788Y-90081942D02*
X110865788Y-89986704D01*
X110865788Y-89986704D02*
X110818169Y-89891466D01*
X110818169Y-89891466D02*
X110770550Y-89843847D01*
X110770550Y-89843847D02*
X110675312Y-89796228D01*
X110675312Y-89796228D02*
X110484836Y-89748609D01*
X110484836Y-89748609D02*
X110389598Y-89700990D01*
X110389598Y-89700990D02*
X110341979Y-89653371D01*
X110341979Y-89653371D02*
X110294360Y-89558133D01*
X110294360Y-89558133D02*
X110294360Y-89462895D01*
X110294360Y-89462895D02*
X110341979Y-89367657D01*
X110341979Y-89367657D02*
X110389598Y-89320038D01*
X110389598Y-89320038D02*
X110484836Y-89272419D01*
X110484836Y-89272419D02*
X110722931Y-89272419D01*
X110722931Y-89272419D02*
X110865788Y-89320038D01*
D11*
X106461904Y-87099838D02*
X106366666Y-87052219D01*
X106366666Y-87052219D02*
X106223809Y-87052219D01*
X106223809Y-87052219D02*
X106080952Y-87099838D01*
X106080952Y-87099838D02*
X105985714Y-87195076D01*
X105985714Y-87195076D02*
X105938095Y-87290314D01*
X105938095Y-87290314D02*
X105890476Y-87480790D01*
X105890476Y-87480790D02*
X105890476Y-87623647D01*
X105890476Y-87623647D02*
X105938095Y-87814123D01*
X105938095Y-87814123D02*
X105985714Y-87909361D01*
X105985714Y-87909361D02*
X106080952Y-88004600D01*
X106080952Y-88004600D02*
X106223809Y-88052219D01*
X106223809Y-88052219D02*
X106319047Y-88052219D01*
X106319047Y-88052219D02*
X106461904Y-88004600D01*
X106461904Y-88004600D02*
X106509523Y-87956980D01*
X106509523Y-87956980D02*
X106509523Y-87623647D01*
X106509523Y-87623647D02*
X106319047Y-87623647D01*
X119785714Y-87528409D02*
X120119047Y-87528409D01*
X120261904Y-88052219D02*
X119785714Y-88052219D01*
X119785714Y-88052219D02*
X119785714Y-87052219D01*
X119785714Y-87052219D02*
X120261904Y-87052219D01*
X110909524Y-130852219D02*
X110909524Y-129852219D01*
X110909524Y-129852219D02*
X111480952Y-130852219D01*
X111480952Y-130852219D02*
X111480952Y-129852219D01*
X111957143Y-130852219D02*
X111957143Y-129852219D01*
X111957143Y-129852219D02*
X112290476Y-130566504D01*
X112290476Y-130566504D02*
X112623809Y-129852219D01*
X112623809Y-129852219D02*
X112623809Y-130852219D01*
X113290476Y-129852219D02*
X113480952Y-129852219D01*
X113480952Y-129852219D02*
X113576190Y-129899838D01*
X113576190Y-129899838D02*
X113671428Y-129995076D01*
X113671428Y-129995076D02*
X113719047Y-130185552D01*
X113719047Y-130185552D02*
X113719047Y-130518885D01*
X113719047Y-130518885D02*
X113671428Y-130709361D01*
X113671428Y-130709361D02*
X113576190Y-130804600D01*
X113576190Y-130804600D02*
X113480952Y-130852219D01*
X113480952Y-130852219D02*
X113290476Y-130852219D01*
X113290476Y-130852219D02*
X113195238Y-130804600D01*
X113195238Y-130804600D02*
X113100000Y-130709361D01*
X113100000Y-130709361D02*
X113052381Y-130518885D01*
X113052381Y-130518885D02*
X113052381Y-130185552D01*
X113052381Y-130185552D02*
X113100000Y-129995076D01*
X113100000Y-129995076D02*
X113195238Y-129899838D01*
X113195238Y-129899838D02*
X113290476Y-129852219D01*
X114100000Y-130804600D02*
X114242857Y-130852219D01*
X114242857Y-130852219D02*
X114480952Y-130852219D01*
X114480952Y-130852219D02*
X114576190Y-130804600D01*
X114576190Y-130804600D02*
X114623809Y-130756980D01*
X114623809Y-130756980D02*
X114671428Y-130661742D01*
X114671428Y-130661742D02*
X114671428Y-130566504D01*
X114671428Y-130566504D02*
X114623809Y-130471266D01*
X114623809Y-130471266D02*
X114576190Y-130423647D01*
X114576190Y-130423647D02*
X114480952Y-130376028D01*
X114480952Y-130376028D02*
X114290476Y-130328409D01*
X114290476Y-130328409D02*
X114195238Y-130280790D01*
X114195238Y-130280790D02*
X114147619Y-130233171D01*
X114147619Y-130233171D02*
X114100000Y-130137933D01*
X114100000Y-130137933D02*
X114100000Y-130042695D01*
X114100000Y-130042695D02*
X114147619Y-129947457D01*
X114147619Y-129947457D02*
X114195238Y-129899838D01*
X114195238Y-129899838D02*
X114290476Y-129852219D01*
X114290476Y-129852219D02*
X114528571Y-129852219D01*
X114528571Y-129852219D02*
X114671428Y-129899838D01*
X116576190Y-129804600D02*
X115719048Y-131090314D01*
X117671429Y-130852219D02*
X117671429Y-129852219D01*
X117671429Y-129852219D02*
X118242857Y-130852219D01*
X118242857Y-130852219D02*
X118242857Y-129852219D01*
X118719048Y-130852219D02*
X118719048Y-129852219D01*
X118719048Y-129852219D02*
X119100000Y-129852219D01*
X119100000Y-129852219D02*
X119195238Y-129899838D01*
X119195238Y-129899838D02*
X119242857Y-129947457D01*
X119242857Y-129947457D02*
X119290476Y-130042695D01*
X119290476Y-130042695D02*
X119290476Y-130185552D01*
X119290476Y-130185552D02*
X119242857Y-130280790D01*
X119242857Y-130280790D02*
X119195238Y-130328409D01*
X119195238Y-130328409D02*
X119100000Y-130376028D01*
X119100000Y-130376028D02*
X118719048Y-130376028D01*
X119719048Y-130852219D02*
X119719048Y-129852219D01*
X119719048Y-129852219D02*
X120290476Y-130852219D01*
X120290476Y-130852219D02*
X120290476Y-129852219D01*
D12*
X103830497Y-77398464D02*
X103973355Y-77898464D01*
X103973355Y-77898464D02*
X104116212Y-77541321D01*
X104116212Y-77541321D02*
X104259069Y-77898464D01*
X104259069Y-77898464D02*
X104401926Y-77398464D01*
X104794783Y-77898464D02*
X104723354Y-77862750D01*
X104723354Y-77862750D02*
X104687640Y-77827035D01*
X104687640Y-77827035D02*
X104651926Y-77755607D01*
X104651926Y-77755607D02*
X104651926Y-77541321D01*
X104651926Y-77541321D02*
X104687640Y-77469892D01*
X104687640Y-77469892D02*
X104723354Y-77434178D01*
X104723354Y-77434178D02*
X104794783Y-77398464D01*
X104794783Y-77398464D02*
X104901926Y-77398464D01*
X104901926Y-77398464D02*
X104973354Y-77434178D01*
X104973354Y-77434178D02*
X105009069Y-77469892D01*
X105009069Y-77469892D02*
X105044783Y-77541321D01*
X105044783Y-77541321D02*
X105044783Y-77755607D01*
X105044783Y-77755607D02*
X105009069Y-77827035D01*
X105009069Y-77827035D02*
X104973354Y-77862750D01*
X104973354Y-77862750D02*
X104901926Y-77898464D01*
X104901926Y-77898464D02*
X104794783Y-77898464D01*
X105366211Y-77898464D02*
X105366211Y-77398464D01*
X105366211Y-77541321D02*
X105401925Y-77469892D01*
X105401925Y-77469892D02*
X105437640Y-77434178D01*
X105437640Y-77434178D02*
X105509068Y-77398464D01*
X105509068Y-77398464D02*
X105580497Y-77398464D01*
X105830497Y-77898464D02*
X105830497Y-77148464D01*
X105901926Y-77612750D02*
X106116211Y-77898464D01*
X106116211Y-77398464D02*
X105830497Y-77684178D01*
X106437640Y-77898464D02*
X106437640Y-77398464D01*
X106437640Y-77148464D02*
X106401926Y-77184178D01*
X106401926Y-77184178D02*
X106437640Y-77219892D01*
X106437640Y-77219892D02*
X106473354Y-77184178D01*
X106473354Y-77184178D02*
X106437640Y-77148464D01*
X106437640Y-77148464D02*
X106437640Y-77219892D01*
X106794783Y-77398464D02*
X106794783Y-77898464D01*
X106794783Y-77469892D02*
X106830497Y-77434178D01*
X106830497Y-77434178D02*
X106901926Y-77398464D01*
X106901926Y-77398464D02*
X107009069Y-77398464D01*
X107009069Y-77398464D02*
X107080497Y-77434178D01*
X107080497Y-77434178D02*
X107116212Y-77505607D01*
X107116212Y-77505607D02*
X107116212Y-77898464D01*
X107794783Y-77398464D02*
X107794783Y-78005607D01*
X107794783Y-78005607D02*
X107759068Y-78077035D01*
X107759068Y-78077035D02*
X107723354Y-78112750D01*
X107723354Y-78112750D02*
X107651925Y-78148464D01*
X107651925Y-78148464D02*
X107544783Y-78148464D01*
X107544783Y-78148464D02*
X107473354Y-78112750D01*
X107794783Y-77862750D02*
X107723354Y-77898464D01*
X107723354Y-77898464D02*
X107580497Y-77898464D01*
X107580497Y-77898464D02*
X107509068Y-77862750D01*
X107509068Y-77862750D02*
X107473354Y-77827035D01*
X107473354Y-77827035D02*
X107437640Y-77755607D01*
X107437640Y-77755607D02*
X107437640Y-77541321D01*
X107437640Y-77541321D02*
X107473354Y-77469892D01*
X107473354Y-77469892D02*
X107509068Y-77434178D01*
X107509068Y-77434178D02*
X107580497Y-77398464D01*
X107580497Y-77398464D02*
X107723354Y-77398464D01*
X107723354Y-77398464D02*
X107794783Y-77434178D01*
X108151925Y-77827035D02*
X108187639Y-77862750D01*
X108187639Y-77862750D02*
X108151925Y-77898464D01*
X108151925Y-77898464D02*
X108116211Y-77862750D01*
X108116211Y-77862750D02*
X108151925Y-77827035D01*
X108151925Y-77827035D02*
X108151925Y-77898464D01*
D11*
X122671428Y-87528409D02*
X122814285Y-87576028D01*
X122814285Y-87576028D02*
X122861904Y-87623647D01*
X122861904Y-87623647D02*
X122909523Y-87718885D01*
X122909523Y-87718885D02*
X122909523Y-87861742D01*
X122909523Y-87861742D02*
X122861904Y-87956980D01*
X122861904Y-87956980D02*
X122814285Y-88004600D01*
X122814285Y-88004600D02*
X122719047Y-88052219D01*
X122719047Y-88052219D02*
X122338095Y-88052219D01*
X122338095Y-88052219D02*
X122338095Y-87052219D01*
X122338095Y-87052219D02*
X122671428Y-87052219D01*
X122671428Y-87052219D02*
X122766666Y-87099838D01*
X122766666Y-87099838D02*
X122814285Y-87147457D01*
X122814285Y-87147457D02*
X122861904Y-87242695D01*
X122861904Y-87242695D02*
X122861904Y-87337933D01*
X122861904Y-87337933D02*
X122814285Y-87433171D01*
X122814285Y-87433171D02*
X122766666Y-87480790D01*
X122766666Y-87480790D02*
X122671428Y-87528409D01*
X122671428Y-87528409D02*
X122338095Y-87528409D01*
X143461904Y-87099838D02*
X143366666Y-87052219D01*
X143366666Y-87052219D02*
X143223809Y-87052219D01*
X143223809Y-87052219D02*
X143080952Y-87099838D01*
X143080952Y-87099838D02*
X142985714Y-87195076D01*
X142985714Y-87195076D02*
X142938095Y-87290314D01*
X142938095Y-87290314D02*
X142890476Y-87480790D01*
X142890476Y-87480790D02*
X142890476Y-87623647D01*
X142890476Y-87623647D02*
X142938095Y-87814123D01*
X142938095Y-87814123D02*
X142985714Y-87909361D01*
X142985714Y-87909361D02*
X143080952Y-88004600D01*
X143080952Y-88004600D02*
X143223809Y-88052219D01*
X143223809Y-88052219D02*
X143319047Y-88052219D01*
X143319047Y-88052219D02*
X143461904Y-88004600D01*
X143461904Y-88004600D02*
X143509523Y-87956980D01*
X143509523Y-87956980D02*
X143509523Y-87623647D01*
X143509523Y-87623647D02*
X143319047Y-87623647D01*
X161309523Y-87956980D02*
X161261904Y-88004600D01*
X161261904Y-88004600D02*
X161119047Y-88052219D01*
X161119047Y-88052219D02*
X161023809Y-88052219D01*
X161023809Y-88052219D02*
X160880952Y-88004600D01*
X160880952Y-88004600D02*
X160785714Y-87909361D01*
X160785714Y-87909361D02*
X160738095Y-87814123D01*
X160738095Y-87814123D02*
X160690476Y-87623647D01*
X160690476Y-87623647D02*
X160690476Y-87480790D01*
X160690476Y-87480790D02*
X160738095Y-87290314D01*
X160738095Y-87290314D02*
X160785714Y-87195076D01*
X160785714Y-87195076D02*
X160880952Y-87099838D01*
X160880952Y-87099838D02*
X161023809Y-87052219D01*
X161023809Y-87052219D02*
X161119047Y-87052219D01*
X161119047Y-87052219D02*
X161261904Y-87099838D01*
X161261904Y-87099838D02*
X161309523Y-87147457D01*
D10*
X109180074Y-133072419D02*
X108703884Y-133072419D01*
X108703884Y-133072419D02*
X108703884Y-132072419D01*
X109656265Y-133072419D02*
X109561027Y-133024800D01*
X109561027Y-133024800D02*
X109513408Y-132977180D01*
X109513408Y-132977180D02*
X109465789Y-132881942D01*
X109465789Y-132881942D02*
X109465789Y-132596228D01*
X109465789Y-132596228D02*
X109513408Y-132500990D01*
X109513408Y-132500990D02*
X109561027Y-132453371D01*
X109561027Y-132453371D02*
X109656265Y-132405752D01*
X109656265Y-132405752D02*
X109799122Y-132405752D01*
X109799122Y-132405752D02*
X109894360Y-132453371D01*
X109894360Y-132453371D02*
X109941979Y-132500990D01*
X109941979Y-132500990D02*
X109989598Y-132596228D01*
X109989598Y-132596228D02*
X109989598Y-132881942D01*
X109989598Y-132881942D02*
X109941979Y-132977180D01*
X109941979Y-132977180D02*
X109894360Y-133024800D01*
X109894360Y-133024800D02*
X109799122Y-133072419D01*
X109799122Y-133072419D02*
X109656265Y-133072419D01*
X110322932Y-132405752D02*
X110513408Y-133072419D01*
X110513408Y-133072419D02*
X110703884Y-132596228D01*
X110703884Y-132596228D02*
X110894360Y-133072419D01*
X110894360Y-133072419D02*
X111084836Y-132405752D01*
X111465789Y-132691466D02*
X112227694Y-132691466D01*
X112656265Y-133024800D02*
X112799122Y-133072419D01*
X112799122Y-133072419D02*
X113037217Y-133072419D01*
X113037217Y-133072419D02*
X113132455Y-133024800D01*
X113132455Y-133024800D02*
X113180074Y-132977180D01*
X113180074Y-132977180D02*
X113227693Y-132881942D01*
X113227693Y-132881942D02*
X113227693Y-132786704D01*
X113227693Y-132786704D02*
X113180074Y-132691466D01*
X113180074Y-132691466D02*
X113132455Y-132643847D01*
X113132455Y-132643847D02*
X113037217Y-132596228D01*
X113037217Y-132596228D02*
X112846741Y-132548609D01*
X112846741Y-132548609D02*
X112751503Y-132500990D01*
X112751503Y-132500990D02*
X112703884Y-132453371D01*
X112703884Y-132453371D02*
X112656265Y-132358133D01*
X112656265Y-132358133D02*
X112656265Y-132262895D01*
X112656265Y-132262895D02*
X112703884Y-132167657D01*
X112703884Y-132167657D02*
X112751503Y-132120038D01*
X112751503Y-132120038D02*
X112846741Y-132072419D01*
X112846741Y-132072419D02*
X113084836Y-132072419D01*
X113084836Y-132072419D02*
X113227693Y-132120038D01*
X113656265Y-133072419D02*
X113656265Y-132405752D01*
X113656265Y-132072419D02*
X113608646Y-132120038D01*
X113608646Y-132120038D02*
X113656265Y-132167657D01*
X113656265Y-132167657D02*
X113703884Y-132120038D01*
X113703884Y-132120038D02*
X113656265Y-132072419D01*
X113656265Y-132072419D02*
X113656265Y-132167657D01*
X114561026Y-133072419D02*
X114561026Y-132072419D01*
X114561026Y-133024800D02*
X114465788Y-133072419D01*
X114465788Y-133072419D02*
X114275312Y-133072419D01*
X114275312Y-133072419D02*
X114180074Y-133024800D01*
X114180074Y-133024800D02*
X114132455Y-132977180D01*
X114132455Y-132977180D02*
X114084836Y-132881942D01*
X114084836Y-132881942D02*
X114084836Y-132596228D01*
X114084836Y-132596228D02*
X114132455Y-132500990D01*
X114132455Y-132500990D02*
X114180074Y-132453371D01*
X114180074Y-132453371D02*
X114275312Y-132405752D01*
X114275312Y-132405752D02*
X114465788Y-132405752D01*
X114465788Y-132405752D02*
X114561026Y-132453371D01*
X115418169Y-133024800D02*
X115322931Y-133072419D01*
X115322931Y-133072419D02*
X115132455Y-133072419D01*
X115132455Y-133072419D02*
X115037217Y-133024800D01*
X115037217Y-133024800D02*
X114989598Y-132929561D01*
X114989598Y-132929561D02*
X114989598Y-132548609D01*
X114989598Y-132548609D02*
X115037217Y-132453371D01*
X115037217Y-132453371D02*
X115132455Y-132405752D01*
X115132455Y-132405752D02*
X115322931Y-132405752D01*
X115322931Y-132405752D02*
X115418169Y-132453371D01*
X115418169Y-132453371D02*
X115465788Y-132548609D01*
X115465788Y-132548609D02*
X115465788Y-132643847D01*
X115465788Y-132643847D02*
X114989598Y-132739085D01*
X116608646Y-133024800D02*
X116751503Y-133072419D01*
X116751503Y-133072419D02*
X116989598Y-133072419D01*
X116989598Y-133072419D02*
X117084836Y-133024800D01*
X117084836Y-133024800D02*
X117132455Y-132977180D01*
X117132455Y-132977180D02*
X117180074Y-132881942D01*
X117180074Y-132881942D02*
X117180074Y-132786704D01*
X117180074Y-132786704D02*
X117132455Y-132691466D01*
X117132455Y-132691466D02*
X117084836Y-132643847D01*
X117084836Y-132643847D02*
X116989598Y-132596228D01*
X116989598Y-132596228D02*
X116799122Y-132548609D01*
X116799122Y-132548609D02*
X116703884Y-132500990D01*
X116703884Y-132500990D02*
X116656265Y-132453371D01*
X116656265Y-132453371D02*
X116608646Y-132358133D01*
X116608646Y-132358133D02*
X116608646Y-132262895D01*
X116608646Y-132262895D02*
X116656265Y-132167657D01*
X116656265Y-132167657D02*
X116703884Y-132120038D01*
X116703884Y-132120038D02*
X116799122Y-132072419D01*
X116799122Y-132072419D02*
X117037217Y-132072419D01*
X117037217Y-132072419D02*
X117180074Y-132120038D01*
X117513408Y-132405752D02*
X117703884Y-133072419D01*
X117703884Y-133072419D02*
X117894360Y-132596228D01*
X117894360Y-132596228D02*
X118084836Y-133072419D01*
X118084836Y-133072419D02*
X118275312Y-132405752D01*
X118656265Y-133072419D02*
X118656265Y-132405752D01*
X118656265Y-132072419D02*
X118608646Y-132120038D01*
X118608646Y-132120038D02*
X118656265Y-132167657D01*
X118656265Y-132167657D02*
X118703884Y-132120038D01*
X118703884Y-132120038D02*
X118656265Y-132072419D01*
X118656265Y-132072419D02*
X118656265Y-132167657D01*
X118989598Y-132405752D02*
X119370550Y-132405752D01*
X119132455Y-132072419D02*
X119132455Y-132929561D01*
X119132455Y-132929561D02*
X119180074Y-133024800D01*
X119180074Y-133024800D02*
X119275312Y-133072419D01*
X119275312Y-133072419D02*
X119370550Y-133072419D01*
X120132455Y-133024800D02*
X120037217Y-133072419D01*
X120037217Y-133072419D02*
X119846741Y-133072419D01*
X119846741Y-133072419D02*
X119751503Y-133024800D01*
X119751503Y-133024800D02*
X119703884Y-132977180D01*
X119703884Y-132977180D02*
X119656265Y-132881942D01*
X119656265Y-132881942D02*
X119656265Y-132596228D01*
X119656265Y-132596228D02*
X119703884Y-132500990D01*
X119703884Y-132500990D02*
X119751503Y-132453371D01*
X119751503Y-132453371D02*
X119846741Y-132405752D01*
X119846741Y-132405752D02*
X120037217Y-132405752D01*
X120037217Y-132405752D02*
X120132455Y-132453371D01*
X120561027Y-133072419D02*
X120561027Y-132072419D01*
X120989598Y-133072419D02*
X120989598Y-132548609D01*
X120989598Y-132548609D02*
X120941979Y-132453371D01*
X120941979Y-132453371D02*
X120846741Y-132405752D01*
X120846741Y-132405752D02*
X120703884Y-132405752D01*
X120703884Y-132405752D02*
X120608646Y-132453371D01*
X120608646Y-132453371D02*
X120561027Y-132500990D01*
X121846741Y-133024800D02*
X121751503Y-133072419D01*
X121751503Y-133072419D02*
X121561027Y-133072419D01*
X121561027Y-133072419D02*
X121465789Y-133024800D01*
X121465789Y-133024800D02*
X121418170Y-132929561D01*
X121418170Y-132929561D02*
X121418170Y-132548609D01*
X121418170Y-132548609D02*
X121465789Y-132453371D01*
X121465789Y-132453371D02*
X121561027Y-132405752D01*
X121561027Y-132405752D02*
X121751503Y-132405752D01*
X121751503Y-132405752D02*
X121846741Y-132453371D01*
X121846741Y-132453371D02*
X121894360Y-132548609D01*
X121894360Y-132548609D02*
X121894360Y-132643847D01*
X121894360Y-132643847D02*
X121418170Y-132739085D01*
X122275313Y-133024800D02*
X122370551Y-133072419D01*
X122370551Y-133072419D02*
X122561027Y-133072419D01*
X122561027Y-133072419D02*
X122656265Y-133024800D01*
X122656265Y-133024800D02*
X122703884Y-132929561D01*
X122703884Y-132929561D02*
X122703884Y-132881942D01*
X122703884Y-132881942D02*
X122656265Y-132786704D01*
X122656265Y-132786704D02*
X122561027Y-132739085D01*
X122561027Y-132739085D02*
X122418170Y-132739085D01*
X122418170Y-132739085D02*
X122322932Y-132691466D01*
X122322932Y-132691466D02*
X122275313Y-132596228D01*
X122275313Y-132596228D02*
X122275313Y-132548609D01*
X122275313Y-132548609D02*
X122322932Y-132453371D01*
X122322932Y-132453371D02*
X122418170Y-132405752D01*
X122418170Y-132405752D02*
X122561027Y-132405752D01*
X122561027Y-132405752D02*
X122656265Y-132453371D01*
X145303884Y-133072419D02*
X145303884Y-132072419D01*
X145303884Y-132548609D02*
X145875312Y-132548609D01*
X145875312Y-133072419D02*
X145875312Y-132072419D01*
X146351503Y-133072419D02*
X146351503Y-132405752D01*
X146351503Y-132072419D02*
X146303884Y-132120038D01*
X146303884Y-132120038D02*
X146351503Y-132167657D01*
X146351503Y-132167657D02*
X146399122Y-132120038D01*
X146399122Y-132120038D02*
X146351503Y-132072419D01*
X146351503Y-132072419D02*
X146351503Y-132167657D01*
X147256264Y-132405752D02*
X147256264Y-133215276D01*
X147256264Y-133215276D02*
X147208645Y-133310514D01*
X147208645Y-133310514D02*
X147161026Y-133358133D01*
X147161026Y-133358133D02*
X147065788Y-133405752D01*
X147065788Y-133405752D02*
X146922931Y-133405752D01*
X146922931Y-133405752D02*
X146827693Y-133358133D01*
X147256264Y-133024800D02*
X147161026Y-133072419D01*
X147161026Y-133072419D02*
X146970550Y-133072419D01*
X146970550Y-133072419D02*
X146875312Y-133024800D01*
X146875312Y-133024800D02*
X146827693Y-132977180D01*
X146827693Y-132977180D02*
X146780074Y-132881942D01*
X146780074Y-132881942D02*
X146780074Y-132596228D01*
X146780074Y-132596228D02*
X146827693Y-132500990D01*
X146827693Y-132500990D02*
X146875312Y-132453371D01*
X146875312Y-132453371D02*
X146970550Y-132405752D01*
X146970550Y-132405752D02*
X147161026Y-132405752D01*
X147161026Y-132405752D02*
X147256264Y-132453371D01*
X147732455Y-133072419D02*
X147732455Y-132072419D01*
X148161026Y-133072419D02*
X148161026Y-132548609D01*
X148161026Y-132548609D02*
X148113407Y-132453371D01*
X148113407Y-132453371D02*
X148018169Y-132405752D01*
X148018169Y-132405752D02*
X147875312Y-132405752D01*
X147875312Y-132405752D02*
X147780074Y-132453371D01*
X147780074Y-132453371D02*
X147732455Y-132500990D01*
X148637217Y-132691466D02*
X149399122Y-132691466D01*
X149827693Y-133024800D02*
X149970550Y-133072419D01*
X149970550Y-133072419D02*
X150208645Y-133072419D01*
X150208645Y-133072419D02*
X150303883Y-133024800D01*
X150303883Y-133024800D02*
X150351502Y-132977180D01*
X150351502Y-132977180D02*
X150399121Y-132881942D01*
X150399121Y-132881942D02*
X150399121Y-132786704D01*
X150399121Y-132786704D02*
X150351502Y-132691466D01*
X150351502Y-132691466D02*
X150303883Y-132643847D01*
X150303883Y-132643847D02*
X150208645Y-132596228D01*
X150208645Y-132596228D02*
X150018169Y-132548609D01*
X150018169Y-132548609D02*
X149922931Y-132500990D01*
X149922931Y-132500990D02*
X149875312Y-132453371D01*
X149875312Y-132453371D02*
X149827693Y-132358133D01*
X149827693Y-132358133D02*
X149827693Y-132262895D01*
X149827693Y-132262895D02*
X149875312Y-132167657D01*
X149875312Y-132167657D02*
X149922931Y-132120038D01*
X149922931Y-132120038D02*
X150018169Y-132072419D01*
X150018169Y-132072419D02*
X150256264Y-132072419D01*
X150256264Y-132072419D02*
X150399121Y-132120038D01*
X150827693Y-133072419D02*
X150827693Y-132405752D01*
X150827693Y-132072419D02*
X150780074Y-132120038D01*
X150780074Y-132120038D02*
X150827693Y-132167657D01*
X150827693Y-132167657D02*
X150875312Y-132120038D01*
X150875312Y-132120038D02*
X150827693Y-132072419D01*
X150827693Y-132072419D02*
X150827693Y-132167657D01*
X151732454Y-133072419D02*
X151732454Y-132072419D01*
X151732454Y-133024800D02*
X151637216Y-133072419D01*
X151637216Y-133072419D02*
X151446740Y-133072419D01*
X151446740Y-133072419D02*
X151351502Y-133024800D01*
X151351502Y-133024800D02*
X151303883Y-132977180D01*
X151303883Y-132977180D02*
X151256264Y-132881942D01*
X151256264Y-132881942D02*
X151256264Y-132596228D01*
X151256264Y-132596228D02*
X151303883Y-132500990D01*
X151303883Y-132500990D02*
X151351502Y-132453371D01*
X151351502Y-132453371D02*
X151446740Y-132405752D01*
X151446740Y-132405752D02*
X151637216Y-132405752D01*
X151637216Y-132405752D02*
X151732454Y-132453371D01*
X152589597Y-133024800D02*
X152494359Y-133072419D01*
X152494359Y-133072419D02*
X152303883Y-133072419D01*
X152303883Y-133072419D02*
X152208645Y-133024800D01*
X152208645Y-133024800D02*
X152161026Y-132929561D01*
X152161026Y-132929561D02*
X152161026Y-132548609D01*
X152161026Y-132548609D02*
X152208645Y-132453371D01*
X152208645Y-132453371D02*
X152303883Y-132405752D01*
X152303883Y-132405752D02*
X152494359Y-132405752D01*
X152494359Y-132405752D02*
X152589597Y-132453371D01*
X152589597Y-132453371D02*
X152637216Y-132548609D01*
X152637216Y-132548609D02*
X152637216Y-132643847D01*
X152637216Y-132643847D02*
X152161026Y-132739085D01*
X153780074Y-133024800D02*
X153922931Y-133072419D01*
X153922931Y-133072419D02*
X154161026Y-133072419D01*
X154161026Y-133072419D02*
X154256264Y-133024800D01*
X154256264Y-133024800D02*
X154303883Y-132977180D01*
X154303883Y-132977180D02*
X154351502Y-132881942D01*
X154351502Y-132881942D02*
X154351502Y-132786704D01*
X154351502Y-132786704D02*
X154303883Y-132691466D01*
X154303883Y-132691466D02*
X154256264Y-132643847D01*
X154256264Y-132643847D02*
X154161026Y-132596228D01*
X154161026Y-132596228D02*
X153970550Y-132548609D01*
X153970550Y-132548609D02*
X153875312Y-132500990D01*
X153875312Y-132500990D02*
X153827693Y-132453371D01*
X153827693Y-132453371D02*
X153780074Y-132358133D01*
X153780074Y-132358133D02*
X153780074Y-132262895D01*
X153780074Y-132262895D02*
X153827693Y-132167657D01*
X153827693Y-132167657D02*
X153875312Y-132120038D01*
X153875312Y-132120038D02*
X153970550Y-132072419D01*
X153970550Y-132072419D02*
X154208645Y-132072419D01*
X154208645Y-132072419D02*
X154351502Y-132120038D01*
X154684836Y-132405752D02*
X154875312Y-133072419D01*
X154875312Y-133072419D02*
X155065788Y-132596228D01*
X155065788Y-132596228D02*
X155256264Y-133072419D01*
X155256264Y-133072419D02*
X155446740Y-132405752D01*
X155827693Y-133072419D02*
X155827693Y-132405752D01*
X155827693Y-132072419D02*
X155780074Y-132120038D01*
X155780074Y-132120038D02*
X155827693Y-132167657D01*
X155827693Y-132167657D02*
X155875312Y-132120038D01*
X155875312Y-132120038D02*
X155827693Y-132072419D01*
X155827693Y-132072419D02*
X155827693Y-132167657D01*
X156161026Y-132405752D02*
X156541978Y-132405752D01*
X156303883Y-132072419D02*
X156303883Y-132929561D01*
X156303883Y-132929561D02*
X156351502Y-133024800D01*
X156351502Y-133024800D02*
X156446740Y-133072419D01*
X156446740Y-133072419D02*
X156541978Y-133072419D01*
X157303883Y-133024800D02*
X157208645Y-133072419D01*
X157208645Y-133072419D02*
X157018169Y-133072419D01*
X157018169Y-133072419D02*
X156922931Y-133024800D01*
X156922931Y-133024800D02*
X156875312Y-132977180D01*
X156875312Y-132977180D02*
X156827693Y-132881942D01*
X156827693Y-132881942D02*
X156827693Y-132596228D01*
X156827693Y-132596228D02*
X156875312Y-132500990D01*
X156875312Y-132500990D02*
X156922931Y-132453371D01*
X156922931Y-132453371D02*
X157018169Y-132405752D01*
X157018169Y-132405752D02*
X157208645Y-132405752D01*
X157208645Y-132405752D02*
X157303883Y-132453371D01*
X157732455Y-133072419D02*
X157732455Y-132072419D01*
X158161026Y-133072419D02*
X158161026Y-132548609D01*
X158161026Y-132548609D02*
X158113407Y-132453371D01*
X158113407Y-132453371D02*
X158018169Y-132405752D01*
X158018169Y-132405752D02*
X157875312Y-132405752D01*
X157875312Y-132405752D02*
X157780074Y-132453371D01*
X157780074Y-132453371D02*
X157732455Y-132500990D01*
X159018169Y-133024800D02*
X158922931Y-133072419D01*
X158922931Y-133072419D02*
X158732455Y-133072419D01*
X158732455Y-133072419D02*
X158637217Y-133024800D01*
X158637217Y-133024800D02*
X158589598Y-132929561D01*
X158589598Y-132929561D02*
X158589598Y-132548609D01*
X158589598Y-132548609D02*
X158637217Y-132453371D01*
X158637217Y-132453371D02*
X158732455Y-132405752D01*
X158732455Y-132405752D02*
X158922931Y-132405752D01*
X158922931Y-132405752D02*
X159018169Y-132453371D01*
X159018169Y-132453371D02*
X159065788Y-132548609D01*
X159065788Y-132548609D02*
X159065788Y-132643847D01*
X159065788Y-132643847D02*
X158589598Y-132739085D01*
X159446741Y-133024800D02*
X159541979Y-133072419D01*
X159541979Y-133072419D02*
X159732455Y-133072419D01*
X159732455Y-133072419D02*
X159827693Y-133024800D01*
X159827693Y-133024800D02*
X159875312Y-132929561D01*
X159875312Y-132929561D02*
X159875312Y-132881942D01*
X159875312Y-132881942D02*
X159827693Y-132786704D01*
X159827693Y-132786704D02*
X159732455Y-132739085D01*
X159732455Y-132739085D02*
X159589598Y-132739085D01*
X159589598Y-132739085D02*
X159494360Y-132691466D01*
X159494360Y-132691466D02*
X159446741Y-132596228D01*
X159446741Y-132596228D02*
X159446741Y-132548609D01*
X159446741Y-132548609D02*
X159494360Y-132453371D01*
X159494360Y-132453371D02*
X159589598Y-132405752D01*
X159589598Y-132405752D02*
X159732455Y-132405752D01*
X159732455Y-132405752D02*
X159827693Y-132453371D01*
D11*
X132561904Y-63300161D02*
X132657142Y-63347780D01*
X132657142Y-63347780D02*
X132799999Y-63347780D01*
X132799999Y-63347780D02*
X132942856Y-63300161D01*
X132942856Y-63300161D02*
X133038094Y-63204923D01*
X133038094Y-63204923D02*
X133085713Y-63109685D01*
X133085713Y-63109685D02*
X133133332Y-62919209D01*
X133133332Y-62919209D02*
X133133332Y-62776352D01*
X133133332Y-62776352D02*
X133085713Y-62585876D01*
X133085713Y-62585876D02*
X133038094Y-62490638D01*
X133038094Y-62490638D02*
X132942856Y-62395400D01*
X132942856Y-62395400D02*
X132799999Y-62347780D01*
X132799999Y-62347780D02*
X132704761Y-62347780D01*
X132704761Y-62347780D02*
X132561904Y-62395400D01*
X132561904Y-62395400D02*
X132514285Y-62443019D01*
X132514285Y-62443019D02*
X132514285Y-62776352D01*
X132514285Y-62776352D02*
X132704761Y-62776352D01*
X132085713Y-62347780D02*
X132085713Y-63347780D01*
X132085713Y-63347780D02*
X131514285Y-62347780D01*
X131514285Y-62347780D02*
X131514285Y-63347780D01*
X131038094Y-62347780D02*
X131038094Y-63347780D01*
X131038094Y-63347780D02*
X130799999Y-63347780D01*
X130799999Y-63347780D02*
X130657142Y-63300161D01*
X130657142Y-63300161D02*
X130561904Y-63204923D01*
X130561904Y-63204923D02*
X130514285Y-63109685D01*
X130514285Y-63109685D02*
X130466666Y-62919209D01*
X130466666Y-62919209D02*
X130466666Y-62776352D01*
X130466666Y-62776352D02*
X130514285Y-62585876D01*
X130514285Y-62585876D02*
X130561904Y-62490638D01*
X130561904Y-62490638D02*
X130657142Y-62395400D01*
X130657142Y-62395400D02*
X130799999Y-62347780D01*
X130799999Y-62347780D02*
X131038094Y-62347780D01*
D12*
X103901926Y-75998464D02*
X103901926Y-76748464D01*
X103901926Y-76034178D02*
X103973355Y-75998464D01*
X103973355Y-75998464D02*
X104116212Y-75998464D01*
X104116212Y-75998464D02*
X104187640Y-76034178D01*
X104187640Y-76034178D02*
X104223355Y-76069892D01*
X104223355Y-76069892D02*
X104259069Y-76141321D01*
X104259069Y-76141321D02*
X104259069Y-76355607D01*
X104259069Y-76355607D02*
X104223355Y-76427035D01*
X104223355Y-76427035D02*
X104187640Y-76462750D01*
X104187640Y-76462750D02*
X104116212Y-76498464D01*
X104116212Y-76498464D02*
X103973355Y-76498464D01*
X103973355Y-76498464D02*
X103901926Y-76462750D01*
X104580497Y-76498464D02*
X104580497Y-75998464D01*
X104580497Y-76141321D02*
X104616211Y-76069892D01*
X104616211Y-76069892D02*
X104651926Y-76034178D01*
X104651926Y-76034178D02*
X104723354Y-75998464D01*
X104723354Y-75998464D02*
X104794783Y-75998464D01*
X105330497Y-76462750D02*
X105259069Y-76498464D01*
X105259069Y-76498464D02*
X105116212Y-76498464D01*
X105116212Y-76498464D02*
X105044783Y-76462750D01*
X105044783Y-76462750D02*
X105009069Y-76391321D01*
X105009069Y-76391321D02*
X105009069Y-76105607D01*
X105009069Y-76105607D02*
X105044783Y-76034178D01*
X105044783Y-76034178D02*
X105116212Y-75998464D01*
X105116212Y-75998464D02*
X105259069Y-75998464D01*
X105259069Y-75998464D02*
X105330497Y-76034178D01*
X105330497Y-76034178D02*
X105366212Y-76105607D01*
X105366212Y-76105607D02*
X105366212Y-76177035D01*
X105366212Y-76177035D02*
X105009069Y-76248464D01*
X105651926Y-76462750D02*
X105723354Y-76498464D01*
X105723354Y-76498464D02*
X105866211Y-76498464D01*
X105866211Y-76498464D02*
X105937640Y-76462750D01*
X105937640Y-76462750D02*
X105973354Y-76391321D01*
X105973354Y-76391321D02*
X105973354Y-76355607D01*
X105973354Y-76355607D02*
X105937640Y-76284178D01*
X105937640Y-76284178D02*
X105866211Y-76248464D01*
X105866211Y-76248464D02*
X105759069Y-76248464D01*
X105759069Y-76248464D02*
X105687640Y-76212750D01*
X105687640Y-76212750D02*
X105651926Y-76141321D01*
X105651926Y-76141321D02*
X105651926Y-76105607D01*
X105651926Y-76105607D02*
X105687640Y-76034178D01*
X105687640Y-76034178D02*
X105759069Y-75998464D01*
X105759069Y-75998464D02*
X105866211Y-75998464D01*
X105866211Y-75998464D02*
X105937640Y-76034178D01*
X106259069Y-76462750D02*
X106330497Y-76498464D01*
X106330497Y-76498464D02*
X106473354Y-76498464D01*
X106473354Y-76498464D02*
X106544783Y-76462750D01*
X106544783Y-76462750D02*
X106580497Y-76391321D01*
X106580497Y-76391321D02*
X106580497Y-76355607D01*
X106580497Y-76355607D02*
X106544783Y-76284178D01*
X106544783Y-76284178D02*
X106473354Y-76248464D01*
X106473354Y-76248464D02*
X106366212Y-76248464D01*
X106366212Y-76248464D02*
X106294783Y-76212750D01*
X106294783Y-76212750D02*
X106259069Y-76141321D01*
X106259069Y-76141321D02*
X106259069Y-76105607D01*
X106259069Y-76105607D02*
X106294783Y-76034178D01*
X106294783Y-76034178D02*
X106366212Y-75998464D01*
X106366212Y-75998464D02*
X106473354Y-75998464D01*
X106473354Y-75998464D02*
X106544783Y-76034178D01*
X107366212Y-75998464D02*
X107651926Y-75998464D01*
X107473355Y-75748464D02*
X107473355Y-76391321D01*
X107473355Y-76391321D02*
X107509069Y-76462750D01*
X107509069Y-76462750D02*
X107580498Y-76498464D01*
X107580498Y-76498464D02*
X107651926Y-76498464D01*
X107901926Y-76498464D02*
X107901926Y-75748464D01*
X108223355Y-76498464D02*
X108223355Y-76105607D01*
X108223355Y-76105607D02*
X108187640Y-76034178D01*
X108187640Y-76034178D02*
X108116212Y-75998464D01*
X108116212Y-75998464D02*
X108009069Y-75998464D01*
X108009069Y-75998464D02*
X107937640Y-76034178D01*
X107937640Y-76034178D02*
X107901926Y-76069892D01*
X108866211Y-76462750D02*
X108794783Y-76498464D01*
X108794783Y-76498464D02*
X108651926Y-76498464D01*
X108651926Y-76498464D02*
X108580497Y-76462750D01*
X108580497Y-76462750D02*
X108544783Y-76391321D01*
X108544783Y-76391321D02*
X108544783Y-76105607D01*
X108544783Y-76105607D02*
X108580497Y-76034178D01*
X108580497Y-76034178D02*
X108651926Y-75998464D01*
X108651926Y-75998464D02*
X108794783Y-75998464D01*
X108794783Y-75998464D02*
X108866211Y-76034178D01*
X108866211Y-76034178D02*
X108901926Y-76105607D01*
X108901926Y-76105607D02*
X108901926Y-76177035D01*
X108901926Y-76177035D02*
X108544783Y-76248464D01*
X109794783Y-76498464D02*
X109794783Y-75748464D01*
X109794783Y-76034178D02*
X109866212Y-75998464D01*
X109866212Y-75998464D02*
X110009069Y-75998464D01*
X110009069Y-75998464D02*
X110080497Y-76034178D01*
X110080497Y-76034178D02*
X110116212Y-76069892D01*
X110116212Y-76069892D02*
X110151926Y-76141321D01*
X110151926Y-76141321D02*
X110151926Y-76355607D01*
X110151926Y-76355607D02*
X110116212Y-76427035D01*
X110116212Y-76427035D02*
X110080497Y-76462750D01*
X110080497Y-76462750D02*
X110009069Y-76498464D01*
X110009069Y-76498464D02*
X109866212Y-76498464D01*
X109866212Y-76498464D02*
X109794783Y-76462750D01*
X110794783Y-75998464D02*
X110794783Y-76498464D01*
X110473354Y-75998464D02*
X110473354Y-76391321D01*
X110473354Y-76391321D02*
X110509068Y-76462750D01*
X110509068Y-76462750D02*
X110580497Y-76498464D01*
X110580497Y-76498464D02*
X110687640Y-76498464D01*
X110687640Y-76498464D02*
X110759068Y-76462750D01*
X110759068Y-76462750D02*
X110794783Y-76427035D01*
X111044782Y-75998464D02*
X111330496Y-75998464D01*
X111151925Y-75748464D02*
X111151925Y-76391321D01*
X111151925Y-76391321D02*
X111187639Y-76462750D01*
X111187639Y-76462750D02*
X111259068Y-76498464D01*
X111259068Y-76498464D02*
X111330496Y-76498464D01*
X111473353Y-75998464D02*
X111759067Y-75998464D01*
X111580496Y-75748464D02*
X111580496Y-76391321D01*
X111580496Y-76391321D02*
X111616210Y-76462750D01*
X111616210Y-76462750D02*
X111687639Y-76498464D01*
X111687639Y-76498464D02*
X111759067Y-76498464D01*
X112116210Y-76498464D02*
X112044781Y-76462750D01*
X112044781Y-76462750D02*
X112009067Y-76427035D01*
X112009067Y-76427035D02*
X111973353Y-76355607D01*
X111973353Y-76355607D02*
X111973353Y-76141321D01*
X111973353Y-76141321D02*
X112009067Y-76069892D01*
X112009067Y-76069892D02*
X112044781Y-76034178D01*
X112044781Y-76034178D02*
X112116210Y-75998464D01*
X112116210Y-75998464D02*
X112223353Y-75998464D01*
X112223353Y-75998464D02*
X112294781Y-76034178D01*
X112294781Y-76034178D02*
X112330496Y-76069892D01*
X112330496Y-76069892D02*
X112366210Y-76141321D01*
X112366210Y-76141321D02*
X112366210Y-76355607D01*
X112366210Y-76355607D02*
X112330496Y-76427035D01*
X112330496Y-76427035D02*
X112294781Y-76462750D01*
X112294781Y-76462750D02*
X112223353Y-76498464D01*
X112223353Y-76498464D02*
X112116210Y-76498464D01*
X112687638Y-75998464D02*
X112687638Y-76498464D01*
X112687638Y-76069892D02*
X112723352Y-76034178D01*
X112723352Y-76034178D02*
X112794781Y-75998464D01*
X112794781Y-75998464D02*
X112901924Y-75998464D01*
X112901924Y-75998464D02*
X112973352Y-76034178D01*
X112973352Y-76034178D02*
X113009067Y-76105607D01*
X113009067Y-76105607D02*
X113009067Y-76498464D01*
X113401923Y-76462750D02*
X113401923Y-76498464D01*
X113401923Y-76498464D02*
X113366209Y-76569892D01*
X113366209Y-76569892D02*
X113330495Y-76605607D01*
X114223352Y-75998464D02*
X114401924Y-76498464D01*
X114580495Y-75998464D02*
X114401924Y-76498464D01*
X114401924Y-76498464D02*
X114330495Y-76677035D01*
X114330495Y-76677035D02*
X114294781Y-76712750D01*
X114294781Y-76712750D02*
X114223352Y-76748464D01*
X114973353Y-76498464D02*
X114901924Y-76462750D01*
X114901924Y-76462750D02*
X114866210Y-76427035D01*
X114866210Y-76427035D02*
X114830496Y-76355607D01*
X114830496Y-76355607D02*
X114830496Y-76141321D01*
X114830496Y-76141321D02*
X114866210Y-76069892D01*
X114866210Y-76069892D02*
X114901924Y-76034178D01*
X114901924Y-76034178D02*
X114973353Y-75998464D01*
X114973353Y-75998464D02*
X115080496Y-75998464D01*
X115080496Y-75998464D02*
X115151924Y-76034178D01*
X115151924Y-76034178D02*
X115187639Y-76069892D01*
X115187639Y-76069892D02*
X115223353Y-76141321D01*
X115223353Y-76141321D02*
X115223353Y-76355607D01*
X115223353Y-76355607D02*
X115187639Y-76427035D01*
X115187639Y-76427035D02*
X115151924Y-76462750D01*
X115151924Y-76462750D02*
X115080496Y-76498464D01*
X115080496Y-76498464D02*
X114973353Y-76498464D01*
X115866210Y-75998464D02*
X115866210Y-76498464D01*
X115544781Y-75998464D02*
X115544781Y-76391321D01*
X115544781Y-76391321D02*
X115580495Y-76462750D01*
X115580495Y-76462750D02*
X115651924Y-76498464D01*
X115651924Y-76498464D02*
X115759067Y-76498464D01*
X115759067Y-76498464D02*
X115830495Y-76462750D01*
X115830495Y-76462750D02*
X115866210Y-76427035D01*
X116223352Y-76498464D02*
X116223352Y-75998464D01*
X116223352Y-76141321D02*
X116259066Y-76069892D01*
X116259066Y-76069892D02*
X116294781Y-76034178D01*
X116294781Y-76034178D02*
X116366209Y-75998464D01*
X116366209Y-75998464D02*
X116437638Y-75998464D01*
X117151924Y-75998464D02*
X117437638Y-75998464D01*
X117259067Y-75748464D02*
X117259067Y-76391321D01*
X117259067Y-76391321D02*
X117294781Y-76462750D01*
X117294781Y-76462750D02*
X117366210Y-76498464D01*
X117366210Y-76498464D02*
X117437638Y-76498464D01*
X117687638Y-76498464D02*
X117687638Y-75998464D01*
X117687638Y-76141321D02*
X117723352Y-76069892D01*
X117723352Y-76069892D02*
X117759067Y-76034178D01*
X117759067Y-76034178D02*
X117830495Y-75998464D01*
X117830495Y-75998464D02*
X117901924Y-75998464D01*
X118473353Y-76498464D02*
X118473353Y-76105607D01*
X118473353Y-76105607D02*
X118437638Y-76034178D01*
X118437638Y-76034178D02*
X118366210Y-75998464D01*
X118366210Y-75998464D02*
X118223353Y-75998464D01*
X118223353Y-75998464D02*
X118151924Y-76034178D01*
X118473353Y-76462750D02*
X118401924Y-76498464D01*
X118401924Y-76498464D02*
X118223353Y-76498464D01*
X118223353Y-76498464D02*
X118151924Y-76462750D01*
X118151924Y-76462750D02*
X118116210Y-76391321D01*
X118116210Y-76391321D02*
X118116210Y-76319892D01*
X118116210Y-76319892D02*
X118151924Y-76248464D01*
X118151924Y-76248464D02*
X118223353Y-76212750D01*
X118223353Y-76212750D02*
X118401924Y-76212750D01*
X118401924Y-76212750D02*
X118473353Y-76177035D01*
X118830495Y-75998464D02*
X118830495Y-76498464D01*
X118830495Y-76069892D02*
X118866209Y-76034178D01*
X118866209Y-76034178D02*
X118937638Y-75998464D01*
X118937638Y-75998464D02*
X119044781Y-75998464D01*
X119044781Y-75998464D02*
X119116209Y-76034178D01*
X119116209Y-76034178D02*
X119151924Y-76105607D01*
X119151924Y-76105607D02*
X119151924Y-76498464D01*
X119473352Y-76462750D02*
X119544780Y-76498464D01*
X119544780Y-76498464D02*
X119687637Y-76498464D01*
X119687637Y-76498464D02*
X119759066Y-76462750D01*
X119759066Y-76462750D02*
X119794780Y-76391321D01*
X119794780Y-76391321D02*
X119794780Y-76355607D01*
X119794780Y-76355607D02*
X119759066Y-76284178D01*
X119759066Y-76284178D02*
X119687637Y-76248464D01*
X119687637Y-76248464D02*
X119580495Y-76248464D01*
X119580495Y-76248464D02*
X119509066Y-76212750D01*
X119509066Y-76212750D02*
X119473352Y-76141321D01*
X119473352Y-76141321D02*
X119473352Y-76105607D01*
X119473352Y-76105607D02*
X119509066Y-76034178D01*
X119509066Y-76034178D02*
X119580495Y-75998464D01*
X119580495Y-75998464D02*
X119687637Y-75998464D01*
X119687637Y-75998464D02*
X119759066Y-76034178D01*
X120116209Y-76498464D02*
X120116209Y-75998464D01*
X120116209Y-75748464D02*
X120080495Y-75784178D01*
X120080495Y-75784178D02*
X120116209Y-75819892D01*
X120116209Y-75819892D02*
X120151923Y-75784178D01*
X120151923Y-75784178D02*
X120116209Y-75748464D01*
X120116209Y-75748464D02*
X120116209Y-75819892D01*
X120437638Y-76462750D02*
X120509066Y-76498464D01*
X120509066Y-76498464D02*
X120651923Y-76498464D01*
X120651923Y-76498464D02*
X120723352Y-76462750D01*
X120723352Y-76462750D02*
X120759066Y-76391321D01*
X120759066Y-76391321D02*
X120759066Y-76355607D01*
X120759066Y-76355607D02*
X120723352Y-76284178D01*
X120723352Y-76284178D02*
X120651923Y-76248464D01*
X120651923Y-76248464D02*
X120544781Y-76248464D01*
X120544781Y-76248464D02*
X120473352Y-76212750D01*
X120473352Y-76212750D02*
X120437638Y-76141321D01*
X120437638Y-76141321D02*
X120437638Y-76105607D01*
X120437638Y-76105607D02*
X120473352Y-76034178D01*
X120473352Y-76034178D02*
X120544781Y-75998464D01*
X120544781Y-75998464D02*
X120651923Y-75998464D01*
X120651923Y-75998464D02*
X120723352Y-76034178D01*
X120973352Y-75998464D02*
X121259066Y-75998464D01*
X121080495Y-75748464D02*
X121080495Y-76391321D01*
X121080495Y-76391321D02*
X121116209Y-76462750D01*
X121116209Y-76462750D02*
X121187638Y-76498464D01*
X121187638Y-76498464D02*
X121259066Y-76498464D01*
X121616209Y-76498464D02*
X121544780Y-76462750D01*
X121544780Y-76462750D02*
X121509066Y-76427035D01*
X121509066Y-76427035D02*
X121473352Y-76355607D01*
X121473352Y-76355607D02*
X121473352Y-76141321D01*
X121473352Y-76141321D02*
X121509066Y-76069892D01*
X121509066Y-76069892D02*
X121544780Y-76034178D01*
X121544780Y-76034178D02*
X121616209Y-75998464D01*
X121616209Y-75998464D02*
X121723352Y-75998464D01*
X121723352Y-75998464D02*
X121794780Y-76034178D01*
X121794780Y-76034178D02*
X121830495Y-76069892D01*
X121830495Y-76069892D02*
X121866209Y-76141321D01*
X121866209Y-76141321D02*
X121866209Y-76355607D01*
X121866209Y-76355607D02*
X121830495Y-76427035D01*
X121830495Y-76427035D02*
X121794780Y-76462750D01*
X121794780Y-76462750D02*
X121723352Y-76498464D01*
X121723352Y-76498464D02*
X121616209Y-76498464D01*
X122187637Y-76498464D02*
X122187637Y-75998464D01*
X122187637Y-76141321D02*
X122223351Y-76069892D01*
X122223351Y-76069892D02*
X122259066Y-76034178D01*
X122259066Y-76034178D02*
X122330494Y-75998464D01*
X122330494Y-75998464D02*
X122401923Y-75998464D01*
X123223352Y-76498464D02*
X123223352Y-75998464D01*
X123223352Y-75748464D02*
X123187638Y-75784178D01*
X123187638Y-75784178D02*
X123223352Y-75819892D01*
X123223352Y-75819892D02*
X123259066Y-75784178D01*
X123259066Y-75784178D02*
X123223352Y-75748464D01*
X123223352Y-75748464D02*
X123223352Y-75819892D01*
X123544781Y-76462750D02*
X123616209Y-76498464D01*
X123616209Y-76498464D02*
X123759066Y-76498464D01*
X123759066Y-76498464D02*
X123830495Y-76462750D01*
X123830495Y-76462750D02*
X123866209Y-76391321D01*
X123866209Y-76391321D02*
X123866209Y-76355607D01*
X123866209Y-76355607D02*
X123830495Y-76284178D01*
X123830495Y-76284178D02*
X123759066Y-76248464D01*
X123759066Y-76248464D02*
X123651924Y-76248464D01*
X123651924Y-76248464D02*
X123580495Y-76212750D01*
X123580495Y-76212750D02*
X123544781Y-76141321D01*
X123544781Y-76141321D02*
X123544781Y-76105607D01*
X123544781Y-76105607D02*
X123580495Y-76034178D01*
X123580495Y-76034178D02*
X123651924Y-75998464D01*
X123651924Y-75998464D02*
X123759066Y-75998464D01*
X123759066Y-75998464D02*
X123830495Y-76034178D01*
X103989287Y-75137214D02*
X103989287Y-74387214D01*
X104239287Y-74637214D02*
X104525001Y-74637214D01*
X104346430Y-75137214D02*
X104346430Y-74494357D01*
X104346430Y-74494357D02*
X104382144Y-74422928D01*
X104382144Y-74422928D02*
X104453573Y-74387214D01*
X104453573Y-74387214D02*
X104525001Y-74387214D01*
X105239287Y-74637214D02*
X105525001Y-74637214D01*
X105346430Y-74387214D02*
X105346430Y-75030071D01*
X105346430Y-75030071D02*
X105382144Y-75101500D01*
X105382144Y-75101500D02*
X105453573Y-75137214D01*
X105453573Y-75137214D02*
X105525001Y-75137214D01*
X105775001Y-75137214D02*
X105775001Y-74387214D01*
X106096430Y-75137214D02*
X106096430Y-74744357D01*
X106096430Y-74744357D02*
X106060715Y-74672928D01*
X106060715Y-74672928D02*
X105989287Y-74637214D01*
X105989287Y-74637214D02*
X105882144Y-74637214D01*
X105882144Y-74637214D02*
X105810715Y-74672928D01*
X105810715Y-74672928D02*
X105775001Y-74708642D01*
X106739286Y-75101500D02*
X106667858Y-75137214D01*
X106667858Y-75137214D02*
X106525001Y-75137214D01*
X106525001Y-75137214D02*
X106453572Y-75101500D01*
X106453572Y-75101500D02*
X106417858Y-75030071D01*
X106417858Y-75030071D02*
X106417858Y-74744357D01*
X106417858Y-74744357D02*
X106453572Y-74672928D01*
X106453572Y-74672928D02*
X106525001Y-74637214D01*
X106525001Y-74637214D02*
X106667858Y-74637214D01*
X106667858Y-74637214D02*
X106739286Y-74672928D01*
X106739286Y-74672928D02*
X106775001Y-74744357D01*
X106775001Y-74744357D02*
X106775001Y-74815785D01*
X106775001Y-74815785D02*
X106417858Y-74887214D01*
X108025001Y-75137214D02*
X107667858Y-75137214D01*
X107667858Y-75137214D02*
X107667858Y-74387214D01*
X108275001Y-74744357D02*
X108525001Y-74744357D01*
X108632144Y-75137214D02*
X108275001Y-75137214D01*
X108275001Y-75137214D02*
X108275001Y-74387214D01*
X108275001Y-74387214D02*
X108632144Y-74387214D01*
X108953572Y-75137214D02*
X108953572Y-74387214D01*
X108953572Y-74387214D02*
X109132143Y-74387214D01*
X109132143Y-74387214D02*
X109239286Y-74422928D01*
X109239286Y-74422928D02*
X109310715Y-74494357D01*
X109310715Y-74494357D02*
X109346429Y-74565785D01*
X109346429Y-74565785D02*
X109382143Y-74708642D01*
X109382143Y-74708642D02*
X109382143Y-74815785D01*
X109382143Y-74815785D02*
X109346429Y-74958642D01*
X109346429Y-74958642D02*
X109310715Y-75030071D01*
X109310715Y-75030071D02*
X109239286Y-75101500D01*
X109239286Y-75101500D02*
X109132143Y-75137214D01*
X109132143Y-75137214D02*
X108953572Y-75137214D01*
X110382144Y-75137214D02*
X110310715Y-75101500D01*
X110310715Y-75101500D02*
X110275001Y-75030071D01*
X110275001Y-75030071D02*
X110275001Y-74387214D01*
X110667858Y-75137214D02*
X110667858Y-74637214D01*
X110667858Y-74387214D02*
X110632144Y-74422928D01*
X110632144Y-74422928D02*
X110667858Y-74458642D01*
X110667858Y-74458642D02*
X110703572Y-74422928D01*
X110703572Y-74422928D02*
X110667858Y-74387214D01*
X110667858Y-74387214D02*
X110667858Y-74458642D01*
X111346430Y-74637214D02*
X111346430Y-75244357D01*
X111346430Y-75244357D02*
X111310715Y-75315785D01*
X111310715Y-75315785D02*
X111275001Y-75351500D01*
X111275001Y-75351500D02*
X111203572Y-75387214D01*
X111203572Y-75387214D02*
X111096430Y-75387214D01*
X111096430Y-75387214D02*
X111025001Y-75351500D01*
X111346430Y-75101500D02*
X111275001Y-75137214D01*
X111275001Y-75137214D02*
X111132144Y-75137214D01*
X111132144Y-75137214D02*
X111060715Y-75101500D01*
X111060715Y-75101500D02*
X111025001Y-75065785D01*
X111025001Y-75065785D02*
X110989287Y-74994357D01*
X110989287Y-74994357D02*
X110989287Y-74780071D01*
X110989287Y-74780071D02*
X111025001Y-74708642D01*
X111025001Y-74708642D02*
X111060715Y-74672928D01*
X111060715Y-74672928D02*
X111132144Y-74637214D01*
X111132144Y-74637214D02*
X111275001Y-74637214D01*
X111275001Y-74637214D02*
X111346430Y-74672928D01*
X111703572Y-75137214D02*
X111703572Y-74387214D01*
X112025001Y-75137214D02*
X112025001Y-74744357D01*
X112025001Y-74744357D02*
X111989286Y-74672928D01*
X111989286Y-74672928D02*
X111917858Y-74637214D01*
X111917858Y-74637214D02*
X111810715Y-74637214D01*
X111810715Y-74637214D02*
X111739286Y-74672928D01*
X111739286Y-74672928D02*
X111703572Y-74708642D01*
X112275000Y-74637214D02*
X112560714Y-74637214D01*
X112382143Y-74387214D02*
X112382143Y-75030071D01*
X112382143Y-75030071D02*
X112417857Y-75101500D01*
X112417857Y-75101500D02*
X112489286Y-75137214D01*
X112489286Y-75137214D02*
X112560714Y-75137214D01*
X112775000Y-75101500D02*
X112846428Y-75137214D01*
X112846428Y-75137214D02*
X112989285Y-75137214D01*
X112989285Y-75137214D02*
X113060714Y-75101500D01*
X113060714Y-75101500D02*
X113096428Y-75030071D01*
X113096428Y-75030071D02*
X113096428Y-74994357D01*
X113096428Y-74994357D02*
X113060714Y-74922928D01*
X113060714Y-74922928D02*
X112989285Y-74887214D01*
X112989285Y-74887214D02*
X112882143Y-74887214D01*
X112882143Y-74887214D02*
X112810714Y-74851500D01*
X112810714Y-74851500D02*
X112775000Y-74780071D01*
X112775000Y-74780071D02*
X112775000Y-74744357D01*
X112775000Y-74744357D02*
X112810714Y-74672928D01*
X112810714Y-74672928D02*
X112882143Y-74637214D01*
X112882143Y-74637214D02*
X112989285Y-74637214D01*
X112989285Y-74637214D02*
X113060714Y-74672928D01*
X114310715Y-74637214D02*
X114310715Y-75137214D01*
X113989286Y-74637214D02*
X113989286Y-75030071D01*
X113989286Y-75030071D02*
X114025000Y-75101500D01*
X114025000Y-75101500D02*
X114096429Y-75137214D01*
X114096429Y-75137214D02*
X114203572Y-75137214D01*
X114203572Y-75137214D02*
X114275000Y-75101500D01*
X114275000Y-75101500D02*
X114310715Y-75065785D01*
X114667857Y-74637214D02*
X114667857Y-75387214D01*
X114667857Y-74672928D02*
X114739286Y-74637214D01*
X114739286Y-74637214D02*
X114882143Y-74637214D01*
X114882143Y-74637214D02*
X114953571Y-74672928D01*
X114953571Y-74672928D02*
X114989286Y-74708642D01*
X114989286Y-74708642D02*
X115025000Y-74780071D01*
X115025000Y-74780071D02*
X115025000Y-74994357D01*
X115025000Y-74994357D02*
X114989286Y-75065785D01*
X114989286Y-75065785D02*
X114953571Y-75101500D01*
X114953571Y-75101500D02*
X114882143Y-75137214D01*
X114882143Y-75137214D02*
X114739286Y-75137214D01*
X114739286Y-75137214D02*
X114667857Y-75101500D01*
X116060714Y-74387214D02*
X116203571Y-74387214D01*
X116203571Y-74387214D02*
X116275000Y-74422928D01*
X116275000Y-74422928D02*
X116346428Y-74494357D01*
X116346428Y-74494357D02*
X116382143Y-74637214D01*
X116382143Y-74637214D02*
X116382143Y-74887214D01*
X116382143Y-74887214D02*
X116346428Y-75030071D01*
X116346428Y-75030071D02*
X116275000Y-75101500D01*
X116275000Y-75101500D02*
X116203571Y-75137214D01*
X116203571Y-75137214D02*
X116060714Y-75137214D01*
X116060714Y-75137214D02*
X115989286Y-75101500D01*
X115989286Y-75101500D02*
X115917857Y-75030071D01*
X115917857Y-75030071D02*
X115882143Y-74887214D01*
X115882143Y-74887214D02*
X115882143Y-74637214D01*
X115882143Y-74637214D02*
X115917857Y-74494357D01*
X115917857Y-74494357D02*
X115989286Y-74422928D01*
X115989286Y-74422928D02*
X116060714Y-74387214D01*
X116703571Y-75137214D02*
X116703571Y-74387214D01*
X116703571Y-74387214D02*
X117132142Y-75137214D01*
X117132142Y-75137214D02*
X117132142Y-74387214D01*
X117846428Y-75137214D02*
X117489285Y-75137214D01*
X117489285Y-75137214D02*
X117489285Y-74387214D01*
X118239285Y-74780071D02*
X118239285Y-75137214D01*
X117989285Y-74387214D02*
X118239285Y-74780071D01*
X118239285Y-74780071D02*
X118489285Y-74387214D01*
X119239285Y-74637214D02*
X119382143Y-75137214D01*
X119382143Y-75137214D02*
X119525000Y-74780071D01*
X119525000Y-74780071D02*
X119667857Y-75137214D01*
X119667857Y-75137214D02*
X119810714Y-74637214D01*
X120096428Y-75137214D02*
X120096428Y-74387214D01*
X120417857Y-75137214D02*
X120417857Y-74744357D01*
X120417857Y-74744357D02*
X120382142Y-74672928D01*
X120382142Y-74672928D02*
X120310714Y-74637214D01*
X120310714Y-74637214D02*
X120203571Y-74637214D01*
X120203571Y-74637214D02*
X120132142Y-74672928D01*
X120132142Y-74672928D02*
X120096428Y-74708642D01*
X121060713Y-75101500D02*
X120989285Y-75137214D01*
X120989285Y-75137214D02*
X120846428Y-75137214D01*
X120846428Y-75137214D02*
X120774999Y-75101500D01*
X120774999Y-75101500D02*
X120739285Y-75030071D01*
X120739285Y-75030071D02*
X120739285Y-74744357D01*
X120739285Y-74744357D02*
X120774999Y-74672928D01*
X120774999Y-74672928D02*
X120846428Y-74637214D01*
X120846428Y-74637214D02*
X120989285Y-74637214D01*
X120989285Y-74637214D02*
X121060713Y-74672928D01*
X121060713Y-74672928D02*
X121096428Y-74744357D01*
X121096428Y-74744357D02*
X121096428Y-74815785D01*
X121096428Y-74815785D02*
X120739285Y-74887214D01*
X121417856Y-74637214D02*
X121417856Y-75137214D01*
X121417856Y-74708642D02*
X121453570Y-74672928D01*
X121453570Y-74672928D02*
X121524999Y-74637214D01*
X121524999Y-74637214D02*
X121632142Y-74637214D01*
X121632142Y-74637214D02*
X121703570Y-74672928D01*
X121703570Y-74672928D02*
X121739285Y-74744357D01*
X121739285Y-74744357D02*
X121739285Y-75137214D01*
X122596427Y-74637214D02*
X122774999Y-75137214D01*
X122953570Y-74637214D02*
X122774999Y-75137214D01*
X122774999Y-75137214D02*
X122703570Y-75315785D01*
X122703570Y-75315785D02*
X122667856Y-75351500D01*
X122667856Y-75351500D02*
X122596427Y-75387214D01*
X123346428Y-75137214D02*
X123274999Y-75101500D01*
X123274999Y-75101500D02*
X123239285Y-75065785D01*
X123239285Y-75065785D02*
X123203571Y-74994357D01*
X123203571Y-74994357D02*
X123203571Y-74780071D01*
X123203571Y-74780071D02*
X123239285Y-74708642D01*
X123239285Y-74708642D02*
X123274999Y-74672928D01*
X123274999Y-74672928D02*
X123346428Y-74637214D01*
X123346428Y-74637214D02*
X123453571Y-74637214D01*
X123453571Y-74637214D02*
X123524999Y-74672928D01*
X123524999Y-74672928D02*
X123560714Y-74708642D01*
X123560714Y-74708642D02*
X123596428Y-74780071D01*
X123596428Y-74780071D02*
X123596428Y-74994357D01*
X123596428Y-74994357D02*
X123560714Y-75065785D01*
X123560714Y-75065785D02*
X123524999Y-75101500D01*
X123524999Y-75101500D02*
X123453571Y-75137214D01*
X123453571Y-75137214D02*
X123346428Y-75137214D01*
X124239285Y-74637214D02*
X124239285Y-75137214D01*
X123917856Y-74637214D02*
X123917856Y-75030071D01*
X123917856Y-75030071D02*
X123953570Y-75101500D01*
X123953570Y-75101500D02*
X124024999Y-75137214D01*
X124024999Y-75137214D02*
X124132142Y-75137214D01*
X124132142Y-75137214D02*
X124203570Y-75101500D01*
X124203570Y-75101500D02*
X124239285Y-75065785D01*
D11*
X111114286Y-88004600D02*
X111257143Y-88052219D01*
X111257143Y-88052219D02*
X111495238Y-88052219D01*
X111495238Y-88052219D02*
X111590476Y-88004600D01*
X111590476Y-88004600D02*
X111638095Y-87956980D01*
X111638095Y-87956980D02*
X111685714Y-87861742D01*
X111685714Y-87861742D02*
X111685714Y-87766504D01*
X111685714Y-87766504D02*
X111638095Y-87671266D01*
X111638095Y-87671266D02*
X111590476Y-87623647D01*
X111590476Y-87623647D02*
X111495238Y-87576028D01*
X111495238Y-87576028D02*
X111304762Y-87528409D01*
X111304762Y-87528409D02*
X111209524Y-87480790D01*
X111209524Y-87480790D02*
X111161905Y-87433171D01*
X111161905Y-87433171D02*
X111114286Y-87337933D01*
X111114286Y-87337933D02*
X111114286Y-87242695D01*
X111114286Y-87242695D02*
X111161905Y-87147457D01*
X111161905Y-87147457D02*
X111209524Y-87099838D01*
X111209524Y-87099838D02*
X111304762Y-87052219D01*
X111304762Y-87052219D02*
X111542857Y-87052219D01*
X111542857Y-87052219D02*
X111685714Y-87099838D01*
X145738095Y-88052219D02*
X145738095Y-87052219D01*
X145738095Y-87052219D02*
X145976190Y-87052219D01*
X145976190Y-87052219D02*
X146119047Y-87099838D01*
X146119047Y-87099838D02*
X146214285Y-87195076D01*
X146214285Y-87195076D02*
X146261904Y-87290314D01*
X146261904Y-87290314D02*
X146309523Y-87480790D01*
X146309523Y-87480790D02*
X146309523Y-87623647D01*
X146309523Y-87623647D02*
X146261904Y-87814123D01*
X146261904Y-87814123D02*
X146214285Y-87909361D01*
X146214285Y-87909361D02*
X146119047Y-88004600D01*
X146119047Y-88004600D02*
X145976190Y-88052219D01*
X145976190Y-88052219D02*
X145738095Y-88052219D01*
X155785714Y-87528409D02*
X156119047Y-87528409D01*
X156261904Y-88052219D02*
X155785714Y-88052219D01*
X155785714Y-88052219D02*
X155785714Y-87052219D01*
X155785714Y-87052219D02*
X156261904Y-87052219D01*
X108738095Y-88052219D02*
X108738095Y-87052219D01*
X108738095Y-87052219D02*
X108976190Y-87052219D01*
X108976190Y-87052219D02*
X109119047Y-87099838D01*
X109119047Y-87099838D02*
X109214285Y-87195076D01*
X109214285Y-87195076D02*
X109261904Y-87290314D01*
X109261904Y-87290314D02*
X109309523Y-87480790D01*
X109309523Y-87480790D02*
X109309523Y-87623647D01*
X109309523Y-87623647D02*
X109261904Y-87814123D01*
X109261904Y-87814123D02*
X109214285Y-87909361D01*
X109214285Y-87909361D02*
X109119047Y-88004600D01*
X109119047Y-88004600D02*
X108976190Y-88052219D01*
X108976190Y-88052219D02*
X108738095Y-88052219D01*
X158671428Y-87528409D02*
X158814285Y-87576028D01*
X158814285Y-87576028D02*
X158861904Y-87623647D01*
X158861904Y-87623647D02*
X158909523Y-87718885D01*
X158909523Y-87718885D02*
X158909523Y-87861742D01*
X158909523Y-87861742D02*
X158861904Y-87956980D01*
X158861904Y-87956980D02*
X158814285Y-88004600D01*
X158814285Y-88004600D02*
X158719047Y-88052219D01*
X158719047Y-88052219D02*
X158338095Y-88052219D01*
X158338095Y-88052219D02*
X158338095Y-87052219D01*
X158338095Y-87052219D02*
X158671428Y-87052219D01*
X158671428Y-87052219D02*
X158766666Y-87099838D01*
X158766666Y-87099838D02*
X158814285Y-87147457D01*
X158814285Y-87147457D02*
X158861904Y-87242695D01*
X158861904Y-87242695D02*
X158861904Y-87337933D01*
X158861904Y-87337933D02*
X158814285Y-87433171D01*
X158814285Y-87433171D02*
X158766666Y-87480790D01*
X158766666Y-87480790D02*
X158671428Y-87528409D01*
X158671428Y-87528409D02*
X158338095Y-87528409D01*
D10*
X121303884Y-90272419D02*
X121303884Y-89272419D01*
X121303884Y-89272419D02*
X121875312Y-90272419D01*
X121875312Y-90272419D02*
X121875312Y-89272419D01*
X122351503Y-90272419D02*
X122351503Y-89272419D01*
X122351503Y-89272419D02*
X122732455Y-89272419D01*
X122732455Y-89272419D02*
X122827693Y-89320038D01*
X122827693Y-89320038D02*
X122875312Y-89367657D01*
X122875312Y-89367657D02*
X122922931Y-89462895D01*
X122922931Y-89462895D02*
X122922931Y-89605752D01*
X122922931Y-89605752D02*
X122875312Y-89700990D01*
X122875312Y-89700990D02*
X122827693Y-89748609D01*
X122827693Y-89748609D02*
X122732455Y-89796228D01*
X122732455Y-89796228D02*
X122351503Y-89796228D01*
X123351503Y-90272419D02*
X123351503Y-89272419D01*
X123351503Y-89272419D02*
X123922931Y-90272419D01*
X123922931Y-90272419D02*
X123922931Y-89272419D01*
D11*
X125309523Y-87956980D02*
X125261904Y-88004600D01*
X125261904Y-88004600D02*
X125119047Y-88052219D01*
X125119047Y-88052219D02*
X125023809Y-88052219D01*
X125023809Y-88052219D02*
X124880952Y-88004600D01*
X124880952Y-88004600D02*
X124785714Y-87909361D01*
X124785714Y-87909361D02*
X124738095Y-87814123D01*
X124738095Y-87814123D02*
X124690476Y-87623647D01*
X124690476Y-87623647D02*
X124690476Y-87480790D01*
X124690476Y-87480790D02*
X124738095Y-87290314D01*
X124738095Y-87290314D02*
X124785714Y-87195076D01*
X124785714Y-87195076D02*
X124880952Y-87099838D01*
X124880952Y-87099838D02*
X125023809Y-87052219D01*
X125023809Y-87052219D02*
X125119047Y-87052219D01*
X125119047Y-87052219D02*
X125261904Y-87099838D01*
X125261904Y-87099838D02*
X125309523Y-87147457D01*
X138133332Y-62347780D02*
X138133332Y-63347780D01*
X138133332Y-63347780D02*
X137752380Y-63347780D01*
X137752380Y-63347780D02*
X137657142Y-63300161D01*
X137657142Y-63300161D02*
X137609523Y-63252542D01*
X137609523Y-63252542D02*
X137561904Y-63157304D01*
X137561904Y-63157304D02*
X137561904Y-63014447D01*
X137561904Y-63014447D02*
X137609523Y-62919209D01*
X137609523Y-62919209D02*
X137657142Y-62871590D01*
X137657142Y-62871590D02*
X137752380Y-62823971D01*
X137752380Y-62823971D02*
X138133332Y-62823971D01*
X137228570Y-63347780D02*
X136990475Y-62347780D01*
X136990475Y-62347780D02*
X136799999Y-63062066D01*
X136799999Y-63062066D02*
X136609523Y-62347780D01*
X136609523Y-62347780D02*
X136371428Y-63347780D01*
X135419047Y-62347780D02*
X135752380Y-62823971D01*
X135990475Y-62347780D02*
X135990475Y-63347780D01*
X135990475Y-63347780D02*
X135609523Y-63347780D01*
X135609523Y-63347780D02*
X135514285Y-63300161D01*
X135514285Y-63300161D02*
X135466666Y-63252542D01*
X135466666Y-63252542D02*
X135419047Y-63157304D01*
X135419047Y-63157304D02*
X135419047Y-63014447D01*
X135419047Y-63014447D02*
X135466666Y-62919209D01*
X135466666Y-62919209D02*
X135514285Y-62871590D01*
X135514285Y-62871590D02*
X135609523Y-62823971D01*
X135609523Y-62823971D02*
X135990475Y-62823971D01*
D10*
X104006860Y-61743014D02*
X104006860Y-60993014D01*
X104364003Y-61243014D02*
X104364003Y-61743014D01*
X104364003Y-61314442D02*
X104399717Y-61278728D01*
X104399717Y-61278728D02*
X104471146Y-61243014D01*
X104471146Y-61243014D02*
X104578289Y-61243014D01*
X104578289Y-61243014D02*
X104649717Y-61278728D01*
X104649717Y-61278728D02*
X104685432Y-61350157D01*
X104685432Y-61350157D02*
X104685432Y-61743014D01*
X105006860Y-61707300D02*
X105078288Y-61743014D01*
X105078288Y-61743014D02*
X105221145Y-61743014D01*
X105221145Y-61743014D02*
X105292574Y-61707300D01*
X105292574Y-61707300D02*
X105328288Y-61635871D01*
X105328288Y-61635871D02*
X105328288Y-61600157D01*
X105328288Y-61600157D02*
X105292574Y-61528728D01*
X105292574Y-61528728D02*
X105221145Y-61493014D01*
X105221145Y-61493014D02*
X105114003Y-61493014D01*
X105114003Y-61493014D02*
X105042574Y-61457300D01*
X105042574Y-61457300D02*
X105006860Y-61385871D01*
X105006860Y-61385871D02*
X105006860Y-61350157D01*
X105006860Y-61350157D02*
X105042574Y-61278728D01*
X105042574Y-61278728D02*
X105114003Y-61243014D01*
X105114003Y-61243014D02*
X105221145Y-61243014D01*
X105221145Y-61243014D02*
X105292574Y-61278728D01*
X105542574Y-61243014D02*
X105828288Y-61243014D01*
X105649717Y-60993014D02*
X105649717Y-61635871D01*
X105649717Y-61635871D02*
X105685431Y-61707300D01*
X105685431Y-61707300D02*
X105756860Y-61743014D01*
X105756860Y-61743014D02*
X105828288Y-61743014D01*
X106078288Y-61743014D02*
X106078288Y-61243014D01*
X106078288Y-61385871D02*
X106114002Y-61314442D01*
X106114002Y-61314442D02*
X106149717Y-61278728D01*
X106149717Y-61278728D02*
X106221145Y-61243014D01*
X106221145Y-61243014D02*
X106292574Y-61243014D01*
X106864003Y-61243014D02*
X106864003Y-61743014D01*
X106542574Y-61243014D02*
X106542574Y-61635871D01*
X106542574Y-61635871D02*
X106578288Y-61707300D01*
X106578288Y-61707300D02*
X106649717Y-61743014D01*
X106649717Y-61743014D02*
X106756860Y-61743014D01*
X106756860Y-61743014D02*
X106828288Y-61707300D01*
X106828288Y-61707300D02*
X106864003Y-61671585D01*
X107542574Y-61707300D02*
X107471145Y-61743014D01*
X107471145Y-61743014D02*
X107328288Y-61743014D01*
X107328288Y-61743014D02*
X107256859Y-61707300D01*
X107256859Y-61707300D02*
X107221145Y-61671585D01*
X107221145Y-61671585D02*
X107185431Y-61600157D01*
X107185431Y-61600157D02*
X107185431Y-61385871D01*
X107185431Y-61385871D02*
X107221145Y-61314442D01*
X107221145Y-61314442D02*
X107256859Y-61278728D01*
X107256859Y-61278728D02*
X107328288Y-61243014D01*
X107328288Y-61243014D02*
X107471145Y-61243014D01*
X107471145Y-61243014D02*
X107542574Y-61278728D01*
X107756859Y-61243014D02*
X108042573Y-61243014D01*
X107864002Y-60993014D02*
X107864002Y-61635871D01*
X107864002Y-61635871D02*
X107899716Y-61707300D01*
X107899716Y-61707300D02*
X107971145Y-61743014D01*
X107971145Y-61743014D02*
X108042573Y-61743014D01*
X108292573Y-61743014D02*
X108292573Y-61243014D01*
X108292573Y-60993014D02*
X108256859Y-61028728D01*
X108256859Y-61028728D02*
X108292573Y-61064442D01*
X108292573Y-61064442D02*
X108328287Y-61028728D01*
X108328287Y-61028728D02*
X108292573Y-60993014D01*
X108292573Y-60993014D02*
X108292573Y-61064442D01*
X108756859Y-61743014D02*
X108685430Y-61707300D01*
X108685430Y-61707300D02*
X108649716Y-61671585D01*
X108649716Y-61671585D02*
X108614002Y-61600157D01*
X108614002Y-61600157D02*
X108614002Y-61385871D01*
X108614002Y-61385871D02*
X108649716Y-61314442D01*
X108649716Y-61314442D02*
X108685430Y-61278728D01*
X108685430Y-61278728D02*
X108756859Y-61243014D01*
X108756859Y-61243014D02*
X108864002Y-61243014D01*
X108864002Y-61243014D02*
X108935430Y-61278728D01*
X108935430Y-61278728D02*
X108971145Y-61314442D01*
X108971145Y-61314442D02*
X109006859Y-61385871D01*
X109006859Y-61385871D02*
X109006859Y-61600157D01*
X109006859Y-61600157D02*
X108971145Y-61671585D01*
X108971145Y-61671585D02*
X108935430Y-61707300D01*
X108935430Y-61707300D02*
X108864002Y-61743014D01*
X108864002Y-61743014D02*
X108756859Y-61743014D01*
X109328287Y-61243014D02*
X109328287Y-61743014D01*
X109328287Y-61314442D02*
X109364001Y-61278728D01*
X109364001Y-61278728D02*
X109435430Y-61243014D01*
X109435430Y-61243014D02*
X109542573Y-61243014D01*
X109542573Y-61243014D02*
X109614001Y-61278728D01*
X109614001Y-61278728D02*
X109649716Y-61350157D01*
X109649716Y-61350157D02*
X109649716Y-61743014D01*
X109971144Y-61707300D02*
X110042572Y-61743014D01*
X110042572Y-61743014D02*
X110185429Y-61743014D01*
X110185429Y-61743014D02*
X110256858Y-61707300D01*
X110256858Y-61707300D02*
X110292572Y-61635871D01*
X110292572Y-61635871D02*
X110292572Y-61600157D01*
X110292572Y-61600157D02*
X110256858Y-61528728D01*
X110256858Y-61528728D02*
X110185429Y-61493014D01*
X110185429Y-61493014D02*
X110078287Y-61493014D01*
X110078287Y-61493014D02*
X110006858Y-61457300D01*
X110006858Y-61457300D02*
X109971144Y-61385871D01*
X109971144Y-61385871D02*
X109971144Y-61350157D01*
X109971144Y-61350157D02*
X110006858Y-61278728D01*
X110006858Y-61278728D02*
X110078287Y-61243014D01*
X110078287Y-61243014D02*
X110185429Y-61243014D01*
X110185429Y-61243014D02*
X110256858Y-61278728D01*
X110614001Y-61671585D02*
X110649715Y-61707300D01*
X110649715Y-61707300D02*
X110614001Y-61743014D01*
X110614001Y-61743014D02*
X110578287Y-61707300D01*
X110578287Y-61707300D02*
X110614001Y-61671585D01*
X110614001Y-61671585D02*
X110614001Y-61743014D01*
X110614001Y-61278728D02*
X110649715Y-61314442D01*
X110649715Y-61314442D02*
X110614001Y-61350157D01*
X110614001Y-61350157D02*
X110578287Y-61314442D01*
X110578287Y-61314442D02*
X110614001Y-61278728D01*
X110614001Y-61278728D02*
X110614001Y-61350157D01*
X104399717Y-64157930D02*
X103971146Y-64157930D01*
X104185431Y-64157930D02*
X104185431Y-63407930D01*
X104185431Y-63407930D02*
X104114003Y-63515073D01*
X104114003Y-63515073D02*
X104042574Y-63586501D01*
X104042574Y-63586501D02*
X103971146Y-63622216D01*
X104721146Y-64086501D02*
X104756860Y-64122216D01*
X104756860Y-64122216D02*
X104721146Y-64157930D01*
X104721146Y-64157930D02*
X104685432Y-64122216D01*
X104685432Y-64122216D02*
X104721146Y-64086501D01*
X104721146Y-64086501D02*
X104721146Y-64157930D01*
X106078289Y-64086501D02*
X106042575Y-64122216D01*
X106042575Y-64122216D02*
X105935432Y-64157930D01*
X105935432Y-64157930D02*
X105864004Y-64157930D01*
X105864004Y-64157930D02*
X105756861Y-64122216D01*
X105756861Y-64122216D02*
X105685432Y-64050787D01*
X105685432Y-64050787D02*
X105649718Y-63979358D01*
X105649718Y-63979358D02*
X105614004Y-63836501D01*
X105614004Y-63836501D02*
X105614004Y-63729358D01*
X105614004Y-63729358D02*
X105649718Y-63586501D01*
X105649718Y-63586501D02*
X105685432Y-63515073D01*
X105685432Y-63515073D02*
X105756861Y-63443644D01*
X105756861Y-63443644D02*
X105864004Y-63407930D01*
X105864004Y-63407930D02*
X105935432Y-63407930D01*
X105935432Y-63407930D02*
X106042575Y-63443644D01*
X106042575Y-63443644D02*
X106078289Y-63479358D01*
X106506861Y-64157930D02*
X106435432Y-64122216D01*
X106435432Y-64122216D02*
X106399718Y-64086501D01*
X106399718Y-64086501D02*
X106364004Y-64015073D01*
X106364004Y-64015073D02*
X106364004Y-63800787D01*
X106364004Y-63800787D02*
X106399718Y-63729358D01*
X106399718Y-63729358D02*
X106435432Y-63693644D01*
X106435432Y-63693644D02*
X106506861Y-63657930D01*
X106506861Y-63657930D02*
X106614004Y-63657930D01*
X106614004Y-63657930D02*
X106685432Y-63693644D01*
X106685432Y-63693644D02*
X106721147Y-63729358D01*
X106721147Y-63729358D02*
X106756861Y-63800787D01*
X106756861Y-63800787D02*
X106756861Y-64015073D01*
X106756861Y-64015073D02*
X106721147Y-64086501D01*
X106721147Y-64086501D02*
X106685432Y-64122216D01*
X106685432Y-64122216D02*
X106614004Y-64157930D01*
X106614004Y-64157930D02*
X106506861Y-64157930D01*
X107078289Y-63657930D02*
X107078289Y-64157930D01*
X107078289Y-63729358D02*
X107114003Y-63693644D01*
X107114003Y-63693644D02*
X107185432Y-63657930D01*
X107185432Y-63657930D02*
X107292575Y-63657930D01*
X107292575Y-63657930D02*
X107364003Y-63693644D01*
X107364003Y-63693644D02*
X107399718Y-63765073D01*
X107399718Y-63765073D02*
X107399718Y-64157930D01*
X107756860Y-63657930D02*
X107756860Y-64157930D01*
X107756860Y-63729358D02*
X107792574Y-63693644D01*
X107792574Y-63693644D02*
X107864003Y-63657930D01*
X107864003Y-63657930D02*
X107971146Y-63657930D01*
X107971146Y-63657930D02*
X108042574Y-63693644D01*
X108042574Y-63693644D02*
X108078289Y-63765073D01*
X108078289Y-63765073D02*
X108078289Y-64157930D01*
X108721145Y-64122216D02*
X108649717Y-64157930D01*
X108649717Y-64157930D02*
X108506860Y-64157930D01*
X108506860Y-64157930D02*
X108435431Y-64122216D01*
X108435431Y-64122216D02*
X108399717Y-64050787D01*
X108399717Y-64050787D02*
X108399717Y-63765073D01*
X108399717Y-63765073D02*
X108435431Y-63693644D01*
X108435431Y-63693644D02*
X108506860Y-63657930D01*
X108506860Y-63657930D02*
X108649717Y-63657930D01*
X108649717Y-63657930D02*
X108721145Y-63693644D01*
X108721145Y-63693644D02*
X108756860Y-63765073D01*
X108756860Y-63765073D02*
X108756860Y-63836501D01*
X108756860Y-63836501D02*
X108399717Y-63907930D01*
X109399717Y-64122216D02*
X109328288Y-64157930D01*
X109328288Y-64157930D02*
X109185431Y-64157930D01*
X109185431Y-64157930D02*
X109114002Y-64122216D01*
X109114002Y-64122216D02*
X109078288Y-64086501D01*
X109078288Y-64086501D02*
X109042574Y-64015073D01*
X109042574Y-64015073D02*
X109042574Y-63800787D01*
X109042574Y-63800787D02*
X109078288Y-63729358D01*
X109078288Y-63729358D02*
X109114002Y-63693644D01*
X109114002Y-63693644D02*
X109185431Y-63657930D01*
X109185431Y-63657930D02*
X109328288Y-63657930D01*
X109328288Y-63657930D02*
X109399717Y-63693644D01*
X109614002Y-63657930D02*
X109899716Y-63657930D01*
X109721145Y-63407930D02*
X109721145Y-64050787D01*
X109721145Y-64050787D02*
X109756859Y-64122216D01*
X109756859Y-64122216D02*
X109828288Y-64157930D01*
X109828288Y-64157930D02*
X109899716Y-64157930D01*
X110721145Y-63657930D02*
X110721145Y-64407930D01*
X110721145Y-63693644D02*
X110792574Y-63657930D01*
X110792574Y-63657930D02*
X110935431Y-63657930D01*
X110935431Y-63657930D02*
X111006859Y-63693644D01*
X111006859Y-63693644D02*
X111042574Y-63729358D01*
X111042574Y-63729358D02*
X111078288Y-63800787D01*
X111078288Y-63800787D02*
X111078288Y-64015073D01*
X111078288Y-64015073D02*
X111042574Y-64086501D01*
X111042574Y-64086501D02*
X111006859Y-64122216D01*
X111006859Y-64122216D02*
X110935431Y-64157930D01*
X110935431Y-64157930D02*
X110792574Y-64157930D01*
X110792574Y-64157930D02*
X110721145Y-64122216D01*
X111506859Y-64157930D02*
X111435430Y-64122216D01*
X111435430Y-64122216D02*
X111399716Y-64086501D01*
X111399716Y-64086501D02*
X111364002Y-64015073D01*
X111364002Y-64015073D02*
X111364002Y-63800787D01*
X111364002Y-63800787D02*
X111399716Y-63729358D01*
X111399716Y-63729358D02*
X111435430Y-63693644D01*
X111435430Y-63693644D02*
X111506859Y-63657930D01*
X111506859Y-63657930D02*
X111614002Y-63657930D01*
X111614002Y-63657930D02*
X111685430Y-63693644D01*
X111685430Y-63693644D02*
X111721145Y-63729358D01*
X111721145Y-63729358D02*
X111756859Y-63800787D01*
X111756859Y-63800787D02*
X111756859Y-64015073D01*
X111756859Y-64015073D02*
X111721145Y-64086501D01*
X111721145Y-64086501D02*
X111685430Y-64122216D01*
X111685430Y-64122216D02*
X111614002Y-64157930D01*
X111614002Y-64157930D02*
X111506859Y-64157930D01*
X112006858Y-63657930D02*
X112149716Y-64157930D01*
X112149716Y-64157930D02*
X112292573Y-63800787D01*
X112292573Y-63800787D02*
X112435430Y-64157930D01*
X112435430Y-64157930D02*
X112578287Y-63657930D01*
X113149715Y-64122216D02*
X113078287Y-64157930D01*
X113078287Y-64157930D02*
X112935430Y-64157930D01*
X112935430Y-64157930D02*
X112864001Y-64122216D01*
X112864001Y-64122216D02*
X112828287Y-64050787D01*
X112828287Y-64050787D02*
X112828287Y-63765073D01*
X112828287Y-63765073D02*
X112864001Y-63693644D01*
X112864001Y-63693644D02*
X112935430Y-63657930D01*
X112935430Y-63657930D02*
X113078287Y-63657930D01*
X113078287Y-63657930D02*
X113149715Y-63693644D01*
X113149715Y-63693644D02*
X113185430Y-63765073D01*
X113185430Y-63765073D02*
X113185430Y-63836501D01*
X113185430Y-63836501D02*
X112828287Y-63907930D01*
X113506858Y-64157930D02*
X113506858Y-63657930D01*
X113506858Y-63800787D02*
X113542572Y-63729358D01*
X113542572Y-63729358D02*
X113578287Y-63693644D01*
X113578287Y-63693644D02*
X113649715Y-63657930D01*
X113649715Y-63657930D02*
X113721144Y-63657930D01*
X114435430Y-63657930D02*
X114721144Y-63657930D01*
X114542573Y-63407930D02*
X114542573Y-64050787D01*
X114542573Y-64050787D02*
X114578287Y-64122216D01*
X114578287Y-64122216D02*
X114649716Y-64157930D01*
X114649716Y-64157930D02*
X114721144Y-64157930D01*
X115078287Y-64157930D02*
X115006858Y-64122216D01*
X115006858Y-64122216D02*
X114971144Y-64086501D01*
X114971144Y-64086501D02*
X114935430Y-64015073D01*
X114935430Y-64015073D02*
X114935430Y-63800787D01*
X114935430Y-63800787D02*
X114971144Y-63729358D01*
X114971144Y-63729358D02*
X115006858Y-63693644D01*
X115006858Y-63693644D02*
X115078287Y-63657930D01*
X115078287Y-63657930D02*
X115185430Y-63657930D01*
X115185430Y-63657930D02*
X115256858Y-63693644D01*
X115256858Y-63693644D02*
X115292573Y-63729358D01*
X115292573Y-63729358D02*
X115328287Y-63800787D01*
X115328287Y-63800787D02*
X115328287Y-64015073D01*
X115328287Y-64015073D02*
X115292573Y-64086501D01*
X115292573Y-64086501D02*
X115256858Y-64122216D01*
X115256858Y-64122216D02*
X115185430Y-64157930D01*
X115185430Y-64157930D02*
X115078287Y-64157930D01*
X116114001Y-63657930D02*
X116399715Y-63657930D01*
X116221144Y-63407930D02*
X116221144Y-64050787D01*
X116221144Y-64050787D02*
X116256858Y-64122216D01*
X116256858Y-64122216D02*
X116328287Y-64157930D01*
X116328287Y-64157930D02*
X116399715Y-64157930D01*
X116649715Y-64157930D02*
X116649715Y-63407930D01*
X116971144Y-64157930D02*
X116971144Y-63765073D01*
X116971144Y-63765073D02*
X116935429Y-63693644D01*
X116935429Y-63693644D02*
X116864001Y-63657930D01*
X116864001Y-63657930D02*
X116756858Y-63657930D01*
X116756858Y-63657930D02*
X116685429Y-63693644D01*
X116685429Y-63693644D02*
X116649715Y-63729358D01*
X117614000Y-64122216D02*
X117542572Y-64157930D01*
X117542572Y-64157930D02*
X117399715Y-64157930D01*
X117399715Y-64157930D02*
X117328286Y-64122216D01*
X117328286Y-64122216D02*
X117292572Y-64050787D01*
X117292572Y-64050787D02*
X117292572Y-63765073D01*
X117292572Y-63765073D02*
X117328286Y-63693644D01*
X117328286Y-63693644D02*
X117399715Y-63657930D01*
X117399715Y-63657930D02*
X117542572Y-63657930D01*
X117542572Y-63657930D02*
X117614000Y-63693644D01*
X117614000Y-63693644D02*
X117649715Y-63765073D01*
X117649715Y-63765073D02*
X117649715Y-63836501D01*
X117649715Y-63836501D02*
X117292572Y-63907930D01*
X118542572Y-64157930D02*
X118542572Y-63407930D01*
X118542572Y-63407930D02*
X118828286Y-63407930D01*
X118828286Y-63407930D02*
X118899715Y-63443644D01*
X118899715Y-63443644D02*
X118935429Y-63479358D01*
X118935429Y-63479358D02*
X118971143Y-63550787D01*
X118971143Y-63550787D02*
X118971143Y-63657930D01*
X118971143Y-63657930D02*
X118935429Y-63729358D01*
X118935429Y-63729358D02*
X118899715Y-63765073D01*
X118899715Y-63765073D02*
X118828286Y-63800787D01*
X118828286Y-63800787D02*
X118542572Y-63800787D01*
X119221143Y-63407930D02*
X119399715Y-64157930D01*
X119399715Y-64157930D02*
X119542572Y-63622216D01*
X119542572Y-63622216D02*
X119685429Y-64157930D01*
X119685429Y-64157930D02*
X119864001Y-63407930D01*
X120578286Y-64157930D02*
X120328286Y-63800787D01*
X120149715Y-64157930D02*
X120149715Y-63407930D01*
X120149715Y-63407930D02*
X120435429Y-63407930D01*
X120435429Y-63407930D02*
X120506858Y-63443644D01*
X120506858Y-63443644D02*
X120542572Y-63479358D01*
X120542572Y-63479358D02*
X120578286Y-63550787D01*
X120578286Y-63550787D02*
X120578286Y-63657930D01*
X120578286Y-63657930D02*
X120542572Y-63729358D01*
X120542572Y-63729358D02*
X120506858Y-63765073D01*
X120506858Y-63765073D02*
X120435429Y-63800787D01*
X120435429Y-63800787D02*
X120149715Y-63800787D01*
X121364001Y-63657930D02*
X121649715Y-63657930D01*
X121471144Y-63407930D02*
X121471144Y-64050787D01*
X121471144Y-64050787D02*
X121506858Y-64122216D01*
X121506858Y-64122216D02*
X121578287Y-64157930D01*
X121578287Y-64157930D02*
X121649715Y-64157930D01*
X122185429Y-64122216D02*
X122114001Y-64157930D01*
X122114001Y-64157930D02*
X121971144Y-64157930D01*
X121971144Y-64157930D02*
X121899715Y-64122216D01*
X121899715Y-64122216D02*
X121864001Y-64050787D01*
X121864001Y-64050787D02*
X121864001Y-63765073D01*
X121864001Y-63765073D02*
X121899715Y-63693644D01*
X121899715Y-63693644D02*
X121971144Y-63657930D01*
X121971144Y-63657930D02*
X122114001Y-63657930D01*
X122114001Y-63657930D02*
X122185429Y-63693644D01*
X122185429Y-63693644D02*
X122221144Y-63765073D01*
X122221144Y-63765073D02*
X122221144Y-63836501D01*
X122221144Y-63836501D02*
X121864001Y-63907930D01*
X122542572Y-64157930D02*
X122542572Y-63657930D01*
X122542572Y-63800787D02*
X122578286Y-63729358D01*
X122578286Y-63729358D02*
X122614001Y-63693644D01*
X122614001Y-63693644D02*
X122685429Y-63657930D01*
X122685429Y-63657930D02*
X122756858Y-63657930D01*
X123006858Y-64157930D02*
X123006858Y-63657930D01*
X123006858Y-63729358D02*
X123042572Y-63693644D01*
X123042572Y-63693644D02*
X123114001Y-63657930D01*
X123114001Y-63657930D02*
X123221144Y-63657930D01*
X123221144Y-63657930D02*
X123292572Y-63693644D01*
X123292572Y-63693644D02*
X123328287Y-63765073D01*
X123328287Y-63765073D02*
X123328287Y-64157930D01*
X123328287Y-63765073D02*
X123364001Y-63693644D01*
X123364001Y-63693644D02*
X123435429Y-63657930D01*
X123435429Y-63657930D02*
X123542572Y-63657930D01*
X123542572Y-63657930D02*
X123614001Y-63693644D01*
X123614001Y-63693644D02*
X123649715Y-63765073D01*
X123649715Y-63765073D02*
X123649715Y-64157930D01*
X124006858Y-64157930D02*
X124006858Y-63657930D01*
X124006858Y-63407930D02*
X123971144Y-63443644D01*
X123971144Y-63443644D02*
X124006858Y-63479358D01*
X124006858Y-63479358D02*
X124042572Y-63443644D01*
X124042572Y-63443644D02*
X124006858Y-63407930D01*
X124006858Y-63407930D02*
X124006858Y-63479358D01*
X124364001Y-63657930D02*
X124364001Y-64157930D01*
X124364001Y-63729358D02*
X124399715Y-63693644D01*
X124399715Y-63693644D02*
X124471144Y-63657930D01*
X124471144Y-63657930D02*
X124578287Y-63657930D01*
X124578287Y-63657930D02*
X124649715Y-63693644D01*
X124649715Y-63693644D02*
X124685430Y-63765073D01*
X124685430Y-63765073D02*
X124685430Y-64157930D01*
X125364001Y-64157930D02*
X125364001Y-63765073D01*
X125364001Y-63765073D02*
X125328286Y-63693644D01*
X125328286Y-63693644D02*
X125256858Y-63657930D01*
X125256858Y-63657930D02*
X125114001Y-63657930D01*
X125114001Y-63657930D02*
X125042572Y-63693644D01*
X125364001Y-64122216D02*
X125292572Y-64157930D01*
X125292572Y-64157930D02*
X125114001Y-64157930D01*
X125114001Y-64157930D02*
X125042572Y-64122216D01*
X125042572Y-64122216D02*
X125006858Y-64050787D01*
X125006858Y-64050787D02*
X125006858Y-63979358D01*
X125006858Y-63979358D02*
X125042572Y-63907930D01*
X125042572Y-63907930D02*
X125114001Y-63872216D01*
X125114001Y-63872216D02*
X125292572Y-63872216D01*
X125292572Y-63872216D02*
X125364001Y-63836501D01*
X125828286Y-64157930D02*
X125756857Y-64122216D01*
X125756857Y-64122216D02*
X125721143Y-64050787D01*
X125721143Y-64050787D02*
X125721143Y-63407930D01*
X104328289Y-65365388D02*
X104328289Y-64972531D01*
X104328289Y-64972531D02*
X104292574Y-64901102D01*
X104292574Y-64901102D02*
X104221146Y-64865388D01*
X104221146Y-64865388D02*
X104078289Y-64865388D01*
X104078289Y-64865388D02*
X104006860Y-64901102D01*
X104328289Y-65329674D02*
X104256860Y-65365388D01*
X104256860Y-65365388D02*
X104078289Y-65365388D01*
X104078289Y-65365388D02*
X104006860Y-65329674D01*
X104006860Y-65329674D02*
X103971146Y-65258245D01*
X103971146Y-65258245D02*
X103971146Y-65186816D01*
X103971146Y-65186816D02*
X104006860Y-65115388D01*
X104006860Y-65115388D02*
X104078289Y-65079674D01*
X104078289Y-65079674D02*
X104256860Y-65079674D01*
X104256860Y-65079674D02*
X104328289Y-65043959D01*
X104685431Y-64865388D02*
X104685431Y-65365388D01*
X104685431Y-64936816D02*
X104721145Y-64901102D01*
X104721145Y-64901102D02*
X104792574Y-64865388D01*
X104792574Y-64865388D02*
X104899717Y-64865388D01*
X104899717Y-64865388D02*
X104971145Y-64901102D01*
X104971145Y-64901102D02*
X105006860Y-64972531D01*
X105006860Y-64972531D02*
X105006860Y-65365388D01*
X105685431Y-65365388D02*
X105685431Y-64615388D01*
X105685431Y-65329674D02*
X105614002Y-65365388D01*
X105614002Y-65365388D02*
X105471145Y-65365388D01*
X105471145Y-65365388D02*
X105399716Y-65329674D01*
X105399716Y-65329674D02*
X105364002Y-65293959D01*
X105364002Y-65293959D02*
X105328288Y-65222531D01*
X105328288Y-65222531D02*
X105328288Y-65008245D01*
X105328288Y-65008245D02*
X105364002Y-64936816D01*
X105364002Y-64936816D02*
X105399716Y-64901102D01*
X105399716Y-64901102D02*
X105471145Y-64865388D01*
X105471145Y-64865388D02*
X105614002Y-64865388D01*
X105614002Y-64865388D02*
X105685431Y-64901102D01*
X107006859Y-64651102D02*
X106935431Y-64615388D01*
X106935431Y-64615388D02*
X106828288Y-64615388D01*
X106828288Y-64615388D02*
X106721145Y-64651102D01*
X106721145Y-64651102D02*
X106649716Y-64722531D01*
X106649716Y-64722531D02*
X106614002Y-64793959D01*
X106614002Y-64793959D02*
X106578288Y-64936816D01*
X106578288Y-64936816D02*
X106578288Y-65043959D01*
X106578288Y-65043959D02*
X106614002Y-65186816D01*
X106614002Y-65186816D02*
X106649716Y-65258245D01*
X106649716Y-65258245D02*
X106721145Y-65329674D01*
X106721145Y-65329674D02*
X106828288Y-65365388D01*
X106828288Y-65365388D02*
X106899716Y-65365388D01*
X106899716Y-65365388D02*
X107006859Y-65329674D01*
X107006859Y-65329674D02*
X107042573Y-65293959D01*
X107042573Y-65293959D02*
X107042573Y-65043959D01*
X107042573Y-65043959D02*
X106899716Y-65043959D01*
X107364002Y-65365388D02*
X107364002Y-64865388D01*
X107364002Y-65008245D02*
X107399716Y-64936816D01*
X107399716Y-64936816D02*
X107435431Y-64901102D01*
X107435431Y-64901102D02*
X107506859Y-64865388D01*
X107506859Y-64865388D02*
X107578288Y-64865388D01*
X107935431Y-65365388D02*
X107864002Y-65329674D01*
X107864002Y-65329674D02*
X107828288Y-65293959D01*
X107828288Y-65293959D02*
X107792574Y-65222531D01*
X107792574Y-65222531D02*
X107792574Y-65008245D01*
X107792574Y-65008245D02*
X107828288Y-64936816D01*
X107828288Y-64936816D02*
X107864002Y-64901102D01*
X107864002Y-64901102D02*
X107935431Y-64865388D01*
X107935431Y-64865388D02*
X108042574Y-64865388D01*
X108042574Y-64865388D02*
X108114002Y-64901102D01*
X108114002Y-64901102D02*
X108149717Y-64936816D01*
X108149717Y-64936816D02*
X108185431Y-65008245D01*
X108185431Y-65008245D02*
X108185431Y-65222531D01*
X108185431Y-65222531D02*
X108149717Y-65293959D01*
X108149717Y-65293959D02*
X108114002Y-65329674D01*
X108114002Y-65329674D02*
X108042574Y-65365388D01*
X108042574Y-65365388D02*
X107935431Y-65365388D01*
X108828288Y-64865388D02*
X108828288Y-65365388D01*
X108506859Y-64865388D02*
X108506859Y-65258245D01*
X108506859Y-65258245D02*
X108542573Y-65329674D01*
X108542573Y-65329674D02*
X108614002Y-65365388D01*
X108614002Y-65365388D02*
X108721145Y-65365388D01*
X108721145Y-65365388D02*
X108792573Y-65329674D01*
X108792573Y-65329674D02*
X108828288Y-65293959D01*
X109185430Y-64865388D02*
X109185430Y-65365388D01*
X109185430Y-64936816D02*
X109221144Y-64901102D01*
X109221144Y-64901102D02*
X109292573Y-64865388D01*
X109292573Y-64865388D02*
X109399716Y-64865388D01*
X109399716Y-64865388D02*
X109471144Y-64901102D01*
X109471144Y-64901102D02*
X109506859Y-64972531D01*
X109506859Y-64972531D02*
X109506859Y-65365388D01*
X110185430Y-65365388D02*
X110185430Y-64615388D01*
X110185430Y-65329674D02*
X110114001Y-65365388D01*
X110114001Y-65365388D02*
X109971144Y-65365388D01*
X109971144Y-65365388D02*
X109899715Y-65329674D01*
X109899715Y-65329674D02*
X109864001Y-65293959D01*
X109864001Y-65293959D02*
X109828287Y-65222531D01*
X109828287Y-65222531D02*
X109828287Y-65008245D01*
X109828287Y-65008245D02*
X109864001Y-64936816D01*
X109864001Y-64936816D02*
X109899715Y-64901102D01*
X109899715Y-64901102D02*
X109971144Y-64865388D01*
X109971144Y-64865388D02*
X110114001Y-64865388D01*
X110114001Y-64865388D02*
X110185430Y-64901102D01*
X111006858Y-64865388D02*
X111292572Y-64865388D01*
X111114001Y-64615388D02*
X111114001Y-65258245D01*
X111114001Y-65258245D02*
X111149715Y-65329674D01*
X111149715Y-65329674D02*
X111221144Y-65365388D01*
X111221144Y-65365388D02*
X111292572Y-65365388D01*
X111649715Y-65365388D02*
X111578286Y-65329674D01*
X111578286Y-65329674D02*
X111542572Y-65293959D01*
X111542572Y-65293959D02*
X111506858Y-65222531D01*
X111506858Y-65222531D02*
X111506858Y-65008245D01*
X111506858Y-65008245D02*
X111542572Y-64936816D01*
X111542572Y-64936816D02*
X111578286Y-64901102D01*
X111578286Y-64901102D02*
X111649715Y-64865388D01*
X111649715Y-64865388D02*
X111756858Y-64865388D01*
X111756858Y-64865388D02*
X111828286Y-64901102D01*
X111828286Y-64901102D02*
X111864001Y-64936816D01*
X111864001Y-64936816D02*
X111899715Y-65008245D01*
X111899715Y-65008245D02*
X111899715Y-65222531D01*
X111899715Y-65222531D02*
X111864001Y-65293959D01*
X111864001Y-65293959D02*
X111828286Y-65329674D01*
X111828286Y-65329674D02*
X111756858Y-65365388D01*
X111756858Y-65365388D02*
X111649715Y-65365388D01*
X112685429Y-64865388D02*
X112971143Y-64865388D01*
X112792572Y-64615388D02*
X112792572Y-65258245D01*
X112792572Y-65258245D02*
X112828286Y-65329674D01*
X112828286Y-65329674D02*
X112899715Y-65365388D01*
X112899715Y-65365388D02*
X112971143Y-65365388D01*
X113221143Y-65365388D02*
X113221143Y-64615388D01*
X113542572Y-65365388D02*
X113542572Y-64972531D01*
X113542572Y-64972531D02*
X113506857Y-64901102D01*
X113506857Y-64901102D02*
X113435429Y-64865388D01*
X113435429Y-64865388D02*
X113328286Y-64865388D01*
X113328286Y-64865388D02*
X113256857Y-64901102D01*
X113256857Y-64901102D02*
X113221143Y-64936816D01*
X114185428Y-65329674D02*
X114114000Y-65365388D01*
X114114000Y-65365388D02*
X113971143Y-65365388D01*
X113971143Y-65365388D02*
X113899714Y-65329674D01*
X113899714Y-65329674D02*
X113864000Y-65258245D01*
X113864000Y-65258245D02*
X113864000Y-64972531D01*
X113864000Y-64972531D02*
X113899714Y-64901102D01*
X113899714Y-64901102D02*
X113971143Y-64865388D01*
X113971143Y-64865388D02*
X114114000Y-64865388D01*
X114114000Y-64865388D02*
X114185428Y-64901102D01*
X114185428Y-64901102D02*
X114221143Y-64972531D01*
X114221143Y-64972531D02*
X114221143Y-65043959D01*
X114221143Y-65043959D02*
X113864000Y-65115388D01*
X115506857Y-64651102D02*
X115435429Y-64615388D01*
X115435429Y-64615388D02*
X115328286Y-64615388D01*
X115328286Y-64615388D02*
X115221143Y-64651102D01*
X115221143Y-64651102D02*
X115149714Y-64722531D01*
X115149714Y-64722531D02*
X115114000Y-64793959D01*
X115114000Y-64793959D02*
X115078286Y-64936816D01*
X115078286Y-64936816D02*
X115078286Y-65043959D01*
X115078286Y-65043959D02*
X115114000Y-65186816D01*
X115114000Y-65186816D02*
X115149714Y-65258245D01*
X115149714Y-65258245D02*
X115221143Y-65329674D01*
X115221143Y-65329674D02*
X115328286Y-65365388D01*
X115328286Y-65365388D02*
X115399714Y-65365388D01*
X115399714Y-65365388D02*
X115506857Y-65329674D01*
X115506857Y-65329674D02*
X115542571Y-65293959D01*
X115542571Y-65293959D02*
X115542571Y-65043959D01*
X115542571Y-65043959D02*
X115399714Y-65043959D01*
X115864000Y-65365388D02*
X115864000Y-64615388D01*
X115864000Y-64615388D02*
X116292571Y-65365388D01*
X116292571Y-65365388D02*
X116292571Y-64615388D01*
X116649714Y-65365388D02*
X116649714Y-64615388D01*
X116649714Y-64615388D02*
X116828285Y-64615388D01*
X116828285Y-64615388D02*
X116935428Y-64651102D01*
X116935428Y-64651102D02*
X117006857Y-64722531D01*
X117006857Y-64722531D02*
X117042571Y-64793959D01*
X117042571Y-64793959D02*
X117078285Y-64936816D01*
X117078285Y-64936816D02*
X117078285Y-65043959D01*
X117078285Y-65043959D02*
X117042571Y-65186816D01*
X117042571Y-65186816D02*
X117006857Y-65258245D01*
X117006857Y-65258245D02*
X116935428Y-65329674D01*
X116935428Y-65329674D02*
X116828285Y-65365388D01*
X116828285Y-65365388D02*
X116649714Y-65365388D01*
X117864000Y-64865388D02*
X118149714Y-64865388D01*
X117971143Y-64615388D02*
X117971143Y-65258245D01*
X117971143Y-65258245D02*
X118006857Y-65329674D01*
X118006857Y-65329674D02*
X118078286Y-65365388D01*
X118078286Y-65365388D02*
X118149714Y-65365388D01*
X118685428Y-65329674D02*
X118614000Y-65365388D01*
X118614000Y-65365388D02*
X118471143Y-65365388D01*
X118471143Y-65365388D02*
X118399714Y-65329674D01*
X118399714Y-65329674D02*
X118364000Y-65258245D01*
X118364000Y-65258245D02*
X118364000Y-64972531D01*
X118364000Y-64972531D02*
X118399714Y-64901102D01*
X118399714Y-64901102D02*
X118471143Y-64865388D01*
X118471143Y-64865388D02*
X118614000Y-64865388D01*
X118614000Y-64865388D02*
X118685428Y-64901102D01*
X118685428Y-64901102D02*
X118721143Y-64972531D01*
X118721143Y-64972531D02*
X118721143Y-65043959D01*
X118721143Y-65043959D02*
X118364000Y-65115388D01*
X119042571Y-65365388D02*
X119042571Y-64865388D01*
X119042571Y-65008245D02*
X119078285Y-64936816D01*
X119078285Y-64936816D02*
X119114000Y-64901102D01*
X119114000Y-64901102D02*
X119185428Y-64865388D01*
X119185428Y-64865388D02*
X119256857Y-64865388D01*
X119506857Y-65365388D02*
X119506857Y-64865388D01*
X119506857Y-64936816D02*
X119542571Y-64901102D01*
X119542571Y-64901102D02*
X119614000Y-64865388D01*
X119614000Y-64865388D02*
X119721143Y-64865388D01*
X119721143Y-64865388D02*
X119792571Y-64901102D01*
X119792571Y-64901102D02*
X119828286Y-64972531D01*
X119828286Y-64972531D02*
X119828286Y-65365388D01*
X119828286Y-64972531D02*
X119864000Y-64901102D01*
X119864000Y-64901102D02*
X119935428Y-64865388D01*
X119935428Y-64865388D02*
X120042571Y-64865388D01*
X120042571Y-64865388D02*
X120114000Y-64901102D01*
X120114000Y-64901102D02*
X120149714Y-64972531D01*
X120149714Y-64972531D02*
X120149714Y-65365388D01*
X120506857Y-65365388D02*
X120506857Y-64865388D01*
X120506857Y-64615388D02*
X120471143Y-64651102D01*
X120471143Y-64651102D02*
X120506857Y-64686816D01*
X120506857Y-64686816D02*
X120542571Y-64651102D01*
X120542571Y-64651102D02*
X120506857Y-64615388D01*
X120506857Y-64615388D02*
X120506857Y-64686816D01*
X120864000Y-64865388D02*
X120864000Y-65365388D01*
X120864000Y-64936816D02*
X120899714Y-64901102D01*
X120899714Y-64901102D02*
X120971143Y-64865388D01*
X120971143Y-64865388D02*
X121078286Y-64865388D01*
X121078286Y-64865388D02*
X121149714Y-64901102D01*
X121149714Y-64901102D02*
X121185429Y-64972531D01*
X121185429Y-64972531D02*
X121185429Y-65365388D01*
X121864000Y-65365388D02*
X121864000Y-64972531D01*
X121864000Y-64972531D02*
X121828285Y-64901102D01*
X121828285Y-64901102D02*
X121756857Y-64865388D01*
X121756857Y-64865388D02*
X121614000Y-64865388D01*
X121614000Y-64865388D02*
X121542571Y-64901102D01*
X121864000Y-65329674D02*
X121792571Y-65365388D01*
X121792571Y-65365388D02*
X121614000Y-65365388D01*
X121614000Y-65365388D02*
X121542571Y-65329674D01*
X121542571Y-65329674D02*
X121506857Y-65258245D01*
X121506857Y-65258245D02*
X121506857Y-65186816D01*
X121506857Y-65186816D02*
X121542571Y-65115388D01*
X121542571Y-65115388D02*
X121614000Y-65079674D01*
X121614000Y-65079674D02*
X121792571Y-65079674D01*
X121792571Y-65079674D02*
X121864000Y-65043959D01*
X122328285Y-65365388D02*
X122256856Y-65329674D01*
X122256856Y-65329674D02*
X122221142Y-65258245D01*
X122221142Y-65258245D02*
X122221142Y-64615388D01*
X122613999Y-65293959D02*
X122649713Y-65329674D01*
X122649713Y-65329674D02*
X122613999Y-65365388D01*
X122613999Y-65365388D02*
X122578285Y-65329674D01*
X122578285Y-65329674D02*
X122613999Y-65293959D01*
X122613999Y-65293959D02*
X122613999Y-65365388D01*
X103971146Y-67101732D02*
X104006860Y-67066018D01*
X104006860Y-67066018D02*
X104078289Y-67030304D01*
X104078289Y-67030304D02*
X104256860Y-67030304D01*
X104256860Y-67030304D02*
X104328289Y-67066018D01*
X104328289Y-67066018D02*
X104364003Y-67101732D01*
X104364003Y-67101732D02*
X104399717Y-67173161D01*
X104399717Y-67173161D02*
X104399717Y-67244590D01*
X104399717Y-67244590D02*
X104364003Y-67351732D01*
X104364003Y-67351732D02*
X103935431Y-67780304D01*
X103935431Y-67780304D02*
X104399717Y-67780304D01*
X104721146Y-67708875D02*
X104756860Y-67744590D01*
X104756860Y-67744590D02*
X104721146Y-67780304D01*
X104721146Y-67780304D02*
X104685432Y-67744590D01*
X104685432Y-67744590D02*
X104721146Y-67708875D01*
X104721146Y-67708875D02*
X104721146Y-67780304D01*
X105649718Y-67780304D02*
X105649718Y-67030304D01*
X105649718Y-67030304D02*
X105935432Y-67030304D01*
X105935432Y-67030304D02*
X106006861Y-67066018D01*
X106006861Y-67066018D02*
X106042575Y-67101732D01*
X106042575Y-67101732D02*
X106078289Y-67173161D01*
X106078289Y-67173161D02*
X106078289Y-67280304D01*
X106078289Y-67280304D02*
X106042575Y-67351732D01*
X106042575Y-67351732D02*
X106006861Y-67387447D01*
X106006861Y-67387447D02*
X105935432Y-67423161D01*
X105935432Y-67423161D02*
X105649718Y-67423161D01*
X106506861Y-67780304D02*
X106435432Y-67744590D01*
X106435432Y-67744590D02*
X106399718Y-67673161D01*
X106399718Y-67673161D02*
X106399718Y-67030304D01*
X107114004Y-67780304D02*
X107114004Y-67387447D01*
X107114004Y-67387447D02*
X107078289Y-67316018D01*
X107078289Y-67316018D02*
X107006861Y-67280304D01*
X107006861Y-67280304D02*
X106864004Y-67280304D01*
X106864004Y-67280304D02*
X106792575Y-67316018D01*
X107114004Y-67744590D02*
X107042575Y-67780304D01*
X107042575Y-67780304D02*
X106864004Y-67780304D01*
X106864004Y-67780304D02*
X106792575Y-67744590D01*
X106792575Y-67744590D02*
X106756861Y-67673161D01*
X106756861Y-67673161D02*
X106756861Y-67601732D01*
X106756861Y-67601732D02*
X106792575Y-67530304D01*
X106792575Y-67530304D02*
X106864004Y-67494590D01*
X106864004Y-67494590D02*
X107042575Y-67494590D01*
X107042575Y-67494590D02*
X107114004Y-67458875D01*
X107792575Y-67744590D02*
X107721146Y-67780304D01*
X107721146Y-67780304D02*
X107578289Y-67780304D01*
X107578289Y-67780304D02*
X107506860Y-67744590D01*
X107506860Y-67744590D02*
X107471146Y-67708875D01*
X107471146Y-67708875D02*
X107435432Y-67637447D01*
X107435432Y-67637447D02*
X107435432Y-67423161D01*
X107435432Y-67423161D02*
X107471146Y-67351732D01*
X107471146Y-67351732D02*
X107506860Y-67316018D01*
X107506860Y-67316018D02*
X107578289Y-67280304D01*
X107578289Y-67280304D02*
X107721146Y-67280304D01*
X107721146Y-67280304D02*
X107792575Y-67316018D01*
X108399717Y-67744590D02*
X108328289Y-67780304D01*
X108328289Y-67780304D02*
X108185432Y-67780304D01*
X108185432Y-67780304D02*
X108114003Y-67744590D01*
X108114003Y-67744590D02*
X108078289Y-67673161D01*
X108078289Y-67673161D02*
X108078289Y-67387447D01*
X108078289Y-67387447D02*
X108114003Y-67316018D01*
X108114003Y-67316018D02*
X108185432Y-67280304D01*
X108185432Y-67280304D02*
X108328289Y-67280304D01*
X108328289Y-67280304D02*
X108399717Y-67316018D01*
X108399717Y-67316018D02*
X108435432Y-67387447D01*
X108435432Y-67387447D02*
X108435432Y-67458875D01*
X108435432Y-67458875D02*
X108078289Y-67530304D01*
X109649718Y-67780304D02*
X109649718Y-67387447D01*
X109649718Y-67387447D02*
X109614003Y-67316018D01*
X109614003Y-67316018D02*
X109542575Y-67280304D01*
X109542575Y-67280304D02*
X109399718Y-67280304D01*
X109399718Y-67280304D02*
X109328289Y-67316018D01*
X109649718Y-67744590D02*
X109578289Y-67780304D01*
X109578289Y-67780304D02*
X109399718Y-67780304D01*
X109399718Y-67780304D02*
X109328289Y-67744590D01*
X109328289Y-67744590D02*
X109292575Y-67673161D01*
X109292575Y-67673161D02*
X109292575Y-67601732D01*
X109292575Y-67601732D02*
X109328289Y-67530304D01*
X109328289Y-67530304D02*
X109399718Y-67494590D01*
X109399718Y-67494590D02*
X109578289Y-67494590D01*
X109578289Y-67494590D02*
X109649718Y-67458875D01*
X110542575Y-67744590D02*
X110614003Y-67780304D01*
X110614003Y-67780304D02*
X110756860Y-67780304D01*
X110756860Y-67780304D02*
X110828289Y-67744590D01*
X110828289Y-67744590D02*
X110864003Y-67673161D01*
X110864003Y-67673161D02*
X110864003Y-67637447D01*
X110864003Y-67637447D02*
X110828289Y-67566018D01*
X110828289Y-67566018D02*
X110756860Y-67530304D01*
X110756860Y-67530304D02*
X110649718Y-67530304D01*
X110649718Y-67530304D02*
X110578289Y-67494590D01*
X110578289Y-67494590D02*
X110542575Y-67423161D01*
X110542575Y-67423161D02*
X110542575Y-67387447D01*
X110542575Y-67387447D02*
X110578289Y-67316018D01*
X110578289Y-67316018D02*
X110649718Y-67280304D01*
X110649718Y-67280304D02*
X110756860Y-67280304D01*
X110756860Y-67280304D02*
X110828289Y-67316018D01*
X111185432Y-67780304D02*
X111185432Y-67280304D01*
X111185432Y-67030304D02*
X111149718Y-67066018D01*
X111149718Y-67066018D02*
X111185432Y-67101732D01*
X111185432Y-67101732D02*
X111221146Y-67066018D01*
X111221146Y-67066018D02*
X111185432Y-67030304D01*
X111185432Y-67030304D02*
X111185432Y-67101732D01*
X111542575Y-67280304D02*
X111542575Y-67780304D01*
X111542575Y-67351732D02*
X111578289Y-67316018D01*
X111578289Y-67316018D02*
X111649718Y-67280304D01*
X111649718Y-67280304D02*
X111756861Y-67280304D01*
X111756861Y-67280304D02*
X111828289Y-67316018D01*
X111828289Y-67316018D02*
X111864004Y-67387447D01*
X111864004Y-67387447D02*
X111864004Y-67780304D01*
X112542575Y-67280304D02*
X112542575Y-67887447D01*
X112542575Y-67887447D02*
X112506860Y-67958875D01*
X112506860Y-67958875D02*
X112471146Y-67994590D01*
X112471146Y-67994590D02*
X112399717Y-68030304D01*
X112399717Y-68030304D02*
X112292575Y-68030304D01*
X112292575Y-68030304D02*
X112221146Y-67994590D01*
X112542575Y-67744590D02*
X112471146Y-67780304D01*
X112471146Y-67780304D02*
X112328289Y-67780304D01*
X112328289Y-67780304D02*
X112256860Y-67744590D01*
X112256860Y-67744590D02*
X112221146Y-67708875D01*
X112221146Y-67708875D02*
X112185432Y-67637447D01*
X112185432Y-67637447D02*
X112185432Y-67423161D01*
X112185432Y-67423161D02*
X112221146Y-67351732D01*
X112221146Y-67351732D02*
X112256860Y-67316018D01*
X112256860Y-67316018D02*
X112328289Y-67280304D01*
X112328289Y-67280304D02*
X112471146Y-67280304D01*
X112471146Y-67280304D02*
X112542575Y-67316018D01*
X113006860Y-67780304D02*
X112935431Y-67744590D01*
X112935431Y-67744590D02*
X112899717Y-67673161D01*
X112899717Y-67673161D02*
X112899717Y-67030304D01*
X113578288Y-67744590D02*
X113506860Y-67780304D01*
X113506860Y-67780304D02*
X113364003Y-67780304D01*
X113364003Y-67780304D02*
X113292574Y-67744590D01*
X113292574Y-67744590D02*
X113256860Y-67673161D01*
X113256860Y-67673161D02*
X113256860Y-67387447D01*
X113256860Y-67387447D02*
X113292574Y-67316018D01*
X113292574Y-67316018D02*
X113364003Y-67280304D01*
X113364003Y-67280304D02*
X113506860Y-67280304D01*
X113506860Y-67280304D02*
X113578288Y-67316018D01*
X113578288Y-67316018D02*
X113614003Y-67387447D01*
X113614003Y-67387447D02*
X113614003Y-67458875D01*
X113614003Y-67458875D02*
X113256860Y-67530304D01*
X114399717Y-67280304D02*
X114685431Y-67280304D01*
X114506860Y-67030304D02*
X114506860Y-67673161D01*
X114506860Y-67673161D02*
X114542574Y-67744590D01*
X114542574Y-67744590D02*
X114614003Y-67780304D01*
X114614003Y-67780304D02*
X114685431Y-67780304D01*
X114935431Y-67780304D02*
X114935431Y-67280304D01*
X114935431Y-67423161D02*
X114971145Y-67351732D01*
X114971145Y-67351732D02*
X115006860Y-67316018D01*
X115006860Y-67316018D02*
X115078288Y-67280304D01*
X115078288Y-67280304D02*
X115149717Y-67280304D01*
X115721146Y-67780304D02*
X115721146Y-67387447D01*
X115721146Y-67387447D02*
X115685431Y-67316018D01*
X115685431Y-67316018D02*
X115614003Y-67280304D01*
X115614003Y-67280304D02*
X115471146Y-67280304D01*
X115471146Y-67280304D02*
X115399717Y-67316018D01*
X115721146Y-67744590D02*
X115649717Y-67780304D01*
X115649717Y-67780304D02*
X115471146Y-67780304D01*
X115471146Y-67780304D02*
X115399717Y-67744590D01*
X115399717Y-67744590D02*
X115364003Y-67673161D01*
X115364003Y-67673161D02*
X115364003Y-67601732D01*
X115364003Y-67601732D02*
X115399717Y-67530304D01*
X115399717Y-67530304D02*
X115471146Y-67494590D01*
X115471146Y-67494590D02*
X115649717Y-67494590D01*
X115649717Y-67494590D02*
X115721146Y-67458875D01*
X116078288Y-67280304D02*
X116078288Y-67780304D01*
X116078288Y-67351732D02*
X116114002Y-67316018D01*
X116114002Y-67316018D02*
X116185431Y-67280304D01*
X116185431Y-67280304D02*
X116292574Y-67280304D01*
X116292574Y-67280304D02*
X116364002Y-67316018D01*
X116364002Y-67316018D02*
X116399717Y-67387447D01*
X116399717Y-67387447D02*
X116399717Y-67780304D01*
X116721145Y-67744590D02*
X116792573Y-67780304D01*
X116792573Y-67780304D02*
X116935430Y-67780304D01*
X116935430Y-67780304D02*
X117006859Y-67744590D01*
X117006859Y-67744590D02*
X117042573Y-67673161D01*
X117042573Y-67673161D02*
X117042573Y-67637447D01*
X117042573Y-67637447D02*
X117006859Y-67566018D01*
X117006859Y-67566018D02*
X116935430Y-67530304D01*
X116935430Y-67530304D02*
X116828288Y-67530304D01*
X116828288Y-67530304D02*
X116756859Y-67494590D01*
X116756859Y-67494590D02*
X116721145Y-67423161D01*
X116721145Y-67423161D02*
X116721145Y-67387447D01*
X116721145Y-67387447D02*
X116756859Y-67316018D01*
X116756859Y-67316018D02*
X116828288Y-67280304D01*
X116828288Y-67280304D02*
X116935430Y-67280304D01*
X116935430Y-67280304D02*
X117006859Y-67316018D01*
X117364002Y-67780304D02*
X117364002Y-67280304D01*
X117364002Y-67030304D02*
X117328288Y-67066018D01*
X117328288Y-67066018D02*
X117364002Y-67101732D01*
X117364002Y-67101732D02*
X117399716Y-67066018D01*
X117399716Y-67066018D02*
X117364002Y-67030304D01*
X117364002Y-67030304D02*
X117364002Y-67101732D01*
X117685431Y-67744590D02*
X117756859Y-67780304D01*
X117756859Y-67780304D02*
X117899716Y-67780304D01*
X117899716Y-67780304D02*
X117971145Y-67744590D01*
X117971145Y-67744590D02*
X118006859Y-67673161D01*
X118006859Y-67673161D02*
X118006859Y-67637447D01*
X118006859Y-67637447D02*
X117971145Y-67566018D01*
X117971145Y-67566018D02*
X117899716Y-67530304D01*
X117899716Y-67530304D02*
X117792574Y-67530304D01*
X117792574Y-67530304D02*
X117721145Y-67494590D01*
X117721145Y-67494590D02*
X117685431Y-67423161D01*
X117685431Y-67423161D02*
X117685431Y-67387447D01*
X117685431Y-67387447D02*
X117721145Y-67316018D01*
X117721145Y-67316018D02*
X117792574Y-67280304D01*
X117792574Y-67280304D02*
X117899716Y-67280304D01*
X117899716Y-67280304D02*
X117971145Y-67316018D01*
X118221145Y-67280304D02*
X118506859Y-67280304D01*
X118328288Y-67030304D02*
X118328288Y-67673161D01*
X118328288Y-67673161D02*
X118364002Y-67744590D01*
X118364002Y-67744590D02*
X118435431Y-67780304D01*
X118435431Y-67780304D02*
X118506859Y-67780304D01*
X118864002Y-67780304D02*
X118792573Y-67744590D01*
X118792573Y-67744590D02*
X118756859Y-67708875D01*
X118756859Y-67708875D02*
X118721145Y-67637447D01*
X118721145Y-67637447D02*
X118721145Y-67423161D01*
X118721145Y-67423161D02*
X118756859Y-67351732D01*
X118756859Y-67351732D02*
X118792573Y-67316018D01*
X118792573Y-67316018D02*
X118864002Y-67280304D01*
X118864002Y-67280304D02*
X118971145Y-67280304D01*
X118971145Y-67280304D02*
X119042573Y-67316018D01*
X119042573Y-67316018D02*
X119078288Y-67351732D01*
X119078288Y-67351732D02*
X119114002Y-67423161D01*
X119114002Y-67423161D02*
X119114002Y-67637447D01*
X119114002Y-67637447D02*
X119078288Y-67708875D01*
X119078288Y-67708875D02*
X119042573Y-67744590D01*
X119042573Y-67744590D02*
X118971145Y-67780304D01*
X118971145Y-67780304D02*
X118864002Y-67780304D01*
X119435430Y-67780304D02*
X119435430Y-67280304D01*
X119435430Y-67423161D02*
X119471144Y-67351732D01*
X119471144Y-67351732D02*
X119506859Y-67316018D01*
X119506859Y-67316018D02*
X119578287Y-67280304D01*
X119578287Y-67280304D02*
X119649716Y-67280304D01*
X120792574Y-67780304D02*
X120792574Y-67387447D01*
X120792574Y-67387447D02*
X120756859Y-67316018D01*
X120756859Y-67316018D02*
X120685431Y-67280304D01*
X120685431Y-67280304D02*
X120542574Y-67280304D01*
X120542574Y-67280304D02*
X120471145Y-67316018D01*
X120792574Y-67744590D02*
X120721145Y-67780304D01*
X120721145Y-67780304D02*
X120542574Y-67780304D01*
X120542574Y-67780304D02*
X120471145Y-67744590D01*
X120471145Y-67744590D02*
X120435431Y-67673161D01*
X120435431Y-67673161D02*
X120435431Y-67601732D01*
X120435431Y-67601732D02*
X120471145Y-67530304D01*
X120471145Y-67530304D02*
X120542574Y-67494590D01*
X120542574Y-67494590D02*
X120721145Y-67494590D01*
X120721145Y-67494590D02*
X120792574Y-67458875D01*
X121042573Y-67280304D02*
X121328287Y-67280304D01*
X121149716Y-67030304D02*
X121149716Y-67673161D01*
X121149716Y-67673161D02*
X121185430Y-67744590D01*
X121185430Y-67744590D02*
X121256859Y-67780304D01*
X121256859Y-67780304D02*
X121328287Y-67780304D01*
X122471145Y-67780304D02*
X122471145Y-67387447D01*
X122471145Y-67387447D02*
X122435430Y-67316018D01*
X122435430Y-67316018D02*
X122364002Y-67280304D01*
X122364002Y-67280304D02*
X122221145Y-67280304D01*
X122221145Y-67280304D02*
X122149716Y-67316018D01*
X122471145Y-67744590D02*
X122399716Y-67780304D01*
X122399716Y-67780304D02*
X122221145Y-67780304D01*
X122221145Y-67780304D02*
X122149716Y-67744590D01*
X122149716Y-67744590D02*
X122114002Y-67673161D01*
X122114002Y-67673161D02*
X122114002Y-67601732D01*
X122114002Y-67601732D02*
X122149716Y-67530304D01*
X122149716Y-67530304D02*
X122221145Y-67494590D01*
X122221145Y-67494590D02*
X122399716Y-67494590D01*
X122399716Y-67494590D02*
X122471145Y-67458875D01*
X123292573Y-67280304D02*
X123578287Y-67280304D01*
X123399716Y-67030304D02*
X123399716Y-67673161D01*
X123399716Y-67673161D02*
X123435430Y-67744590D01*
X123435430Y-67744590D02*
X123506859Y-67780304D01*
X123506859Y-67780304D02*
X123578287Y-67780304D01*
X123828287Y-67780304D02*
X123828287Y-67280304D01*
X123828287Y-67030304D02*
X123792573Y-67066018D01*
X123792573Y-67066018D02*
X123828287Y-67101732D01*
X123828287Y-67101732D02*
X123864001Y-67066018D01*
X123864001Y-67066018D02*
X123828287Y-67030304D01*
X123828287Y-67030304D02*
X123828287Y-67101732D01*
X124185430Y-67780304D02*
X124185430Y-67280304D01*
X124185430Y-67351732D02*
X124221144Y-67316018D01*
X124221144Y-67316018D02*
X124292573Y-67280304D01*
X124292573Y-67280304D02*
X124399716Y-67280304D01*
X124399716Y-67280304D02*
X124471144Y-67316018D01*
X124471144Y-67316018D02*
X124506859Y-67387447D01*
X124506859Y-67387447D02*
X124506859Y-67780304D01*
X124506859Y-67387447D02*
X124542573Y-67316018D01*
X124542573Y-67316018D02*
X124614001Y-67280304D01*
X124614001Y-67280304D02*
X124721144Y-67280304D01*
X124721144Y-67280304D02*
X124792573Y-67316018D01*
X124792573Y-67316018D02*
X124828287Y-67387447D01*
X124828287Y-67387447D02*
X124828287Y-67780304D01*
X125471144Y-67744590D02*
X125399716Y-67780304D01*
X125399716Y-67780304D02*
X125256859Y-67780304D01*
X125256859Y-67780304D02*
X125185430Y-67744590D01*
X125185430Y-67744590D02*
X125149716Y-67673161D01*
X125149716Y-67673161D02*
X125149716Y-67387447D01*
X125149716Y-67387447D02*
X125185430Y-67316018D01*
X125185430Y-67316018D02*
X125256859Y-67280304D01*
X125256859Y-67280304D02*
X125399716Y-67280304D01*
X125399716Y-67280304D02*
X125471144Y-67316018D01*
X125471144Y-67316018D02*
X125506859Y-67387447D01*
X125506859Y-67387447D02*
X125506859Y-67458875D01*
X125506859Y-67458875D02*
X125149716Y-67530304D01*
X104006860Y-68987762D02*
X104006860Y-68487762D01*
X104006860Y-68237762D02*
X103971146Y-68273476D01*
X103971146Y-68273476D02*
X104006860Y-68309190D01*
X104006860Y-68309190D02*
X104042574Y-68273476D01*
X104042574Y-68273476D02*
X104006860Y-68237762D01*
X104006860Y-68237762D02*
X104006860Y-68309190D01*
X104364003Y-68487762D02*
X104364003Y-68987762D01*
X104364003Y-68559190D02*
X104399717Y-68523476D01*
X104399717Y-68523476D02*
X104471146Y-68487762D01*
X104471146Y-68487762D02*
X104578289Y-68487762D01*
X104578289Y-68487762D02*
X104649717Y-68523476D01*
X104649717Y-68523476D02*
X104685432Y-68594905D01*
X104685432Y-68594905D02*
X104685432Y-68987762D01*
X104935431Y-68487762D02*
X105221145Y-68487762D01*
X105042574Y-68237762D02*
X105042574Y-68880619D01*
X105042574Y-68880619D02*
X105078288Y-68952048D01*
X105078288Y-68952048D02*
X105149717Y-68987762D01*
X105149717Y-68987762D02*
X105221145Y-68987762D01*
X105578288Y-68987762D02*
X105506859Y-68952048D01*
X105506859Y-68952048D02*
X105471145Y-68916333D01*
X105471145Y-68916333D02*
X105435431Y-68844905D01*
X105435431Y-68844905D02*
X105435431Y-68630619D01*
X105435431Y-68630619D02*
X105471145Y-68559190D01*
X105471145Y-68559190D02*
X105506859Y-68523476D01*
X105506859Y-68523476D02*
X105578288Y-68487762D01*
X105578288Y-68487762D02*
X105685431Y-68487762D01*
X105685431Y-68487762D02*
X105756859Y-68523476D01*
X105756859Y-68523476D02*
X105792574Y-68559190D01*
X105792574Y-68559190D02*
X105828288Y-68630619D01*
X105828288Y-68630619D02*
X105828288Y-68844905D01*
X105828288Y-68844905D02*
X105792574Y-68916333D01*
X105792574Y-68916333D02*
X105756859Y-68952048D01*
X105756859Y-68952048D02*
X105685431Y-68987762D01*
X105685431Y-68987762D02*
X105578288Y-68987762D01*
X106614002Y-68487762D02*
X106899716Y-68487762D01*
X106721145Y-68237762D02*
X106721145Y-68880619D01*
X106721145Y-68880619D02*
X106756859Y-68952048D01*
X106756859Y-68952048D02*
X106828288Y-68987762D01*
X106828288Y-68987762D02*
X106899716Y-68987762D01*
X107149716Y-68987762D02*
X107149716Y-68237762D01*
X107471145Y-68987762D02*
X107471145Y-68594905D01*
X107471145Y-68594905D02*
X107435430Y-68523476D01*
X107435430Y-68523476D02*
X107364002Y-68487762D01*
X107364002Y-68487762D02*
X107256859Y-68487762D01*
X107256859Y-68487762D02*
X107185430Y-68523476D01*
X107185430Y-68523476D02*
X107149716Y-68559190D01*
X108114001Y-68952048D02*
X108042573Y-68987762D01*
X108042573Y-68987762D02*
X107899716Y-68987762D01*
X107899716Y-68987762D02*
X107828287Y-68952048D01*
X107828287Y-68952048D02*
X107792573Y-68880619D01*
X107792573Y-68880619D02*
X107792573Y-68594905D01*
X107792573Y-68594905D02*
X107828287Y-68523476D01*
X107828287Y-68523476D02*
X107899716Y-68487762D01*
X107899716Y-68487762D02*
X108042573Y-68487762D01*
X108042573Y-68487762D02*
X108114001Y-68523476D01*
X108114001Y-68523476D02*
X108149716Y-68594905D01*
X108149716Y-68594905D02*
X108149716Y-68666333D01*
X108149716Y-68666333D02*
X107792573Y-68737762D01*
X109042573Y-68987762D02*
X109042573Y-68237762D01*
X109042573Y-68523476D02*
X109114002Y-68487762D01*
X109114002Y-68487762D02*
X109256859Y-68487762D01*
X109256859Y-68487762D02*
X109328287Y-68523476D01*
X109328287Y-68523476D02*
X109364002Y-68559190D01*
X109364002Y-68559190D02*
X109399716Y-68630619D01*
X109399716Y-68630619D02*
X109399716Y-68844905D01*
X109399716Y-68844905D02*
X109364002Y-68916333D01*
X109364002Y-68916333D02*
X109328287Y-68952048D01*
X109328287Y-68952048D02*
X109256859Y-68987762D01*
X109256859Y-68987762D02*
X109114002Y-68987762D01*
X109114002Y-68987762D02*
X109042573Y-68952048D01*
X109828287Y-68987762D02*
X109756858Y-68952048D01*
X109756858Y-68952048D02*
X109721144Y-68916333D01*
X109721144Y-68916333D02*
X109685430Y-68844905D01*
X109685430Y-68844905D02*
X109685430Y-68630619D01*
X109685430Y-68630619D02*
X109721144Y-68559190D01*
X109721144Y-68559190D02*
X109756858Y-68523476D01*
X109756858Y-68523476D02*
X109828287Y-68487762D01*
X109828287Y-68487762D02*
X109935430Y-68487762D01*
X109935430Y-68487762D02*
X110006858Y-68523476D01*
X110006858Y-68523476D02*
X110042573Y-68559190D01*
X110042573Y-68559190D02*
X110078287Y-68630619D01*
X110078287Y-68630619D02*
X110078287Y-68844905D01*
X110078287Y-68844905D02*
X110042573Y-68916333D01*
X110042573Y-68916333D02*
X110006858Y-68952048D01*
X110006858Y-68952048D02*
X109935430Y-68987762D01*
X109935430Y-68987762D02*
X109828287Y-68987762D01*
X110721144Y-68987762D02*
X110721144Y-68594905D01*
X110721144Y-68594905D02*
X110685429Y-68523476D01*
X110685429Y-68523476D02*
X110614001Y-68487762D01*
X110614001Y-68487762D02*
X110471144Y-68487762D01*
X110471144Y-68487762D02*
X110399715Y-68523476D01*
X110721144Y-68952048D02*
X110649715Y-68987762D01*
X110649715Y-68987762D02*
X110471144Y-68987762D01*
X110471144Y-68987762D02*
X110399715Y-68952048D01*
X110399715Y-68952048D02*
X110364001Y-68880619D01*
X110364001Y-68880619D02*
X110364001Y-68809190D01*
X110364001Y-68809190D02*
X110399715Y-68737762D01*
X110399715Y-68737762D02*
X110471144Y-68702048D01*
X110471144Y-68702048D02*
X110649715Y-68702048D01*
X110649715Y-68702048D02*
X110721144Y-68666333D01*
X111078286Y-68987762D02*
X111078286Y-68487762D01*
X111078286Y-68630619D02*
X111114000Y-68559190D01*
X111114000Y-68559190D02*
X111149715Y-68523476D01*
X111149715Y-68523476D02*
X111221143Y-68487762D01*
X111221143Y-68487762D02*
X111292572Y-68487762D01*
X111864001Y-68987762D02*
X111864001Y-68237762D01*
X111864001Y-68952048D02*
X111792572Y-68987762D01*
X111792572Y-68987762D02*
X111649715Y-68987762D01*
X111649715Y-68987762D02*
X111578286Y-68952048D01*
X111578286Y-68952048D02*
X111542572Y-68916333D01*
X111542572Y-68916333D02*
X111506858Y-68844905D01*
X111506858Y-68844905D02*
X111506858Y-68630619D01*
X111506858Y-68630619D02*
X111542572Y-68559190D01*
X111542572Y-68559190D02*
X111578286Y-68523476D01*
X111578286Y-68523476D02*
X111649715Y-68487762D01*
X111649715Y-68487762D02*
X111792572Y-68487762D01*
X111792572Y-68487762D02*
X111864001Y-68523476D01*
X112792572Y-68987762D02*
X112792572Y-68487762D01*
X112792572Y-68237762D02*
X112756858Y-68273476D01*
X112756858Y-68273476D02*
X112792572Y-68309190D01*
X112792572Y-68309190D02*
X112828286Y-68273476D01*
X112828286Y-68273476D02*
X112792572Y-68237762D01*
X112792572Y-68237762D02*
X112792572Y-68309190D01*
X113149715Y-68487762D02*
X113149715Y-68987762D01*
X113149715Y-68559190D02*
X113185429Y-68523476D01*
X113185429Y-68523476D02*
X113256858Y-68487762D01*
X113256858Y-68487762D02*
X113364001Y-68487762D01*
X113364001Y-68487762D02*
X113435429Y-68523476D01*
X113435429Y-68523476D02*
X113471144Y-68594905D01*
X113471144Y-68594905D02*
X113471144Y-68987762D01*
X114399715Y-68987762D02*
X114399715Y-68487762D01*
X114399715Y-68237762D02*
X114364001Y-68273476D01*
X114364001Y-68273476D02*
X114399715Y-68309190D01*
X114399715Y-68309190D02*
X114435429Y-68273476D01*
X114435429Y-68273476D02*
X114399715Y-68237762D01*
X114399715Y-68237762D02*
X114399715Y-68309190D01*
X114649715Y-68487762D02*
X114935429Y-68487762D01*
X114756858Y-68237762D02*
X114756858Y-68880619D01*
X114756858Y-68880619D02*
X114792572Y-68952048D01*
X114792572Y-68952048D02*
X114864001Y-68987762D01*
X114864001Y-68987762D02*
X114935429Y-68987762D01*
X115149715Y-68952048D02*
X115221143Y-68987762D01*
X115221143Y-68987762D02*
X115364000Y-68987762D01*
X115364000Y-68987762D02*
X115435429Y-68952048D01*
X115435429Y-68952048D02*
X115471143Y-68880619D01*
X115471143Y-68880619D02*
X115471143Y-68844905D01*
X115471143Y-68844905D02*
X115435429Y-68773476D01*
X115435429Y-68773476D02*
X115364000Y-68737762D01*
X115364000Y-68737762D02*
X115256858Y-68737762D01*
X115256858Y-68737762D02*
X115185429Y-68702048D01*
X115185429Y-68702048D02*
X115149715Y-68630619D01*
X115149715Y-68630619D02*
X115149715Y-68594905D01*
X115149715Y-68594905D02*
X115185429Y-68523476D01*
X115185429Y-68523476D02*
X115256858Y-68487762D01*
X115256858Y-68487762D02*
X115364000Y-68487762D01*
X115364000Y-68487762D02*
X115435429Y-68523476D01*
X116685430Y-68987762D02*
X116685430Y-68237762D01*
X116685430Y-68952048D02*
X116614001Y-68987762D01*
X116614001Y-68987762D02*
X116471144Y-68987762D01*
X116471144Y-68987762D02*
X116399715Y-68952048D01*
X116399715Y-68952048D02*
X116364001Y-68916333D01*
X116364001Y-68916333D02*
X116328287Y-68844905D01*
X116328287Y-68844905D02*
X116328287Y-68630619D01*
X116328287Y-68630619D02*
X116364001Y-68559190D01*
X116364001Y-68559190D02*
X116399715Y-68523476D01*
X116399715Y-68523476D02*
X116471144Y-68487762D01*
X116471144Y-68487762D02*
X116614001Y-68487762D01*
X116614001Y-68487762D02*
X116685430Y-68523476D01*
X117328286Y-68952048D02*
X117256858Y-68987762D01*
X117256858Y-68987762D02*
X117114001Y-68987762D01*
X117114001Y-68987762D02*
X117042572Y-68952048D01*
X117042572Y-68952048D02*
X117006858Y-68880619D01*
X117006858Y-68880619D02*
X117006858Y-68594905D01*
X117006858Y-68594905D02*
X117042572Y-68523476D01*
X117042572Y-68523476D02*
X117114001Y-68487762D01*
X117114001Y-68487762D02*
X117256858Y-68487762D01*
X117256858Y-68487762D02*
X117328286Y-68523476D01*
X117328286Y-68523476D02*
X117364001Y-68594905D01*
X117364001Y-68594905D02*
X117364001Y-68666333D01*
X117364001Y-68666333D02*
X117006858Y-68737762D01*
X117649715Y-68952048D02*
X117721143Y-68987762D01*
X117721143Y-68987762D02*
X117864000Y-68987762D01*
X117864000Y-68987762D02*
X117935429Y-68952048D01*
X117935429Y-68952048D02*
X117971143Y-68880619D01*
X117971143Y-68880619D02*
X117971143Y-68844905D01*
X117971143Y-68844905D02*
X117935429Y-68773476D01*
X117935429Y-68773476D02*
X117864000Y-68737762D01*
X117864000Y-68737762D02*
X117756858Y-68737762D01*
X117756858Y-68737762D02*
X117685429Y-68702048D01*
X117685429Y-68702048D02*
X117649715Y-68630619D01*
X117649715Y-68630619D02*
X117649715Y-68594905D01*
X117649715Y-68594905D02*
X117685429Y-68523476D01*
X117685429Y-68523476D02*
X117756858Y-68487762D01*
X117756858Y-68487762D02*
X117864000Y-68487762D01*
X117864000Y-68487762D02*
X117935429Y-68523476D01*
X118292572Y-68987762D02*
X118292572Y-68487762D01*
X118292572Y-68237762D02*
X118256858Y-68273476D01*
X118256858Y-68273476D02*
X118292572Y-68309190D01*
X118292572Y-68309190D02*
X118328286Y-68273476D01*
X118328286Y-68273476D02*
X118292572Y-68237762D01*
X118292572Y-68237762D02*
X118292572Y-68309190D01*
X118971144Y-68487762D02*
X118971144Y-69094905D01*
X118971144Y-69094905D02*
X118935429Y-69166333D01*
X118935429Y-69166333D02*
X118899715Y-69202048D01*
X118899715Y-69202048D02*
X118828286Y-69237762D01*
X118828286Y-69237762D02*
X118721144Y-69237762D01*
X118721144Y-69237762D02*
X118649715Y-69202048D01*
X118971144Y-68952048D02*
X118899715Y-68987762D01*
X118899715Y-68987762D02*
X118756858Y-68987762D01*
X118756858Y-68987762D02*
X118685429Y-68952048D01*
X118685429Y-68952048D02*
X118649715Y-68916333D01*
X118649715Y-68916333D02*
X118614001Y-68844905D01*
X118614001Y-68844905D02*
X118614001Y-68630619D01*
X118614001Y-68630619D02*
X118649715Y-68559190D01*
X118649715Y-68559190D02*
X118685429Y-68523476D01*
X118685429Y-68523476D02*
X118756858Y-68487762D01*
X118756858Y-68487762D02*
X118899715Y-68487762D01*
X118899715Y-68487762D02*
X118971144Y-68523476D01*
X119328286Y-68487762D02*
X119328286Y-68987762D01*
X119328286Y-68559190D02*
X119364000Y-68523476D01*
X119364000Y-68523476D02*
X119435429Y-68487762D01*
X119435429Y-68487762D02*
X119542572Y-68487762D01*
X119542572Y-68487762D02*
X119614000Y-68523476D01*
X119614000Y-68523476D02*
X119649715Y-68594905D01*
X119649715Y-68594905D02*
X119649715Y-68987762D01*
X120328286Y-68987762D02*
X120328286Y-68594905D01*
X120328286Y-68594905D02*
X120292571Y-68523476D01*
X120292571Y-68523476D02*
X120221143Y-68487762D01*
X120221143Y-68487762D02*
X120078286Y-68487762D01*
X120078286Y-68487762D02*
X120006857Y-68523476D01*
X120328286Y-68952048D02*
X120256857Y-68987762D01*
X120256857Y-68987762D02*
X120078286Y-68987762D01*
X120078286Y-68987762D02*
X120006857Y-68952048D01*
X120006857Y-68952048D02*
X119971143Y-68880619D01*
X119971143Y-68880619D02*
X119971143Y-68809190D01*
X119971143Y-68809190D02*
X120006857Y-68737762D01*
X120006857Y-68737762D02*
X120078286Y-68702048D01*
X120078286Y-68702048D02*
X120256857Y-68702048D01*
X120256857Y-68702048D02*
X120328286Y-68666333D01*
X120578285Y-68487762D02*
X120863999Y-68487762D01*
X120685428Y-68237762D02*
X120685428Y-68880619D01*
X120685428Y-68880619D02*
X120721142Y-68952048D01*
X120721142Y-68952048D02*
X120792571Y-68987762D01*
X120792571Y-68987762D02*
X120863999Y-68987762D01*
X121399713Y-68952048D02*
X121328285Y-68987762D01*
X121328285Y-68987762D02*
X121185428Y-68987762D01*
X121185428Y-68987762D02*
X121113999Y-68952048D01*
X121113999Y-68952048D02*
X121078285Y-68880619D01*
X121078285Y-68880619D02*
X121078285Y-68594905D01*
X121078285Y-68594905D02*
X121113999Y-68523476D01*
X121113999Y-68523476D02*
X121185428Y-68487762D01*
X121185428Y-68487762D02*
X121328285Y-68487762D01*
X121328285Y-68487762D02*
X121399713Y-68523476D01*
X121399713Y-68523476D02*
X121435428Y-68594905D01*
X121435428Y-68594905D02*
X121435428Y-68666333D01*
X121435428Y-68666333D02*
X121078285Y-68737762D01*
X122078285Y-68987762D02*
X122078285Y-68237762D01*
X122078285Y-68952048D02*
X122006856Y-68987762D01*
X122006856Y-68987762D02*
X121863999Y-68987762D01*
X121863999Y-68987762D02*
X121792570Y-68952048D01*
X121792570Y-68952048D02*
X121756856Y-68916333D01*
X121756856Y-68916333D02*
X121721142Y-68844905D01*
X121721142Y-68844905D02*
X121721142Y-68630619D01*
X121721142Y-68630619D02*
X121756856Y-68559190D01*
X121756856Y-68559190D02*
X121792570Y-68523476D01*
X121792570Y-68523476D02*
X121863999Y-68487762D01*
X121863999Y-68487762D02*
X122006856Y-68487762D01*
X122006856Y-68487762D02*
X122078285Y-68523476D01*
X122971142Y-68952048D02*
X123042570Y-68987762D01*
X123042570Y-68987762D02*
X123185427Y-68987762D01*
X123185427Y-68987762D02*
X123256856Y-68952048D01*
X123256856Y-68952048D02*
X123292570Y-68880619D01*
X123292570Y-68880619D02*
X123292570Y-68844905D01*
X123292570Y-68844905D02*
X123256856Y-68773476D01*
X123256856Y-68773476D02*
X123185427Y-68737762D01*
X123185427Y-68737762D02*
X123078285Y-68737762D01*
X123078285Y-68737762D02*
X123006856Y-68702048D01*
X123006856Y-68702048D02*
X122971142Y-68630619D01*
X122971142Y-68630619D02*
X122971142Y-68594905D01*
X122971142Y-68594905D02*
X123006856Y-68523476D01*
X123006856Y-68523476D02*
X123078285Y-68487762D01*
X123078285Y-68487762D02*
X123185427Y-68487762D01*
X123185427Y-68487762D02*
X123256856Y-68523476D01*
X123721142Y-68987762D02*
X123649713Y-68952048D01*
X123649713Y-68952048D02*
X123613999Y-68916333D01*
X123613999Y-68916333D02*
X123578285Y-68844905D01*
X123578285Y-68844905D02*
X123578285Y-68630619D01*
X123578285Y-68630619D02*
X123613999Y-68559190D01*
X123613999Y-68559190D02*
X123649713Y-68523476D01*
X123649713Y-68523476D02*
X123721142Y-68487762D01*
X123721142Y-68487762D02*
X123828285Y-68487762D01*
X123828285Y-68487762D02*
X123899713Y-68523476D01*
X123899713Y-68523476D02*
X123935428Y-68559190D01*
X123935428Y-68559190D02*
X123971142Y-68630619D01*
X123971142Y-68630619D02*
X123971142Y-68844905D01*
X123971142Y-68844905D02*
X123935428Y-68916333D01*
X123935428Y-68916333D02*
X123899713Y-68952048D01*
X123899713Y-68952048D02*
X123828285Y-68987762D01*
X123828285Y-68987762D02*
X123721142Y-68987762D01*
X124613999Y-68952048D02*
X124542570Y-68987762D01*
X124542570Y-68987762D02*
X124399713Y-68987762D01*
X124399713Y-68987762D02*
X124328284Y-68952048D01*
X124328284Y-68952048D02*
X124292570Y-68916333D01*
X124292570Y-68916333D02*
X124256856Y-68844905D01*
X124256856Y-68844905D02*
X124256856Y-68630619D01*
X124256856Y-68630619D02*
X124292570Y-68559190D01*
X124292570Y-68559190D02*
X124328284Y-68523476D01*
X124328284Y-68523476D02*
X124399713Y-68487762D01*
X124399713Y-68487762D02*
X124542570Y-68487762D01*
X124542570Y-68487762D02*
X124613999Y-68523476D01*
X124935427Y-68987762D02*
X124935427Y-68237762D01*
X125006856Y-68702048D02*
X125221141Y-68987762D01*
X125221141Y-68487762D02*
X124935427Y-68773476D01*
X125828284Y-68952048D02*
X125756856Y-68987762D01*
X125756856Y-68987762D02*
X125613999Y-68987762D01*
X125613999Y-68987762D02*
X125542570Y-68952048D01*
X125542570Y-68952048D02*
X125506856Y-68880619D01*
X125506856Y-68880619D02*
X125506856Y-68594905D01*
X125506856Y-68594905D02*
X125542570Y-68523476D01*
X125542570Y-68523476D02*
X125613999Y-68487762D01*
X125613999Y-68487762D02*
X125756856Y-68487762D01*
X125756856Y-68487762D02*
X125828284Y-68523476D01*
X125828284Y-68523476D02*
X125863999Y-68594905D01*
X125863999Y-68594905D02*
X125863999Y-68666333D01*
X125863999Y-68666333D02*
X125506856Y-68737762D01*
X126078284Y-68487762D02*
X126363998Y-68487762D01*
X126185427Y-68237762D02*
X126185427Y-68880619D01*
X126185427Y-68880619D02*
X126221141Y-68952048D01*
X126221141Y-68952048D02*
X126292570Y-68987762D01*
X126292570Y-68987762D02*
X126363998Y-68987762D01*
X126613998Y-68916333D02*
X126649712Y-68952048D01*
X126649712Y-68952048D02*
X126613998Y-68987762D01*
X126613998Y-68987762D02*
X126578284Y-68952048D01*
X126578284Y-68952048D02*
X126613998Y-68916333D01*
X126613998Y-68916333D02*
X126613998Y-68987762D01*
X103935431Y-70652678D02*
X104399717Y-70652678D01*
X104399717Y-70652678D02*
X104149717Y-70938392D01*
X104149717Y-70938392D02*
X104256860Y-70938392D01*
X104256860Y-70938392D02*
X104328289Y-70974106D01*
X104328289Y-70974106D02*
X104364003Y-71009821D01*
X104364003Y-71009821D02*
X104399717Y-71081249D01*
X104399717Y-71081249D02*
X104399717Y-71259821D01*
X104399717Y-71259821D02*
X104364003Y-71331249D01*
X104364003Y-71331249D02*
X104328289Y-71366964D01*
X104328289Y-71366964D02*
X104256860Y-71402678D01*
X104256860Y-71402678D02*
X104042574Y-71402678D01*
X104042574Y-71402678D02*
X103971146Y-71366964D01*
X103971146Y-71366964D02*
X103935431Y-71331249D01*
X104721146Y-71331249D02*
X104756860Y-71366964D01*
X104756860Y-71366964D02*
X104721146Y-71402678D01*
X104721146Y-71402678D02*
X104685432Y-71366964D01*
X104685432Y-71366964D02*
X104721146Y-71331249D01*
X104721146Y-71331249D02*
X104721146Y-71402678D01*
X105649718Y-71402678D02*
X105649718Y-70652678D01*
X105649718Y-70652678D02*
X105935432Y-70652678D01*
X105935432Y-70652678D02*
X106006861Y-70688392D01*
X106006861Y-70688392D02*
X106042575Y-70724106D01*
X106042575Y-70724106D02*
X106078289Y-70795535D01*
X106078289Y-70795535D02*
X106078289Y-70902678D01*
X106078289Y-70902678D02*
X106042575Y-70974106D01*
X106042575Y-70974106D02*
X106006861Y-71009821D01*
X106006861Y-71009821D02*
X105935432Y-71045535D01*
X105935432Y-71045535D02*
X105649718Y-71045535D01*
X106399718Y-71402678D02*
X106399718Y-70902678D01*
X106399718Y-71045535D02*
X106435432Y-70974106D01*
X106435432Y-70974106D02*
X106471147Y-70938392D01*
X106471147Y-70938392D02*
X106542575Y-70902678D01*
X106542575Y-70902678D02*
X106614004Y-70902678D01*
X107149718Y-71366964D02*
X107078290Y-71402678D01*
X107078290Y-71402678D02*
X106935433Y-71402678D01*
X106935433Y-71402678D02*
X106864004Y-71366964D01*
X106864004Y-71366964D02*
X106828290Y-71295535D01*
X106828290Y-71295535D02*
X106828290Y-71009821D01*
X106828290Y-71009821D02*
X106864004Y-70938392D01*
X106864004Y-70938392D02*
X106935433Y-70902678D01*
X106935433Y-70902678D02*
X107078290Y-70902678D01*
X107078290Y-70902678D02*
X107149718Y-70938392D01*
X107149718Y-70938392D02*
X107185433Y-71009821D01*
X107185433Y-71009821D02*
X107185433Y-71081249D01*
X107185433Y-71081249D02*
X106828290Y-71152678D01*
X107471147Y-71366964D02*
X107542575Y-71402678D01*
X107542575Y-71402678D02*
X107685432Y-71402678D01*
X107685432Y-71402678D02*
X107756861Y-71366964D01*
X107756861Y-71366964D02*
X107792575Y-71295535D01*
X107792575Y-71295535D02*
X107792575Y-71259821D01*
X107792575Y-71259821D02*
X107756861Y-71188392D01*
X107756861Y-71188392D02*
X107685432Y-71152678D01*
X107685432Y-71152678D02*
X107578290Y-71152678D01*
X107578290Y-71152678D02*
X107506861Y-71116964D01*
X107506861Y-71116964D02*
X107471147Y-71045535D01*
X107471147Y-71045535D02*
X107471147Y-71009821D01*
X107471147Y-71009821D02*
X107506861Y-70938392D01*
X107506861Y-70938392D02*
X107578290Y-70902678D01*
X107578290Y-70902678D02*
X107685432Y-70902678D01*
X107685432Y-70902678D02*
X107756861Y-70938392D01*
X108078290Y-71366964D02*
X108149718Y-71402678D01*
X108149718Y-71402678D02*
X108292575Y-71402678D01*
X108292575Y-71402678D02*
X108364004Y-71366964D01*
X108364004Y-71366964D02*
X108399718Y-71295535D01*
X108399718Y-71295535D02*
X108399718Y-71259821D01*
X108399718Y-71259821D02*
X108364004Y-71188392D01*
X108364004Y-71188392D02*
X108292575Y-71152678D01*
X108292575Y-71152678D02*
X108185433Y-71152678D01*
X108185433Y-71152678D02*
X108114004Y-71116964D01*
X108114004Y-71116964D02*
X108078290Y-71045535D01*
X108078290Y-71045535D02*
X108078290Y-71009821D01*
X108078290Y-71009821D02*
X108114004Y-70938392D01*
X108114004Y-70938392D02*
X108185433Y-70902678D01*
X108185433Y-70902678D02*
X108292575Y-70902678D01*
X108292575Y-70902678D02*
X108364004Y-70938392D01*
X109185433Y-70902678D02*
X109471147Y-70902678D01*
X109292576Y-70652678D02*
X109292576Y-71295535D01*
X109292576Y-71295535D02*
X109328290Y-71366964D01*
X109328290Y-71366964D02*
X109399719Y-71402678D01*
X109399719Y-71402678D02*
X109471147Y-71402678D01*
X109721147Y-71402678D02*
X109721147Y-70652678D01*
X110042576Y-71402678D02*
X110042576Y-71009821D01*
X110042576Y-71009821D02*
X110006861Y-70938392D01*
X110006861Y-70938392D02*
X109935433Y-70902678D01*
X109935433Y-70902678D02*
X109828290Y-70902678D01*
X109828290Y-70902678D02*
X109756861Y-70938392D01*
X109756861Y-70938392D02*
X109721147Y-70974106D01*
X110685432Y-71366964D02*
X110614004Y-71402678D01*
X110614004Y-71402678D02*
X110471147Y-71402678D01*
X110471147Y-71402678D02*
X110399718Y-71366964D01*
X110399718Y-71366964D02*
X110364004Y-71295535D01*
X110364004Y-71295535D02*
X110364004Y-71009821D01*
X110364004Y-71009821D02*
X110399718Y-70938392D01*
X110399718Y-70938392D02*
X110471147Y-70902678D01*
X110471147Y-70902678D02*
X110614004Y-70902678D01*
X110614004Y-70902678D02*
X110685432Y-70938392D01*
X110685432Y-70938392D02*
X110721147Y-71009821D01*
X110721147Y-71009821D02*
X110721147Y-71081249D01*
X110721147Y-71081249D02*
X110364004Y-71152678D01*
X111614004Y-71402678D02*
X111614004Y-70652678D01*
X111614004Y-70938392D02*
X111685433Y-70902678D01*
X111685433Y-70902678D02*
X111828290Y-70902678D01*
X111828290Y-70902678D02*
X111899718Y-70938392D01*
X111899718Y-70938392D02*
X111935433Y-70974106D01*
X111935433Y-70974106D02*
X111971147Y-71045535D01*
X111971147Y-71045535D02*
X111971147Y-71259821D01*
X111971147Y-71259821D02*
X111935433Y-71331249D01*
X111935433Y-71331249D02*
X111899718Y-71366964D01*
X111899718Y-71366964D02*
X111828290Y-71402678D01*
X111828290Y-71402678D02*
X111685433Y-71402678D01*
X111685433Y-71402678D02*
X111614004Y-71366964D01*
X112614004Y-70902678D02*
X112614004Y-71402678D01*
X112292575Y-70902678D02*
X112292575Y-71295535D01*
X112292575Y-71295535D02*
X112328289Y-71366964D01*
X112328289Y-71366964D02*
X112399718Y-71402678D01*
X112399718Y-71402678D02*
X112506861Y-71402678D01*
X112506861Y-71402678D02*
X112578289Y-71366964D01*
X112578289Y-71366964D02*
X112614004Y-71331249D01*
X112864003Y-70902678D02*
X113149717Y-70902678D01*
X112971146Y-70652678D02*
X112971146Y-71295535D01*
X112971146Y-71295535D02*
X113006860Y-71366964D01*
X113006860Y-71366964D02*
X113078289Y-71402678D01*
X113078289Y-71402678D02*
X113149717Y-71402678D01*
X113292574Y-70902678D02*
X113578288Y-70902678D01*
X113399717Y-70652678D02*
X113399717Y-71295535D01*
X113399717Y-71295535D02*
X113435431Y-71366964D01*
X113435431Y-71366964D02*
X113506860Y-71402678D01*
X113506860Y-71402678D02*
X113578288Y-71402678D01*
X113935431Y-71402678D02*
X113864002Y-71366964D01*
X113864002Y-71366964D02*
X113828288Y-71331249D01*
X113828288Y-71331249D02*
X113792574Y-71259821D01*
X113792574Y-71259821D02*
X113792574Y-71045535D01*
X113792574Y-71045535D02*
X113828288Y-70974106D01*
X113828288Y-70974106D02*
X113864002Y-70938392D01*
X113864002Y-70938392D02*
X113935431Y-70902678D01*
X113935431Y-70902678D02*
X114042574Y-70902678D01*
X114042574Y-70902678D02*
X114114002Y-70938392D01*
X114114002Y-70938392D02*
X114149717Y-70974106D01*
X114149717Y-70974106D02*
X114185431Y-71045535D01*
X114185431Y-71045535D02*
X114185431Y-71259821D01*
X114185431Y-71259821D02*
X114149717Y-71331249D01*
X114149717Y-71331249D02*
X114114002Y-71366964D01*
X114114002Y-71366964D02*
X114042574Y-71402678D01*
X114042574Y-71402678D02*
X113935431Y-71402678D01*
X114506859Y-70902678D02*
X114506859Y-71402678D01*
X114506859Y-70974106D02*
X114542573Y-70938392D01*
X114542573Y-70938392D02*
X114614002Y-70902678D01*
X114614002Y-70902678D02*
X114721145Y-70902678D01*
X114721145Y-70902678D02*
X114792573Y-70938392D01*
X114792573Y-70938392D02*
X114828288Y-71009821D01*
X114828288Y-71009821D02*
X114828288Y-71402678D01*
X116078288Y-71402678D02*
X116078288Y-71009821D01*
X116078288Y-71009821D02*
X116042573Y-70938392D01*
X116042573Y-70938392D02*
X115971145Y-70902678D01*
X115971145Y-70902678D02*
X115828288Y-70902678D01*
X115828288Y-70902678D02*
X115756859Y-70938392D01*
X116078288Y-71366964D02*
X116006859Y-71402678D01*
X116006859Y-71402678D02*
X115828288Y-71402678D01*
X115828288Y-71402678D02*
X115756859Y-71366964D01*
X115756859Y-71366964D02*
X115721145Y-71295535D01*
X115721145Y-71295535D02*
X115721145Y-71224106D01*
X115721145Y-71224106D02*
X115756859Y-71152678D01*
X115756859Y-71152678D02*
X115828288Y-71116964D01*
X115828288Y-71116964D02*
X116006859Y-71116964D01*
X116006859Y-71116964D02*
X116078288Y-71081249D01*
X116399716Y-71366964D02*
X116471144Y-71402678D01*
X116471144Y-71402678D02*
X116614001Y-71402678D01*
X116614001Y-71402678D02*
X116685430Y-71366964D01*
X116685430Y-71366964D02*
X116721144Y-71295535D01*
X116721144Y-71295535D02*
X116721144Y-71259821D01*
X116721144Y-71259821D02*
X116685430Y-71188392D01*
X116685430Y-71188392D02*
X116614001Y-71152678D01*
X116614001Y-71152678D02*
X116506859Y-71152678D01*
X116506859Y-71152678D02*
X116435430Y-71116964D01*
X116435430Y-71116964D02*
X116399716Y-71045535D01*
X116399716Y-71045535D02*
X116399716Y-71009821D01*
X116399716Y-71009821D02*
X116435430Y-70938392D01*
X116435430Y-70938392D02*
X116506859Y-70902678D01*
X116506859Y-70902678D02*
X116614001Y-70902678D01*
X116614001Y-70902678D02*
X116685430Y-70938392D01*
X117006859Y-71366964D02*
X117078287Y-71402678D01*
X117078287Y-71402678D02*
X117221144Y-71402678D01*
X117221144Y-71402678D02*
X117292573Y-71366964D01*
X117292573Y-71366964D02*
X117328287Y-71295535D01*
X117328287Y-71295535D02*
X117328287Y-71259821D01*
X117328287Y-71259821D02*
X117292573Y-71188392D01*
X117292573Y-71188392D02*
X117221144Y-71152678D01*
X117221144Y-71152678D02*
X117114002Y-71152678D01*
X117114002Y-71152678D02*
X117042573Y-71116964D01*
X117042573Y-71116964D02*
X117006859Y-71045535D01*
X117006859Y-71045535D02*
X117006859Y-71009821D01*
X117006859Y-71009821D02*
X117042573Y-70938392D01*
X117042573Y-70938392D02*
X117114002Y-70902678D01*
X117114002Y-70902678D02*
X117221144Y-70902678D01*
X117221144Y-70902678D02*
X117292573Y-70938392D01*
X117756859Y-71402678D02*
X117685430Y-71366964D01*
X117685430Y-71366964D02*
X117649716Y-71331249D01*
X117649716Y-71331249D02*
X117614002Y-71259821D01*
X117614002Y-71259821D02*
X117614002Y-71045535D01*
X117614002Y-71045535D02*
X117649716Y-70974106D01*
X117649716Y-70974106D02*
X117685430Y-70938392D01*
X117685430Y-70938392D02*
X117756859Y-70902678D01*
X117756859Y-70902678D02*
X117864002Y-70902678D01*
X117864002Y-70902678D02*
X117935430Y-70938392D01*
X117935430Y-70938392D02*
X117971145Y-70974106D01*
X117971145Y-70974106D02*
X118006859Y-71045535D01*
X118006859Y-71045535D02*
X118006859Y-71259821D01*
X118006859Y-71259821D02*
X117971145Y-71331249D01*
X117971145Y-71331249D02*
X117935430Y-71366964D01*
X117935430Y-71366964D02*
X117864002Y-71402678D01*
X117864002Y-71402678D02*
X117756859Y-71402678D01*
X118649716Y-71366964D02*
X118578287Y-71402678D01*
X118578287Y-71402678D02*
X118435430Y-71402678D01*
X118435430Y-71402678D02*
X118364001Y-71366964D01*
X118364001Y-71366964D02*
X118328287Y-71331249D01*
X118328287Y-71331249D02*
X118292573Y-71259821D01*
X118292573Y-71259821D02*
X118292573Y-71045535D01*
X118292573Y-71045535D02*
X118328287Y-70974106D01*
X118328287Y-70974106D02*
X118364001Y-70938392D01*
X118364001Y-70938392D02*
X118435430Y-70902678D01*
X118435430Y-70902678D02*
X118578287Y-70902678D01*
X118578287Y-70902678D02*
X118649716Y-70938392D01*
X118971144Y-71402678D02*
X118971144Y-70902678D01*
X118971144Y-70652678D02*
X118935430Y-70688392D01*
X118935430Y-70688392D02*
X118971144Y-70724106D01*
X118971144Y-70724106D02*
X119006858Y-70688392D01*
X119006858Y-70688392D02*
X118971144Y-70652678D01*
X118971144Y-70652678D02*
X118971144Y-70724106D01*
X119649716Y-71402678D02*
X119649716Y-71009821D01*
X119649716Y-71009821D02*
X119614001Y-70938392D01*
X119614001Y-70938392D02*
X119542573Y-70902678D01*
X119542573Y-70902678D02*
X119399716Y-70902678D01*
X119399716Y-70902678D02*
X119328287Y-70938392D01*
X119649716Y-71366964D02*
X119578287Y-71402678D01*
X119578287Y-71402678D02*
X119399716Y-71402678D01*
X119399716Y-71402678D02*
X119328287Y-71366964D01*
X119328287Y-71366964D02*
X119292573Y-71295535D01*
X119292573Y-71295535D02*
X119292573Y-71224106D01*
X119292573Y-71224106D02*
X119328287Y-71152678D01*
X119328287Y-71152678D02*
X119399716Y-71116964D01*
X119399716Y-71116964D02*
X119578287Y-71116964D01*
X119578287Y-71116964D02*
X119649716Y-71081249D01*
X119899715Y-70902678D02*
X120185429Y-70902678D01*
X120006858Y-70652678D02*
X120006858Y-71295535D01*
X120006858Y-71295535D02*
X120042572Y-71366964D01*
X120042572Y-71366964D02*
X120114001Y-71402678D01*
X120114001Y-71402678D02*
X120185429Y-71402678D01*
X120721143Y-71366964D02*
X120649715Y-71402678D01*
X120649715Y-71402678D02*
X120506858Y-71402678D01*
X120506858Y-71402678D02*
X120435429Y-71366964D01*
X120435429Y-71366964D02*
X120399715Y-71295535D01*
X120399715Y-71295535D02*
X120399715Y-71009821D01*
X120399715Y-71009821D02*
X120435429Y-70938392D01*
X120435429Y-70938392D02*
X120506858Y-70902678D01*
X120506858Y-70902678D02*
X120649715Y-70902678D01*
X120649715Y-70902678D02*
X120721143Y-70938392D01*
X120721143Y-70938392D02*
X120756858Y-71009821D01*
X120756858Y-71009821D02*
X120756858Y-71081249D01*
X120756858Y-71081249D02*
X120399715Y-71152678D01*
X121399715Y-71402678D02*
X121399715Y-70652678D01*
X121399715Y-71366964D02*
X121328286Y-71402678D01*
X121328286Y-71402678D02*
X121185429Y-71402678D01*
X121185429Y-71402678D02*
X121114000Y-71366964D01*
X121114000Y-71366964D02*
X121078286Y-71331249D01*
X121078286Y-71331249D02*
X121042572Y-71259821D01*
X121042572Y-71259821D02*
X121042572Y-71045535D01*
X121042572Y-71045535D02*
X121078286Y-70974106D01*
X121078286Y-70974106D02*
X121114000Y-70938392D01*
X121114000Y-70938392D02*
X121185429Y-70902678D01*
X121185429Y-70902678D02*
X121328286Y-70902678D01*
X121328286Y-70902678D02*
X121399715Y-70938392D01*
X122256857Y-70902678D02*
X122399715Y-71402678D01*
X122399715Y-71402678D02*
X122542572Y-71045535D01*
X122542572Y-71045535D02*
X122685429Y-71402678D01*
X122685429Y-71402678D02*
X122828286Y-70902678D01*
X123114000Y-71402678D02*
X123114000Y-70902678D01*
X123114000Y-70652678D02*
X123078286Y-70688392D01*
X123078286Y-70688392D02*
X123114000Y-70724106D01*
X123114000Y-70724106D02*
X123149714Y-70688392D01*
X123149714Y-70688392D02*
X123114000Y-70652678D01*
X123114000Y-70652678D02*
X123114000Y-70724106D01*
X123364000Y-70902678D02*
X123649714Y-70902678D01*
X123471143Y-70652678D02*
X123471143Y-71295535D01*
X123471143Y-71295535D02*
X123506857Y-71366964D01*
X123506857Y-71366964D02*
X123578286Y-71402678D01*
X123578286Y-71402678D02*
X123649714Y-71402678D01*
X123899714Y-71402678D02*
X123899714Y-70652678D01*
X124221143Y-71402678D02*
X124221143Y-71009821D01*
X124221143Y-71009821D02*
X124185428Y-70938392D01*
X124185428Y-70938392D02*
X124114000Y-70902678D01*
X124114000Y-70902678D02*
X124006857Y-70902678D01*
X124006857Y-70902678D02*
X123935428Y-70938392D01*
X123935428Y-70938392D02*
X123899714Y-70974106D01*
X103935431Y-72110136D02*
X104114003Y-72610136D01*
X104292574Y-72110136D02*
X104114003Y-72610136D01*
X104114003Y-72610136D02*
X104042574Y-72788707D01*
X104042574Y-72788707D02*
X104006860Y-72824422D01*
X104006860Y-72824422D02*
X103935431Y-72860136D01*
X104685432Y-72610136D02*
X104614003Y-72574422D01*
X104614003Y-72574422D02*
X104578289Y-72538707D01*
X104578289Y-72538707D02*
X104542575Y-72467279D01*
X104542575Y-72467279D02*
X104542575Y-72252993D01*
X104542575Y-72252993D02*
X104578289Y-72181564D01*
X104578289Y-72181564D02*
X104614003Y-72145850D01*
X104614003Y-72145850D02*
X104685432Y-72110136D01*
X104685432Y-72110136D02*
X104792575Y-72110136D01*
X104792575Y-72110136D02*
X104864003Y-72145850D01*
X104864003Y-72145850D02*
X104899718Y-72181564D01*
X104899718Y-72181564D02*
X104935432Y-72252993D01*
X104935432Y-72252993D02*
X104935432Y-72467279D01*
X104935432Y-72467279D02*
X104899718Y-72538707D01*
X104899718Y-72538707D02*
X104864003Y-72574422D01*
X104864003Y-72574422D02*
X104792575Y-72610136D01*
X104792575Y-72610136D02*
X104685432Y-72610136D01*
X105578289Y-72110136D02*
X105578289Y-72610136D01*
X105256860Y-72110136D02*
X105256860Y-72502993D01*
X105256860Y-72502993D02*
X105292574Y-72574422D01*
X105292574Y-72574422D02*
X105364003Y-72610136D01*
X105364003Y-72610136D02*
X105471146Y-72610136D01*
X105471146Y-72610136D02*
X105542574Y-72574422D01*
X105542574Y-72574422D02*
X105578289Y-72538707D01*
X105935431Y-72610136D02*
X105935431Y-72110136D01*
X105935431Y-72252993D02*
X105971145Y-72181564D01*
X105971145Y-72181564D02*
X106006860Y-72145850D01*
X106006860Y-72145850D02*
X106078288Y-72110136D01*
X106078288Y-72110136D02*
X106149717Y-72110136D01*
X106864003Y-72110136D02*
X107149717Y-72110136D01*
X106971146Y-71860136D02*
X106971146Y-72502993D01*
X106971146Y-72502993D02*
X107006860Y-72574422D01*
X107006860Y-72574422D02*
X107078289Y-72610136D01*
X107078289Y-72610136D02*
X107149717Y-72610136D01*
X107399717Y-72610136D02*
X107399717Y-72110136D01*
X107399717Y-72252993D02*
X107435431Y-72181564D01*
X107435431Y-72181564D02*
X107471146Y-72145850D01*
X107471146Y-72145850D02*
X107542574Y-72110136D01*
X107542574Y-72110136D02*
X107614003Y-72110136D01*
X108185432Y-72610136D02*
X108185432Y-72217279D01*
X108185432Y-72217279D02*
X108149717Y-72145850D01*
X108149717Y-72145850D02*
X108078289Y-72110136D01*
X108078289Y-72110136D02*
X107935432Y-72110136D01*
X107935432Y-72110136D02*
X107864003Y-72145850D01*
X108185432Y-72574422D02*
X108114003Y-72610136D01*
X108114003Y-72610136D02*
X107935432Y-72610136D01*
X107935432Y-72610136D02*
X107864003Y-72574422D01*
X107864003Y-72574422D02*
X107828289Y-72502993D01*
X107828289Y-72502993D02*
X107828289Y-72431564D01*
X107828289Y-72431564D02*
X107864003Y-72360136D01*
X107864003Y-72360136D02*
X107935432Y-72324422D01*
X107935432Y-72324422D02*
X108114003Y-72324422D01*
X108114003Y-72324422D02*
X108185432Y-72288707D01*
X108542574Y-72110136D02*
X108542574Y-72610136D01*
X108542574Y-72181564D02*
X108578288Y-72145850D01*
X108578288Y-72145850D02*
X108649717Y-72110136D01*
X108649717Y-72110136D02*
X108756860Y-72110136D01*
X108756860Y-72110136D02*
X108828288Y-72145850D01*
X108828288Y-72145850D02*
X108864003Y-72217279D01*
X108864003Y-72217279D02*
X108864003Y-72610136D01*
X109185431Y-72574422D02*
X109256859Y-72610136D01*
X109256859Y-72610136D02*
X109399716Y-72610136D01*
X109399716Y-72610136D02*
X109471145Y-72574422D01*
X109471145Y-72574422D02*
X109506859Y-72502993D01*
X109506859Y-72502993D02*
X109506859Y-72467279D01*
X109506859Y-72467279D02*
X109471145Y-72395850D01*
X109471145Y-72395850D02*
X109399716Y-72360136D01*
X109399716Y-72360136D02*
X109292574Y-72360136D01*
X109292574Y-72360136D02*
X109221145Y-72324422D01*
X109221145Y-72324422D02*
X109185431Y-72252993D01*
X109185431Y-72252993D02*
X109185431Y-72217279D01*
X109185431Y-72217279D02*
X109221145Y-72145850D01*
X109221145Y-72145850D02*
X109292574Y-72110136D01*
X109292574Y-72110136D02*
X109399716Y-72110136D01*
X109399716Y-72110136D02*
X109471145Y-72145850D01*
X109828288Y-72610136D02*
X109828288Y-72110136D01*
X109828288Y-71860136D02*
X109792574Y-71895850D01*
X109792574Y-71895850D02*
X109828288Y-71931564D01*
X109828288Y-71931564D02*
X109864002Y-71895850D01*
X109864002Y-71895850D02*
X109828288Y-71860136D01*
X109828288Y-71860136D02*
X109828288Y-71931564D01*
X110149717Y-72574422D02*
X110221145Y-72610136D01*
X110221145Y-72610136D02*
X110364002Y-72610136D01*
X110364002Y-72610136D02*
X110435431Y-72574422D01*
X110435431Y-72574422D02*
X110471145Y-72502993D01*
X110471145Y-72502993D02*
X110471145Y-72467279D01*
X110471145Y-72467279D02*
X110435431Y-72395850D01*
X110435431Y-72395850D02*
X110364002Y-72360136D01*
X110364002Y-72360136D02*
X110256860Y-72360136D01*
X110256860Y-72360136D02*
X110185431Y-72324422D01*
X110185431Y-72324422D02*
X110149717Y-72252993D01*
X110149717Y-72252993D02*
X110149717Y-72217279D01*
X110149717Y-72217279D02*
X110185431Y-72145850D01*
X110185431Y-72145850D02*
X110256860Y-72110136D01*
X110256860Y-72110136D02*
X110364002Y-72110136D01*
X110364002Y-72110136D02*
X110435431Y-72145850D01*
X110685431Y-72110136D02*
X110971145Y-72110136D01*
X110792574Y-71860136D02*
X110792574Y-72502993D01*
X110792574Y-72502993D02*
X110828288Y-72574422D01*
X110828288Y-72574422D02*
X110899717Y-72610136D01*
X110899717Y-72610136D02*
X110971145Y-72610136D01*
X111328288Y-72610136D02*
X111256859Y-72574422D01*
X111256859Y-72574422D02*
X111221145Y-72538707D01*
X111221145Y-72538707D02*
X111185431Y-72467279D01*
X111185431Y-72467279D02*
X111185431Y-72252993D01*
X111185431Y-72252993D02*
X111221145Y-72181564D01*
X111221145Y-72181564D02*
X111256859Y-72145850D01*
X111256859Y-72145850D02*
X111328288Y-72110136D01*
X111328288Y-72110136D02*
X111435431Y-72110136D01*
X111435431Y-72110136D02*
X111506859Y-72145850D01*
X111506859Y-72145850D02*
X111542574Y-72181564D01*
X111542574Y-72181564D02*
X111578288Y-72252993D01*
X111578288Y-72252993D02*
X111578288Y-72467279D01*
X111578288Y-72467279D02*
X111542574Y-72538707D01*
X111542574Y-72538707D02*
X111506859Y-72574422D01*
X111506859Y-72574422D02*
X111435431Y-72610136D01*
X111435431Y-72610136D02*
X111328288Y-72610136D01*
X111899716Y-72610136D02*
X111899716Y-72110136D01*
X111899716Y-72252993D02*
X111935430Y-72181564D01*
X111935430Y-72181564D02*
X111971145Y-72145850D01*
X111971145Y-72145850D02*
X112042573Y-72110136D01*
X112042573Y-72110136D02*
X112114002Y-72110136D01*
X112364002Y-72538707D02*
X112399716Y-72574422D01*
X112399716Y-72574422D02*
X112364002Y-72610136D01*
X112364002Y-72610136D02*
X112328288Y-72574422D01*
X112328288Y-72574422D02*
X112364002Y-72538707D01*
X112364002Y-72538707D02*
X112364002Y-72610136D01*
X103200000Y-60400000D02*
X127800000Y-60400000D01*
X127800000Y-78600000D01*
X103200000Y-78600000D01*
X103200000Y-60400000D01*
D13*
%TO.C,J4*%
X117355000Y-80075000D02*
X117355000Y-84716000D01*
X117355000Y-80075000D02*
X127595000Y-80075000D01*
X117355000Y-81585000D02*
X127595000Y-81585000D01*
X117355000Y-84716000D02*
X127595000Y-84716000D01*
X120625000Y-80075000D02*
X120625000Y-81585000D01*
X124326000Y-80075000D02*
X124326000Y-81585000D01*
X127595000Y-80075000D02*
X127595000Y-84716000D01*
%TO.C,R1*%
X140755000Y-97745000D02*
X140755000Y-104285000D01*
X140755000Y-104285000D02*
X143495000Y-104285000D01*
X142125000Y-96975000D02*
X142125000Y-97745000D01*
X142125000Y-105055000D02*
X142125000Y-104285000D01*
X143495000Y-97745000D02*
X140755000Y-97745000D01*
X143495000Y-104285000D02*
X143495000Y-97745000D01*
%TO.C,J1*%
X128715000Y-64955000D02*
X128715000Y-72995000D01*
X128715000Y-64955000D02*
X139455000Y-64955000D01*
X128715000Y-68575000D02*
X129955000Y-68575000D01*
X128715000Y-69575000D02*
X129955000Y-69575000D01*
X128715000Y-70875000D02*
X129955000Y-70875000D01*
X128715000Y-72995000D02*
X131535000Y-72995000D01*
X132135000Y-72995000D02*
X139455000Y-72995000D01*
X133715000Y-68575000D02*
X135023000Y-68575000D01*
X133715000Y-69575000D02*
X135023000Y-69575000D01*
X133715000Y-70875000D02*
X136292000Y-70875000D01*
X135391000Y-70279000D02*
X135348000Y-70322000D01*
X135630000Y-70518000D02*
X135587000Y-70561000D01*
X137378000Y-70875000D02*
X139455000Y-70875000D01*
X138082000Y-67589000D02*
X138039000Y-67632000D01*
X138322000Y-67828000D02*
X138279000Y-67871000D01*
X138647000Y-68575000D02*
X139455000Y-68575000D01*
X138647000Y-69575000D02*
X139455000Y-69575000D01*
X139455000Y-64955000D02*
X139455000Y-72995000D01*
X129955000Y-69629000D02*
G75*
G02*
X129955139Y-68520528I1879990J554000D01*
G01*
X131281000Y-67195000D02*
G75*
G02*
X132389472Y-67195139I554000J-1880000D01*
G01*
X132389000Y-70955000D02*
G75*
G02*
X131280528Y-70954861I-554000J1879990D01*
G01*
X133715000Y-68521000D02*
G75*
G02*
X133714861Y-69629472I-1880000J-554000D01*
G01*
X138795000Y-69075000D02*
G75*
G02*
X134875000Y-69075000I-1960000J0D01*
G01*
X134875000Y-69075000D02*
G75*
G02*
X138795000Y-69075000I1960000J0D01*
G01*
X132275000Y-73605000D02*
X131395000Y-73605000D01*
X131835000Y-72995000D01*
X132275000Y-73605000D01*
G36*
X132275000Y-73605000D02*
G01*
X131395000Y-73605000D01*
X131835000Y-72995000D01*
X132275000Y-73605000D01*
G37*
%TO.C,R4*%
X150805000Y-97775000D02*
X150805000Y-104315000D01*
X150805000Y-104315000D02*
X153545000Y-104315000D01*
X152175000Y-97005000D02*
X152175000Y-97775000D01*
X152175000Y-105085000D02*
X152175000Y-104315000D01*
X153545000Y-97775000D02*
X150805000Y-97775000D01*
X153545000Y-104315000D02*
X153545000Y-97775000D01*
%TO.C,J3*%
X140755000Y-80115000D02*
X140755000Y-84756000D01*
X140755000Y-80115000D02*
X150995000Y-80115000D01*
X140755000Y-81625000D02*
X150995000Y-81625000D01*
X140755000Y-84756000D02*
X150995000Y-84756000D01*
X144025000Y-80115000D02*
X144025000Y-81625000D01*
X147726000Y-80115000D02*
X147726000Y-81625000D01*
X150995000Y-80115000D02*
X150995000Y-84756000D01*
%TO.C,D1*%
X103955000Y-98295000D02*
X103955000Y-103735000D01*
X103955000Y-103735000D02*
X106895000Y-103735000D01*
X105425000Y-97075000D02*
X105425000Y-98295000D01*
X105425000Y-104955000D02*
X105425000Y-103735000D01*
X106895000Y-98295000D02*
X103955000Y-98295000D01*
X106895000Y-99075000D02*
X103955000Y-99075000D01*
X106895000Y-99195000D02*
X103955000Y-99195000D01*
X106895000Y-99315000D02*
X103955000Y-99315000D01*
X106895000Y-103735000D02*
X106895000Y-98295000D01*
%TO.C,J2*%
X103755000Y-80155000D02*
X103755000Y-84796000D01*
X103755000Y-80155000D02*
X113995000Y-80155000D01*
X103755000Y-81665000D02*
X113995000Y-81665000D01*
X103755000Y-84796000D02*
X113995000Y-84796000D01*
X107025000Y-80155000D02*
X107025000Y-81665000D01*
X110726000Y-80155000D02*
X110726000Y-81665000D01*
X113995000Y-80155000D02*
X113995000Y-84796000D01*
%TO.C,D3*%
X113835000Y-138899000D02*
X113835000Y-139055000D01*
X113835000Y-141215000D02*
X113835000Y-141371000D01*
X113835000Y-138899484D02*
G75*
G02*
X117066397Y-139054939I1560000J-1235516D01*
G01*
X114354039Y-139055000D02*
G75*
G02*
X116435910Y-139054951I1040961J-1080000D01*
G01*
X116435910Y-141215049D02*
G75*
G02*
X114354039Y-141215000I-1040910J1080049D01*
G01*
X117066397Y-141215061D02*
G75*
G02*
X113835000Y-141370516I-1671397J1080061D01*
G01*
%TO.C,D2*%
X160505000Y-98115000D02*
X160505000Y-103555000D01*
X160505000Y-102535000D02*
X163445000Y-102535000D01*
X160505000Y-102655000D02*
X163445000Y-102655000D01*
X160505000Y-102775000D02*
X163445000Y-102775000D01*
X160505000Y-103555000D02*
X163445000Y-103555000D01*
X161975000Y-96895000D02*
X161975000Y-98115000D01*
X161975000Y-104775000D02*
X161975000Y-103555000D01*
X163445000Y-98115000D02*
X160505000Y-98115000D01*
X163445000Y-103555000D02*
X163445000Y-98115000D01*
%TO.C,R3*%
X124755000Y-97575000D02*
X124755000Y-104115000D01*
X124755000Y-104115000D02*
X127495000Y-104115000D01*
X126125000Y-96805000D02*
X126125000Y-97575000D01*
X126125000Y-104885000D02*
X126125000Y-104115000D01*
X127495000Y-97575000D02*
X124755000Y-97575000D01*
X127495000Y-104115000D02*
X127495000Y-97575000D01*
%TO.C,R2*%
X114355000Y-97535000D02*
X114355000Y-104075000D01*
X114355000Y-104075000D02*
X117095000Y-104075000D01*
X115725000Y-96765000D02*
X115725000Y-97535000D01*
X115725000Y-104845000D02*
X115725000Y-104075000D01*
X117095000Y-97535000D02*
X114355000Y-97535000D01*
X117095000Y-104075000D02*
X117095000Y-97535000D01*
%TO.C,D4*%
X150635000Y-138969000D02*
X150635000Y-139125000D01*
X150635000Y-141285000D02*
X150635000Y-141441000D01*
X150635000Y-138969484D02*
G75*
G02*
X153866397Y-139124939I1560000J-1235516D01*
G01*
X151154039Y-139125000D02*
G75*
G02*
X153235910Y-139124951I1040961J-1080000D01*
G01*
X153235910Y-141285049D02*
G75*
G02*
X151154039Y-141285000I-1040910J1080049D01*
G01*
X153866397Y-141285061D02*
G75*
G02*
X150635000Y-141440516I-1671397J1080061D01*
G01*
%TO.C,J5*%
X153355000Y-80115000D02*
X153355000Y-84756000D01*
X153355000Y-80115000D02*
X163595000Y-80115000D01*
X153355000Y-81625000D02*
X163595000Y-81625000D01*
X153355000Y-84756000D02*
X163595000Y-84756000D01*
X156625000Y-80115000D02*
X156625000Y-81625000D01*
X160326000Y-80115000D02*
X160326000Y-81625000D01*
X163595000Y-80115000D02*
X163595000Y-84756000D01*
%TD*%
M02*
