%TF.GenerationSoftware,KiCad,Pcbnew,9.0.1*%
%TF.CreationDate,2025-04-11T19:14:05-04:00*%
%TF.ProjectId,transistor-tester,7472616e-7369-4737-946f-722d74657374,rev?*%
%TF.SameCoordinates,Original*%
%TF.FileFunction,Legend,Bot*%
%TF.FilePolarity,Positive*%
%FSLAX46Y46*%
G04 Gerber Fmt 4.6, Leading zero omitted, Abs format (unit mm)*
G04 Created by KiCad (PCBNEW 9.0.1) date 2025-04-11 19:14:05*
%MOMM*%
%LPD*%
G01*
G04 APERTURE LIST*
%ADD10C,0.150000*%
G04 APERTURE END LIST*
D10*
X141949819Y-100981666D02*
X141473628Y-101314999D01*
X141949819Y-101553094D02*
X140949819Y-101553094D01*
X140949819Y-101553094D02*
X140949819Y-101172142D01*
X140949819Y-101172142D02*
X140997438Y-101076904D01*
X140997438Y-101076904D02*
X141045057Y-101029285D01*
X141045057Y-101029285D02*
X141140295Y-100981666D01*
X141140295Y-100981666D02*
X141283152Y-100981666D01*
X141283152Y-100981666D02*
X141378390Y-101029285D01*
X141378390Y-101029285D02*
X141426009Y-101076904D01*
X141426009Y-101076904D02*
X141473628Y-101172142D01*
X141473628Y-101172142D02*
X141473628Y-101553094D01*
X141949819Y-100029285D02*
X141949819Y-100600713D01*
X141949819Y-100314999D02*
X140949819Y-100314999D01*
X140949819Y-100314999D02*
X141092676Y-100410237D01*
X141092676Y-100410237D02*
X141187914Y-100505475D01*
X141187914Y-100505475D02*
X141235533Y-100600713D01*
X142505057Y-102053094D02*
X142457438Y-102005475D01*
X142457438Y-102005475D02*
X142409819Y-101910237D01*
X142409819Y-101910237D02*
X142409819Y-101672142D01*
X142409819Y-101672142D02*
X142457438Y-101576904D01*
X142457438Y-101576904D02*
X142505057Y-101529285D01*
X142505057Y-101529285D02*
X142600295Y-101481666D01*
X142600295Y-101481666D02*
X142695533Y-101481666D01*
X142695533Y-101481666D02*
X142838390Y-101529285D01*
X142838390Y-101529285D02*
X143409819Y-102100713D01*
X143409819Y-102100713D02*
X143409819Y-101481666D01*
X142409819Y-101148332D02*
X142409819Y-100481666D01*
X142409819Y-100481666D02*
X143409819Y-100910237D01*
X142409819Y-99910237D02*
X142409819Y-99814999D01*
X142409819Y-99814999D02*
X142457438Y-99719761D01*
X142457438Y-99719761D02*
X142505057Y-99672142D01*
X142505057Y-99672142D02*
X142600295Y-99624523D01*
X142600295Y-99624523D02*
X142790771Y-99576904D01*
X142790771Y-99576904D02*
X143028866Y-99576904D01*
X143028866Y-99576904D02*
X143219342Y-99624523D01*
X143219342Y-99624523D02*
X143314580Y-99672142D01*
X143314580Y-99672142D02*
X143362200Y-99719761D01*
X143362200Y-99719761D02*
X143409819Y-99814999D01*
X143409819Y-99814999D02*
X143409819Y-99910237D01*
X143409819Y-99910237D02*
X143362200Y-100005475D01*
X143362200Y-100005475D02*
X143314580Y-100053094D01*
X143314580Y-100053094D02*
X143219342Y-100100713D01*
X143219342Y-100100713D02*
X143028866Y-100148332D01*
X143028866Y-100148332D02*
X142790771Y-100148332D01*
X142790771Y-100148332D02*
X142600295Y-100100713D01*
X142600295Y-100100713D02*
X142505057Y-100053094D01*
X142505057Y-100053094D02*
X142457438Y-100005475D01*
X142457438Y-100005475D02*
X142409819Y-99910237D01*
X151859819Y-101211666D02*
X151383628Y-101544999D01*
X151859819Y-101783094D02*
X150859819Y-101783094D01*
X150859819Y-101783094D02*
X150859819Y-101402142D01*
X150859819Y-101402142D02*
X150907438Y-101306904D01*
X150907438Y-101306904D02*
X150955057Y-101259285D01*
X150955057Y-101259285D02*
X151050295Y-101211666D01*
X151050295Y-101211666D02*
X151193152Y-101211666D01*
X151193152Y-101211666D02*
X151288390Y-101259285D01*
X151288390Y-101259285D02*
X151336009Y-101306904D01*
X151336009Y-101306904D02*
X151383628Y-101402142D01*
X151383628Y-101402142D02*
X151383628Y-101783094D01*
X151193152Y-100354523D02*
X151859819Y-100354523D01*
X150812200Y-100592618D02*
X151526485Y-100830713D01*
X151526485Y-100830713D02*
X151526485Y-100211666D01*
X152399819Y-102330713D02*
X152399819Y-101711666D01*
X152399819Y-101711666D02*
X152780771Y-102044999D01*
X152780771Y-102044999D02*
X152780771Y-101902142D01*
X152780771Y-101902142D02*
X152828390Y-101806904D01*
X152828390Y-101806904D02*
X152876009Y-101759285D01*
X152876009Y-101759285D02*
X152971247Y-101711666D01*
X152971247Y-101711666D02*
X153209342Y-101711666D01*
X153209342Y-101711666D02*
X153304580Y-101759285D01*
X153304580Y-101759285D02*
X153352200Y-101806904D01*
X153352200Y-101806904D02*
X153399819Y-101902142D01*
X153399819Y-101902142D02*
X153399819Y-102187856D01*
X153399819Y-102187856D02*
X153352200Y-102283094D01*
X153352200Y-102283094D02*
X153304580Y-102330713D01*
X152399819Y-101378332D02*
X152399819Y-100759285D01*
X152399819Y-100759285D02*
X152780771Y-101092618D01*
X152780771Y-101092618D02*
X152780771Y-100949761D01*
X152780771Y-100949761D02*
X152828390Y-100854523D01*
X152828390Y-100854523D02*
X152876009Y-100806904D01*
X152876009Y-100806904D02*
X152971247Y-100759285D01*
X152971247Y-100759285D02*
X153209342Y-100759285D01*
X153209342Y-100759285D02*
X153304580Y-100806904D01*
X153304580Y-100806904D02*
X153352200Y-100854523D01*
X153352200Y-100854523D02*
X153399819Y-100949761D01*
X153399819Y-100949761D02*
X153399819Y-101235475D01*
X153399819Y-101235475D02*
X153352200Y-101330713D01*
X153352200Y-101330713D02*
X153304580Y-101378332D01*
X152399819Y-100140237D02*
X152399819Y-100044999D01*
X152399819Y-100044999D02*
X152447438Y-99949761D01*
X152447438Y-99949761D02*
X152495057Y-99902142D01*
X152495057Y-99902142D02*
X152590295Y-99854523D01*
X152590295Y-99854523D02*
X152780771Y-99806904D01*
X152780771Y-99806904D02*
X153018866Y-99806904D01*
X153018866Y-99806904D02*
X153209342Y-99854523D01*
X153209342Y-99854523D02*
X153304580Y-99902142D01*
X153304580Y-99902142D02*
X153352200Y-99949761D01*
X153352200Y-99949761D02*
X153399819Y-100044999D01*
X153399819Y-100044999D02*
X153399819Y-100140237D01*
X153399819Y-100140237D02*
X153352200Y-100235475D01*
X153352200Y-100235475D02*
X153304580Y-100283094D01*
X153304580Y-100283094D02*
X153209342Y-100330713D01*
X153209342Y-100330713D02*
X153018866Y-100378332D01*
X153018866Y-100378332D02*
X152780771Y-100378332D01*
X152780771Y-100378332D02*
X152590295Y-100330713D01*
X152590295Y-100330713D02*
X152495057Y-100283094D01*
X152495057Y-100283094D02*
X152447438Y-100235475D01*
X152447438Y-100235475D02*
X152399819Y-100140237D01*
X104949819Y-101753094D02*
X103949819Y-101753094D01*
X103949819Y-101753094D02*
X103949819Y-101514999D01*
X103949819Y-101514999D02*
X103997438Y-101372142D01*
X103997438Y-101372142D02*
X104092676Y-101276904D01*
X104092676Y-101276904D02*
X104187914Y-101229285D01*
X104187914Y-101229285D02*
X104378390Y-101181666D01*
X104378390Y-101181666D02*
X104521247Y-101181666D01*
X104521247Y-101181666D02*
X104711723Y-101229285D01*
X104711723Y-101229285D02*
X104806961Y-101276904D01*
X104806961Y-101276904D02*
X104902200Y-101372142D01*
X104902200Y-101372142D02*
X104949819Y-101514999D01*
X104949819Y-101514999D02*
X104949819Y-101753094D01*
X104949819Y-100229285D02*
X104949819Y-100800713D01*
X104949819Y-100514999D02*
X103949819Y-100514999D01*
X103949819Y-100514999D02*
X104092676Y-100610237D01*
X104092676Y-100610237D02*
X104187914Y-100705475D01*
X104187914Y-100705475D02*
X104235533Y-100800713D01*
X106086009Y-103276904D02*
X106086009Y-102943571D01*
X106609819Y-102800714D02*
X106609819Y-103276904D01*
X106609819Y-103276904D02*
X105609819Y-103276904D01*
X105609819Y-103276904D02*
X105609819Y-102800714D01*
X106228866Y-102372142D02*
X106228866Y-101610238D01*
X106609819Y-100610238D02*
X106609819Y-101181666D01*
X106609819Y-100895952D02*
X105609819Y-100895952D01*
X105609819Y-100895952D02*
X105752676Y-100991190D01*
X105752676Y-100991190D02*
X105847914Y-101086428D01*
X105847914Y-101086428D02*
X105895533Y-101181666D01*
X105609819Y-99991190D02*
X105609819Y-99895952D01*
X105609819Y-99895952D02*
X105657438Y-99800714D01*
X105657438Y-99800714D02*
X105705057Y-99753095D01*
X105705057Y-99753095D02*
X105800295Y-99705476D01*
X105800295Y-99705476D02*
X105990771Y-99657857D01*
X105990771Y-99657857D02*
X106228866Y-99657857D01*
X106228866Y-99657857D02*
X106419342Y-99705476D01*
X106419342Y-99705476D02*
X106514580Y-99753095D01*
X106514580Y-99753095D02*
X106562200Y-99800714D01*
X106562200Y-99800714D02*
X106609819Y-99895952D01*
X106609819Y-99895952D02*
X106609819Y-99991190D01*
X106609819Y-99991190D02*
X106562200Y-100086428D01*
X106562200Y-100086428D02*
X106514580Y-100134047D01*
X106514580Y-100134047D02*
X106419342Y-100181666D01*
X106419342Y-100181666D02*
X106228866Y-100229285D01*
X106228866Y-100229285D02*
X105990771Y-100229285D01*
X105990771Y-100229285D02*
X105800295Y-100181666D01*
X105800295Y-100181666D02*
X105705057Y-100134047D01*
X105705057Y-100134047D02*
X105657438Y-100086428D01*
X105657438Y-100086428D02*
X105609819Y-99991190D01*
X106609819Y-98705476D02*
X106609819Y-99276904D01*
X106609819Y-98991190D02*
X105609819Y-98991190D01*
X105609819Y-98991190D02*
X105752676Y-99086428D01*
X105752676Y-99086428D02*
X105847914Y-99181666D01*
X105847914Y-99181666D02*
X105895533Y-99276904D01*
X107779819Y-96196904D02*
X106779819Y-96196904D01*
X107779819Y-95625476D02*
X107208390Y-96054047D01*
X106779819Y-95625476D02*
X107351247Y-96196904D01*
X161559819Y-101373094D02*
X160559819Y-101373094D01*
X160559819Y-101373094D02*
X160559819Y-101134999D01*
X160559819Y-101134999D02*
X160607438Y-100992142D01*
X160607438Y-100992142D02*
X160702676Y-100896904D01*
X160702676Y-100896904D02*
X160797914Y-100849285D01*
X160797914Y-100849285D02*
X160988390Y-100801666D01*
X160988390Y-100801666D02*
X161131247Y-100801666D01*
X161131247Y-100801666D02*
X161321723Y-100849285D01*
X161321723Y-100849285D02*
X161416961Y-100896904D01*
X161416961Y-100896904D02*
X161512200Y-100992142D01*
X161512200Y-100992142D02*
X161559819Y-101134999D01*
X161559819Y-101134999D02*
X161559819Y-101373094D01*
X160655057Y-100420713D02*
X160607438Y-100373094D01*
X160607438Y-100373094D02*
X160559819Y-100277856D01*
X160559819Y-100277856D02*
X160559819Y-100039761D01*
X160559819Y-100039761D02*
X160607438Y-99944523D01*
X160607438Y-99944523D02*
X160655057Y-99896904D01*
X160655057Y-99896904D02*
X160750295Y-99849285D01*
X160750295Y-99849285D02*
X160845533Y-99849285D01*
X160845533Y-99849285D02*
X160988390Y-99896904D01*
X160988390Y-99896904D02*
X161559819Y-100468332D01*
X161559819Y-100468332D02*
X161559819Y-99849285D01*
X162776009Y-103096904D02*
X162776009Y-102763571D01*
X163299819Y-102620714D02*
X163299819Y-103096904D01*
X163299819Y-103096904D02*
X162299819Y-103096904D01*
X162299819Y-103096904D02*
X162299819Y-102620714D01*
X162918866Y-102192142D02*
X162918866Y-101430238D01*
X163299819Y-100430238D02*
X163299819Y-101001666D01*
X163299819Y-100715952D02*
X162299819Y-100715952D01*
X162299819Y-100715952D02*
X162442676Y-100811190D01*
X162442676Y-100811190D02*
X162537914Y-100906428D01*
X162537914Y-100906428D02*
X162585533Y-101001666D01*
X162299819Y-99811190D02*
X162299819Y-99715952D01*
X162299819Y-99715952D02*
X162347438Y-99620714D01*
X162347438Y-99620714D02*
X162395057Y-99573095D01*
X162395057Y-99573095D02*
X162490295Y-99525476D01*
X162490295Y-99525476D02*
X162680771Y-99477857D01*
X162680771Y-99477857D02*
X162918866Y-99477857D01*
X162918866Y-99477857D02*
X163109342Y-99525476D01*
X163109342Y-99525476D02*
X163204580Y-99573095D01*
X163204580Y-99573095D02*
X163252200Y-99620714D01*
X163252200Y-99620714D02*
X163299819Y-99715952D01*
X163299819Y-99715952D02*
X163299819Y-99811190D01*
X163299819Y-99811190D02*
X163252200Y-99906428D01*
X163252200Y-99906428D02*
X163204580Y-99954047D01*
X163204580Y-99954047D02*
X163109342Y-100001666D01*
X163109342Y-100001666D02*
X162918866Y-100049285D01*
X162918866Y-100049285D02*
X162680771Y-100049285D01*
X162680771Y-100049285D02*
X162490295Y-100001666D01*
X162490295Y-100001666D02*
X162395057Y-99954047D01*
X162395057Y-99954047D02*
X162347438Y-99906428D01*
X162347438Y-99906428D02*
X162299819Y-99811190D01*
X163299819Y-98525476D02*
X163299819Y-99096904D01*
X163299819Y-98811190D02*
X162299819Y-98811190D01*
X162299819Y-98811190D02*
X162442676Y-98906428D01*
X162442676Y-98906428D02*
X162537914Y-99001666D01*
X162537914Y-99001666D02*
X162585533Y-99096904D01*
X160529819Y-106176904D02*
X159529819Y-106176904D01*
X160529819Y-105605476D02*
X159958390Y-106034047D01*
X159529819Y-105605476D02*
X160101247Y-106176904D01*
X126009819Y-101011666D02*
X125533628Y-101344999D01*
X126009819Y-101583094D02*
X125009819Y-101583094D01*
X125009819Y-101583094D02*
X125009819Y-101202142D01*
X125009819Y-101202142D02*
X125057438Y-101106904D01*
X125057438Y-101106904D02*
X125105057Y-101059285D01*
X125105057Y-101059285D02*
X125200295Y-101011666D01*
X125200295Y-101011666D02*
X125343152Y-101011666D01*
X125343152Y-101011666D02*
X125438390Y-101059285D01*
X125438390Y-101059285D02*
X125486009Y-101106904D01*
X125486009Y-101106904D02*
X125533628Y-101202142D01*
X125533628Y-101202142D02*
X125533628Y-101583094D01*
X125009819Y-100678332D02*
X125009819Y-100059285D01*
X125009819Y-100059285D02*
X125390771Y-100392618D01*
X125390771Y-100392618D02*
X125390771Y-100249761D01*
X125390771Y-100249761D02*
X125438390Y-100154523D01*
X125438390Y-100154523D02*
X125486009Y-100106904D01*
X125486009Y-100106904D02*
X125581247Y-100059285D01*
X125581247Y-100059285D02*
X125819342Y-100059285D01*
X125819342Y-100059285D02*
X125914580Y-100106904D01*
X125914580Y-100106904D02*
X125962200Y-100154523D01*
X125962200Y-100154523D02*
X126009819Y-100249761D01*
X126009819Y-100249761D02*
X126009819Y-100535475D01*
X126009819Y-100535475D02*
X125962200Y-100630713D01*
X125962200Y-100630713D02*
X125914580Y-100678332D01*
X126883152Y-101606904D02*
X127549819Y-101606904D01*
X126502200Y-101844999D02*
X127216485Y-102083094D01*
X127216485Y-102083094D02*
X127216485Y-101464047D01*
X126549819Y-101178332D02*
X126549819Y-100511666D01*
X126549819Y-100511666D02*
X127549819Y-100940237D01*
X126549819Y-99940237D02*
X126549819Y-99844999D01*
X126549819Y-99844999D02*
X126597438Y-99749761D01*
X126597438Y-99749761D02*
X126645057Y-99702142D01*
X126645057Y-99702142D02*
X126740295Y-99654523D01*
X126740295Y-99654523D02*
X126930771Y-99606904D01*
X126930771Y-99606904D02*
X127168866Y-99606904D01*
X127168866Y-99606904D02*
X127359342Y-99654523D01*
X127359342Y-99654523D02*
X127454580Y-99702142D01*
X127454580Y-99702142D02*
X127502200Y-99749761D01*
X127502200Y-99749761D02*
X127549819Y-99844999D01*
X127549819Y-99844999D02*
X127549819Y-99940237D01*
X127549819Y-99940237D02*
X127502200Y-100035475D01*
X127502200Y-100035475D02*
X127454580Y-100083094D01*
X127454580Y-100083094D02*
X127359342Y-100130713D01*
X127359342Y-100130713D02*
X127168866Y-100178332D01*
X127168866Y-100178332D02*
X126930771Y-100178332D01*
X126930771Y-100178332D02*
X126740295Y-100130713D01*
X126740295Y-100130713D02*
X126645057Y-100083094D01*
X126645057Y-100083094D02*
X126597438Y-100035475D01*
X126597438Y-100035475D02*
X126549819Y-99940237D01*
X115349819Y-100971666D02*
X114873628Y-101304999D01*
X115349819Y-101543094D02*
X114349819Y-101543094D01*
X114349819Y-101543094D02*
X114349819Y-101162142D01*
X114349819Y-101162142D02*
X114397438Y-101066904D01*
X114397438Y-101066904D02*
X114445057Y-101019285D01*
X114445057Y-101019285D02*
X114540295Y-100971666D01*
X114540295Y-100971666D02*
X114683152Y-100971666D01*
X114683152Y-100971666D02*
X114778390Y-101019285D01*
X114778390Y-101019285D02*
X114826009Y-101066904D01*
X114826009Y-101066904D02*
X114873628Y-101162142D01*
X114873628Y-101162142D02*
X114873628Y-101543094D01*
X114445057Y-100590713D02*
X114397438Y-100543094D01*
X114397438Y-100543094D02*
X114349819Y-100447856D01*
X114349819Y-100447856D02*
X114349819Y-100209761D01*
X114349819Y-100209761D02*
X114397438Y-100114523D01*
X114397438Y-100114523D02*
X114445057Y-100066904D01*
X114445057Y-100066904D02*
X114540295Y-100019285D01*
X114540295Y-100019285D02*
X114635533Y-100019285D01*
X114635533Y-100019285D02*
X114778390Y-100066904D01*
X114778390Y-100066904D02*
X115349819Y-100638332D01*
X115349819Y-100638332D02*
X115349819Y-100019285D01*
X115905057Y-101495475D02*
X115857438Y-101447856D01*
X115857438Y-101447856D02*
X115809819Y-101352618D01*
X115809819Y-101352618D02*
X115809819Y-101114523D01*
X115809819Y-101114523D02*
X115857438Y-101019285D01*
X115857438Y-101019285D02*
X115905057Y-100971666D01*
X115905057Y-100971666D02*
X116000295Y-100924047D01*
X116000295Y-100924047D02*
X116095533Y-100924047D01*
X116095533Y-100924047D02*
X116238390Y-100971666D01*
X116238390Y-100971666D02*
X116809819Y-101543094D01*
X116809819Y-101543094D02*
X116809819Y-100924047D01*
X116809819Y-100495475D02*
X115809819Y-100495475D01*
X116428866Y-100400237D02*
X116809819Y-100114523D01*
X116143152Y-100114523D02*
X116524104Y-100495475D01*
M02*
