M48
; DRILL file {KiCad 9.0.1} date 2025-04-11T19:14:00-0400
; FORMAT={-:-/ absolute / metric / decimal}
; #@! TF.CreationDate,2025-04-11T19:14:00-04:00
; #@! TF.GenerationSoftware,Kicad,Pcbnew,9.0.1
; #@! TF.FileFunction,Plated,1,2,PTH
FMAT,2
METRIC
; #@! TA.AperFunction,Plated,PTH,ComponentDrill
T1C0.800
; #@! TA.AperFunction,Plated,PTH,ComponentDrill
T2C0.900
; #@! TA.AperFunction,Plated,PTH,ComponentDrill
T3C1.100
; #@! TA.AperFunction,Plated,PTH,ComponentDrill
T4C1.300
%
G90
G05
T1
X115.725Y-95.725
X115.725Y-105.885
X126.125Y-95.765
X126.125Y-105.925
X142.125Y-95.935
X142.125Y-106.095
X152.175Y-95.965
X152.175Y-106.125
T2
X105.425Y-95.935
X105.425Y-106.095
X114.125Y-140.135
X116.665Y-140.135
X150.925Y-140.205
X153.465Y-140.205
X161.975Y-95.755
X161.975Y-105.915
T3
X106.335Y-83.425
X108.875Y-83.425
X111.415Y-83.425
X119.935Y-83.345
X122.475Y-83.345
X125.015Y-83.345
X143.335Y-83.385
X145.875Y-83.385
X148.415Y-83.385
X155.935Y-83.385
X158.475Y-83.385
X161.015Y-83.385
T4
X131.835Y-69.075
X136.835Y-69.075
M30
