M48
; DRILL file {KiCad 8.0.8} date 2025-04-06T21:33:24-0400
; FORMAT={-:-/ absolute / inch / decimal}
; #@! TF.CreationDate,2025-04-06T21:33:24-04:00
; #@! TF.GenerationSoftware,Kicad,Pcbnew,8.0.8
; #@! TF.FileFunction,Plated,1,2,PTH
FMAT,2
INCH
; #@! TA.AperFunction,Plated,PTH,ComponentDrill
T1C0.0315
; #@! TA.AperFunction,Plated,PTH,ComponentDrill
T2C0.0354
; #@! TA.AperFunction,Plated,PTH,ComponentDrill
T3C0.0433
; #@! TA.AperFunction,Plated,PTH,ComponentDrill
T4C0.0512
%
G90
G05
T1
X4.5561Y-3.7687
X4.5561Y-4.1687
X4.9656Y-3.7703
X4.9656Y-4.1703
X5.5955Y-3.777
X5.5955Y-4.177
X5.9911Y-3.7781
X5.9911Y-4.1781
T2
X4.1506Y-3.777
X4.1506Y-4.177
X4.4931Y-5.5171
X4.5931Y-5.5171
X5.9419Y-5.5199
X6.0419Y-5.5199
X6.377Y-3.7699
X6.377Y-4.1699
T3
X4.1864Y-3.2844
X4.2864Y-3.2844
X4.3864Y-3.2844
X4.7219Y-3.2813
X4.8219Y-3.2813
X4.9219Y-3.2813
X5.6431Y-3.2829
X5.7431Y-3.2829
X5.8431Y-3.2829
X6.1392Y-3.2829
X6.2392Y-3.2829
X6.3392Y-3.2829
T4
X5.1904Y-2.7195
X5.3872Y-2.7195
M30
