%TF.GenerationSoftware,KiCad,Pcbnew,8.0.8*%
%TF.CreationDate,2025-04-06T21:33:28-04:00*%
%TF.ProjectId,transistor-tester,7472616e-7369-4737-946f-722d74657374,rev?*%
%TF.SameCoordinates,Original*%
%TF.FileFunction,Soldermask,Bot*%
%TF.FilePolarity,Negative*%
%FSLAX46Y46*%
G04 Gerber Fmt 4.6, Leading zero omitted, Abs format (unit mm)*
G04 Created by KiCad (PCBNEW 8.0.8) date 2025-04-06 21:33:28*
%MOMM*%
%LPD*%
G01*
G04 APERTURE LIST*
G04 Aperture macros list*
%AMRoundRect*
0 Rectangle with rounded corners*
0 $1 Rounding radius*
0 $2 $3 $4 $5 $6 $7 $8 $9 X,Y pos of 4 corners*
0 Add a 4 corners polygon primitive as box body*
4,1,4,$2,$3,$4,$5,$6,$7,$8,$9,$2,$3,0*
0 Add four circle primitives for the rounded corners*
1,1,$1+$1,$2,$3*
1,1,$1+$1,$4,$5*
1,1,$1+$1,$6,$7*
1,1,$1+$1,$8,$9*
0 Add four rect primitives between the rounded corners*
20,1,$1+$1,$2,$3,$4,$5,0*
20,1,$1+$1,$4,$5,$6,$7,0*
20,1,$1+$1,$6,$7,$8,$9,0*
20,1,$1+$1,$8,$9,$2,$3,0*%
G04 Aperture macros list end*
%ADD10C,5.400000*%
%ADD11C,13.000000*%
%ADD12O,2.000000X4.000000*%
%ADD13C,1.600000*%
%ADD14O,1.600000X1.600000*%
%ADD15RoundRect,0.250001X-1.149999X-1.149999X1.149999X-1.149999X1.149999X1.149999X-1.149999X1.149999X0*%
%ADD16C,2.800000*%
%ADD17O,1.905000X2.000000*%
%ADD18R,1.905000X2.000000*%
%ADD19C,1.800000*%
%ADD20R,1.800000X1.800000*%
%ADD21O,1.800000X1.800000*%
G04 APERTURE END LIST*
D10*
%TO.C,*%
X99850000Y-65200000D03*
%TD*%
%TO.C,*%
X165000000Y-65250000D03*
%TD*%
%TO.C,*%
X164950000Y-143800000D03*
%TD*%
%TO.C,REF\u002A\u002A*%
X99800000Y-143750000D03*
%TD*%
D11*
%TO.C,SW2*%
X115600000Y-118650000D03*
D12*
X103600000Y-118650000D03*
X127600000Y-118650000D03*
%TD*%
D13*
%TO.C,R4*%
X152175000Y-106125000D03*
D14*
X152175000Y-95965000D03*
%TD*%
D13*
%TO.C,R3*%
X126125000Y-105925000D03*
D14*
X126125000Y-95765000D03*
%TD*%
D13*
%TO.C,R2*%
X115725000Y-95725000D03*
D14*
X115725000Y-105885000D03*
%TD*%
D15*
%TO.C,J1*%
X131835000Y-69075000D03*
D16*
X136835000Y-69075000D03*
%TD*%
D11*
%TO.C,SW1*%
X152200000Y-118600000D03*
D12*
X164200000Y-118600000D03*
X140200000Y-118600000D03*
%TD*%
D14*
%TO.C,R1*%
X142125000Y-106095000D03*
D13*
X142125000Y-95935000D03*
%TD*%
D17*
%TO.C,J5*%
X161015000Y-83385000D03*
X158475000Y-83385000D03*
D18*
X155935000Y-83385000D03*
%TD*%
D17*
%TO.C,J4*%
X125015000Y-83345000D03*
X122475000Y-83345000D03*
D18*
X119935000Y-83345000D03*
%TD*%
D17*
%TO.C,J3*%
X148415000Y-83385000D03*
X145875000Y-83385000D03*
D18*
X143335000Y-83385000D03*
%TD*%
D17*
%TO.C,J2*%
X111415000Y-83425000D03*
X108875000Y-83425000D03*
D18*
X106335000Y-83425000D03*
%TD*%
D19*
%TO.C,D4*%
X153465000Y-140205000D03*
D20*
X150925000Y-140205000D03*
%TD*%
D19*
%TO.C,D3*%
X116665000Y-140135000D03*
D20*
X114125000Y-140135000D03*
%TD*%
D21*
%TO.C,D2*%
X161975000Y-95755000D03*
D20*
X161975000Y-105915000D03*
%TD*%
D21*
%TO.C,D1*%
X105425000Y-106095000D03*
D20*
X105425000Y-95935000D03*
%TD*%
M02*
